<?xml version="1.0" encoding="UTF-8" standalone="no"?>
<!-- Created with Inkscape (http://www.inkscape.org/) -->

<svg
   version="1.1"
   id="svg1"
   width="593.59283"
   height="505.99939"
   viewBox="0 0 593.59283 505.99939"
   sodipodi:docname="logo2.png"
   xmlns:inkscape="http://www.inkscape.org/namespaces/inkscape"
   xmlns:sodipodi="http://sodipodi.sourceforge.net/DTD/sodipodi-0.dtd"
   xmlns="http://www.w3.org/2000/svg"
   xmlns:svg="http://www.w3.org/2000/svg">
  <defs
     id="defs1" />
  <sodipodi:namedview
     id="namedview1"
     pagecolor="#505050"
     bordercolor="#eeeeee"
     borderopacity="1"
     inkscape:showpageshadow="0"
     inkscape:pageopacity="0"
     inkscape:pagecheckerboard="0"
     inkscape:deskcolor="#505050" />
  <g
     inkscape:groupmode="layer"
     inkscape:label="Image"
     id="g1"
     transform="translate(-203.24903,-260)">
    <path
       style="fill:#000000"
       d="m 203.3513,764.37627 c 0.31142,-1.03195 3.7771,-19.42521 7.70149,-40.87391 3.9244,-21.4487 7.34452,-39.3362 7.60026,-39.75 0.25574,-0.4138 2.66681,-0.75236 5.35793,-0.75236 9.83806,0 33.11876,-4.02515 41.11411,-7.10849 10.5748,-4.07807 21.8421,-11.63305 30.98865,-20.7786 17.42957,-17.42765 28.01236,-40.85645 36.18703,-80.11291 1.88975,-9.075 16.88266,-83.66117 33.31757,-165.74704 L 395.5,260.00593 l 47.75,-0.003 c 26.2625,-0.002 47.739,0.33454 47.72555,0.74704 -0.0134,0.4125 -0.49259,2.775 -1.06476,5.25 -0.57218,2.475 -3.46103,16.2 -6.41966,30.5 -2.95864,14.3 -10.15294,48.95 -15.98735,77 -5.83441,28.05 -14.65078,70.575 -19.59195,94.5 -17.56752,85.06157 -28.02607,134.63175 -30.39551,144.06501 C 399.71586,682.9325 357.42555,733.36084 298.5,753.98394 c -23.473,8.21521 -40.66975,11.022 -71.85747,11.72831 -22.99933,0.52086 -23.83709,0.47281 -23.29123,-1.33598 z M 443.73352,668.75 c 4.59831,-22.1375 11.24089,-54.2 14.76129,-71.25 3.5204,-17.05 12.02977,-58.225 18.90972,-91.5 6.87995,-33.275 20.87766,-101 31.10602,-150.5 10.22836,-49.5 18.85406,-91.2375 19.16823,-92.75 L 528.25,260 h 73.32378 c 77.55489,0 85.01874,0.35329 104.72719,4.95708 38.26209,8.93782 66.07046,29.76948 80.81928,60.54292 6.64181,13.85815 8.94837,23.78143 9.60177,41.30877 0.79043,21.20317 -2.27694,36.36766 -10.78133,53.30078 -11.85247,23.59948 -35.67176,44.28218 -62.72909,54.46875 l -8.28841,3.12043 9.28841,4.74473 c 34.75225,17.75227 54.11576,48.40164 54.70343,86.58688 0.5611,36.45853 -14.17268,69.41128 -42.34829,94.71384 -27.37034,24.5794 -64.85439,39.21728 -111.98881,43.7327 C 611.73725,708.707 592.00956,709 522.02586,709 h -86.65291 z m 179.56996,-39.16373 c 20.90404,-3.31239 37.3091,-11.07224 48.34215,-22.8666 20.98425,-22.43223 22.36297,-56.93939 2.97157,-74.37393 -14.50765,-13.04363 -32.74299,-16.6346 -81.87879,-16.12389 -22.78363,0.2368 -26.83264,0.50186 -27.23963,1.78318 -0.26293,0.82777 -2.70916,12.52777 -5.43606,26 -6.66846,32.94548 -16.9174,82.92778 -17.61126,85.88701 l -0.56086,2.39204 35.8047,-0.57219 c 24.95649,-0.39883 38.77499,-1.04285 45.60818,-2.12562 z m 14.48593,-190.64275 c 23.37905,-2.54357 38.36227,-8.40523 50.32067,-19.68618 13.62635,-12.8544 19.84513,-32.567 15.46487,-49.02133 -4.0395,-15.1743 -15.95251,-25.25785 -35.94459,-30.42465 -7.05005,-1.82203 -11.87125,-2.16054 -36.284,-2.54757 -26.6918,-0.42316 -28.18221,-0.35073 -28.70373,1.39494 -0.66093,2.21232 -7.45702,35.05922 -12.27782,59.34127 -1.91088,9.625 -4.57469,22.5985 -5.91957,28.83 C 583.10036,433.0615 582,438.574 582,439.08 c 0,1.27774 43.77502,1.17065 55.78941,-0.13648 z"
       id="path1" />
  </g>
</svg>
