<svg version="1.1" viewBox="0.0 0.0 600.0 371.0" fill="none" stroke="none" stroke-linecap="square" stroke-miterlimit="10" width="600" height="371" xmlns:xlink="http://www.w3.org/1999/xlink" xmlns="http://www.w3.org/2000/svg"><path fill="#ffffff" d="M0 0L600.0 0L600.0 371.0L0 371.0L0 0Z" fill-rule="nonzero"/><path stroke="#000000" stroke-width="1.0" stroke-linecap="butt" stroke-opacity="0.0" d="M83.5 283.5L581.5 283.5" fill-rule="nonzero"/><path stroke="#000000" stroke-width="1.0" stroke-linecap="butt" stroke-opacity="0.0" d="M83.5 267.5L581.5 267.5" fill-rule="nonzero"/><path stroke="#000000" stroke-width="1.0" stroke-linecap="butt" stroke-opacity="0.0" d="M83.5 234.5L581.5 234.5" fill-rule="nonzero"/><path stroke="#000000" stroke-width="1.0" stroke-linecap="butt" stroke-opacity="0.0" d="M83.5 217.5L581.5 217.5" fill-rule="nonzero"/><path stroke="#000000" stroke-width="1.0" stroke-linecap="butt" stroke-opacity="0.0" d="M83.5 184.5L581.5 184.5" fill-rule="nonzero"/><path stroke="#000000" stroke-width="1.0" stroke-linecap="butt" stroke-opacity="0.0" d="M83.5 167.5L581.5 167.5" fill-rule="nonzero"/><path stroke="#000000" stroke-width="1.0" stroke-linecap="butt" stroke-opacity="0.0" d="M83.5 134.5L581.5 134.5" fill-rule="nonzero"/><path stroke="#000000" stroke-width="1.0" stroke-linecap="butt" stroke-opacity="0.0" d="M83.5 118.5L581.5 118.5" fill-rule="nonzero"/><path stroke="#000000" stroke-width="1.0" stroke-linecap="butt" stroke-opacity="0.0" d="M83.5 85.5L581.5 85.5" fill-rule="nonzero"/><path stroke="#000000" stroke-width="1.0" stroke-linecap="butt" stroke-opacity="0.0" d="M83.5 68.5L581.5 68.5" fill-rule="nonzero"/><path stroke="#000000" stroke-width="1.0" stroke-linecap="butt" d="M83.5 300.5L83.5 51.5" fill-rule="nonzero"/><clipPath id="id_0"><path d="M83.55 51.916668L581.45 51.916668L581.45 300.45L83.55 300.45L83.55 51.916668Z" clip-rule="nonzero"/></clipPath><path stroke="#cc0000" stroke-width="2.0" stroke-linecap="butt" stroke-dasharray="8.0,6.0" clip-path="url(#id_0)" d="M106.181816 245.77266L151.44545 250.74333L196.70909 255.714L241.97273 258.6964L287.23636 261.6788L332.5 263.66705L377.76364 265.65533L423.02728 266.64948L468.29092 267.6436L513.55457 268.63773L558.8182 269.63187" fill-rule="nonzero"/><path stroke="#3d85c6" stroke-width="4.0" stroke-linecap="butt" clip-path="url(#id_0)" d="M106.181816 81.74067L151.44545 134.76111L196.70909 172.63286L241.97273 196.066L287.23636 214.29178L332.5 226.88414L377.76364 237.18697L423.02728 244.11578L468.29092 249.97862L513.55457 255.0039L558.8182 259.35916" fill-rule="nonzero"/><path fill="#000000" fill-opacity="0.0" clip-path="url(#id_0)" d="M109.181816 245.77266C109.181816 247.42952 107.83867 248.77266 106.181816 248.77266C104.52496 248.77266 103.181816 247.42952 103.181816 245.77266C103.181816 244.11581 104.52496 242.77266 106.181816 242.77266C107.83867 242.77266 109.181816 244.11581 109.181816 245.77266Z" fill-rule="nonzero"/><path fill="#000000" fill-opacity="0.0" clip-path="url(#id_0)" d="M154.44545 250.74333C154.44545 252.40019 153.10231 253.74333 151.44545 253.74333C149.7886 253.74333 148.44545 252.40019 148.44545 250.74333C148.44545 249.08647 149.7886 247.74333 151.44545 247.74333C153.10231 247.74333 154.44545 249.08647 154.44545 250.74333Z" fill-rule="nonzero"/><path fill="#000000" fill-opacity="0.0" clip-path="url(#id_0)" d="M199.70909 255.714C199.70909 257.37085 198.36595 258.714 196.70909 258.714C195.05223 258.714 193.70909 257.37085 193.70909 255.714C193.70909 254.05714 195.05223 252.714 196.70909 252.714C198.36595 252.714 199.70909 254.05714 199.70909 255.714Z" fill-rule="nonzero"/><path fill="#000000" fill-opacity="0.0" clip-path="url(#id_0)" d="M244.97273 258.6964C244.97273 260.35324 243.62958 261.6964 241.97273 261.6964C240.31587 261.6964 238.97273 260.35324 238.97273 258.6964C238.97273 257.03955 240.31587 255.6964 241.97273 255.6964C243.62958 255.6964 244.97273 257.03955 244.97273 258.6964Z" fill-rule="nonzero"/><path fill="#000000" fill-opacity="0.0" clip-path="url(#id_0)" d="M290.23636 261.6788C290.23636 263.33566 288.89322 264.6788 287.23636 264.6788C285.5795 264.6788 284.23636 263.33566 284.23636 261.6788C284.23636 260.02194 285.5795 258.6788 287.23636 258.6788C288.89322 258.6788 290.23636 260.02194 290.23636 261.6788Z" fill-rule="nonzero"/><path fill="#000000" fill-opacity="0.0" clip-path="url(#id_0)" d="M335.5 263.66705C335.5 265.3239 334.15686 266.66705 332.5 266.66705C330.84314 266.66705 329.5 265.3239 329.5 263.66705C329.5 262.01022 330.84314 260.66705 332.5 260.66705C334.15686 260.66705 335.5 262.01022 335.5 263.66705Z" fill-rule="nonzero"/><path fill="#000000" fill-opacity="0.0" clip-path="url(#id_0)" d="M380.76364 265.65533C380.76364 267.3122 379.4205 268.65533 377.76364 268.65533C376.10678 268.65533 374.76364 267.3122 374.76364 265.65533C374.76364 263.99847 376.10678 262.65533 377.76364 262.65533C379.4205 262.65533 380.76364 263.99847 380.76364 265.65533Z" fill-rule="nonzero"/><path fill="#000000" fill-opacity="0.0" clip-path="url(#id_0)" d="M426.02728 266.64948C426.02728 268.30634 424.6841 269.64948 423.02728 269.64948C421.37042 269.64948 420.02728 268.30634 420.02728 266.64948C420.02728 264.9926 421.37042 263.64948 423.02728 263.64948C424.6841 263.64948 426.02728 264.9926 426.02728 266.64948Z" fill-rule="nonzero"/><path fill="#000000" fill-opacity="0.0" clip-path="url(#id_0)" d="M471.29092 267.6436C471.29092 269.30045 469.94775 270.6436 468.29092 270.6436C466.63406 270.6436 465.29092 269.30045 465.29092 267.6436C465.29092 265.98676 466.63406 264.6436 468.29092 264.6436C469.94775 264.6436 471.29092 265.98676 471.29092 267.6436Z" fill-rule="nonzero"/><path fill="#000000" fill-opacity="0.0" clip-path="url(#id_0)" d="M516.55457 268.63773C516.55457 270.2946 515.2114 271.63773 513.55457 271.63773C511.8977 271.63773 510.55453 270.2946 510.55453 268.63773C510.55453 266.98087 511.8977 265.63773 513.55457 265.63773C515.2114 265.63773 516.55457 266.98087 516.55457 268.63773Z" fill-rule="nonzero"/><path fill="#000000" fill-opacity="0.0" clip-path="url(#id_0)" d="M561.8182 269.63187C561.8182 271.28873 560.47504 272.63187 558.8182 272.63187C557.1613 272.63187 555.8182 271.28873 555.8182 269.63187C555.8182 267.975 557.1613 266.63187 558.8182 266.63187C560.47504 266.63187 561.8182 267.975 561.8182 269.63187Z" fill-rule="nonzero"/><path fill="#3d85c6" clip-path="url(#id_0)" d="M106.181816 81.74067C106.181816 81.74067 106.181816 81.74067 106.181816 81.74067C106.181816 81.74067 106.181816 81.74067 106.181816 81.74067C106.181816 81.74067 106.181816 81.74067 106.181816 81.74067C106.181816 81.74067 106.181816 81.74067 106.181816 81.74067Z" fill-rule="nonzero"/><path fill="#3d85c6" clip-path="url(#id_0)" d="M151.44545 134.76111C151.44545 134.76111 151.44545 134.76111 151.44545 134.76111C151.44545 134.76111 151.44545 134.76111 151.44545 134.76111C151.44545 134.76111 151.44545 134.76111 151.44545 134.76111C151.44545 134.76111 151.44545 134.76111 151.44545 134.76111Z" fill-rule="nonzero"/><path fill="#3d85c6" clip-path="url(#id_0)" d="M196.70909 172.63286C196.70909 172.63286 196.70909 172.63286 196.70909 172.63286C196.70909 172.63286 196.70909 172.63286 196.70909 172.63286C196.70909 172.63286 196.70909 172.63286 196.70909 172.63286C196.70909 172.63286 196.70909 172.63286 196.70909 172.63286Z" fill-rule="nonzero"/><path fill="#3d85c6" clip-path="url(#id_0)" d="M241.97273 196.066C241.97273 196.066 241.97273 196.066 241.97273 196.066C241.97273 196.066 241.97273 196.066 241.97273 196.066C241.97273 196.066 241.97273 196.066 241.97273 196.066C241.97273 196.066 241.97273 196.066 241.97273 196.066Z" fill-rule="nonzero"/><path fill="#3d85c6" clip-path="url(#id_0)" d="M287.23636 214.29178C287.23636 214.29178 287.23636 214.29178 287.23636 214.29178C287.23636 214.29178 287.23636 214.29178 287.23636 214.29178C287.23636 214.29178 287.23636 214.29178 287.23636 214.29178C287.23636 214.29178 287.23636 214.29178 287.23636 214.29178Z" fill-rule="nonzero"/><path fill="#3d85c6" clip-path="url(#id_0)" d="M332.5 226.88414C332.5 226.88414 332.5 226.88414 332.5 226.88414C332.5 226.88414 332.5 226.88414 332.5 226.88414C332.5 226.88414 332.5 226.88414 332.5 226.88414C332.5 226.88414 332.5 226.88414 332.5 226.88414Z" fill-rule="nonzero"/><path fill="#3d85c6" clip-path="url(#id_0)" d="M377.76364 237.18697C377.76364 237.18697 377.76364 237.18697 377.76364 237.18697C377.76364 237.18697 377.76364 237.18697 377.76364 237.18697C377.76364 237.18697 377.76364 237.18697 377.76364 237.18697C377.76364 237.18697 377.76364 237.18697 377.76364 237.18697Z" fill-rule="nonzero"/><path fill="#3d85c6" clip-path="url(#id_0)" d="M423.02728 244.11578C423.02728 244.11578 423.02728 244.11578 423.02728 244.11578C423.02728 244.11578 423.02728 244.11578 423.02728 244.11578C423.02728 244.11578 423.02728 244.11578 423.02728 244.11578C423.02728 244.11578 423.02728 244.11578 423.02728 244.11578Z" fill-rule="nonzero"/><path fill="#3d85c6" clip-path="url(#id_0)" d="M468.29092 249.97862C468.29092 249.97862 468.29092 249.97862 468.29092 249.97862C468.29092 249.97862 468.29092 249.97862 468.29092 249.97862C468.29092 249.97862 468.29092 249.97862 468.29092 249.97862C468.29092 249.97862 468.29092 249.97862 468.29092 249.97862Z" fill-rule="nonzero"/><path fill="#3d85c6" clip-path="url(#id_0)" d="M513.55457 255.0039C513.55457 255.0039 513.55457 255.0039 513.55457 255.0039C513.55457 255.0039 513.55457 255.0039 513.55457 255.0039C513.55457 255.0039 513.55457 255.0039 513.55457 255.0039C513.55457 255.0039 513.55457 255.0039 513.55457 255.0039Z" fill-rule="nonzero"/><path fill="#3d85c6" clip-path="url(#id_0)" d="M558.8182 259.35916C558.8182 259.35916 558.8182 259.35916 558.8182 259.35916C558.8182 259.35916 558.8182 259.35916 558.8182 259.35916C558.8182 259.35916 558.8182 259.35916 558.8182 259.35916C558.8182 259.35916 558.8182 259.35916 558.8182 259.35916Z" fill-rule="nonzero"/><path stroke="#000000" stroke-width="1.0" stroke-linecap="butt" d="M77.5 300.5L89.5 300.5" fill-rule="nonzero"/><path stroke="#000000" stroke-width="1.0" stroke-linecap="butt" d="M77.5 250.5L89.5 250.5" fill-rule="nonzero"/><path stroke="#000000" stroke-width="1.0" stroke-linecap="butt" d="M77.5 201.5L89.5 201.5" fill-rule="nonzero"/><path stroke="#000000" stroke-width="1.0" stroke-linecap="butt" d="M77.5 151.5L89.5 151.5" fill-rule="nonzero"/><path stroke="#000000" stroke-width="1.0" stroke-linecap="butt" d="M77.5 101.5L89.5 101.5" fill-rule="nonzero"/><path stroke="#000000" stroke-width="1.0" stroke-linecap="butt" d="M77.5 51.5L89.5 51.5" fill-rule="nonzero"/><path fill="#000000" d="M308.89062 349.45L308.89062 340.85626L310.60938 340.85626L312.64062 346.9344Q312.92188 347.79376 313.04688 348.21564Q313.1875 347.7469 313.5 346.84064L315.5625 340.85626L317.09375 340.85626L317.09375 349.45L316.0 349.45L316.0 342.2625L313.5 349.45L312.46875 349.45L309.98438 342.1375L309.98438 349.45L308.89062 349.45ZM317.79688 342.075L317.79688 340.85626L318.85938 340.85626L318.85938 342.075L317.79688 342.075ZM317.79688 349.45L317.79688 343.23126L318.85938 343.23126L318.85938 349.45L317.79688 349.45ZM325.04688 347.45L326.14062 347.575Q325.89062 348.52814 325.1875 349.0594Q324.48438 349.59064 323.40625 349.59064Q322.04688 349.59064 321.23438 348.7469Q320.4375 347.90314 320.4375 346.3875Q320.4375 344.825 321.25 343.96564Q322.0625 343.09064 323.34375 343.09064Q324.59375 343.09064 325.375 343.9344Q326.17188 344.77814 326.17188 346.325Q326.17188 346.41876 326.17188 346.60626L321.53125 346.60626Q321.59375 347.6375 322.10938 348.1844Q322.625 348.71564 323.40625 348.71564Q323.98438 348.71564 324.39062 348.41876Q324.8125 348.10626 325.04688 347.45ZM321.59375 345.7469L325.0625 345.7469Q325.0 344.95 324.67188 344.5594Q324.15625 343.95 323.35938 343.95Q322.625 343.95 322.125 344.4344Q321.64062 344.91876 321.59375 345.7469ZM327.375 347.59064L328.40625 347.4344Q328.5 348.0594 328.89062 348.3875Q329.29688 348.71564 330.03125 348.71564Q330.75 348.71564 331.09375 348.4344Q331.45312 348.1375 331.45312 347.73126Q331.45312 347.3719 331.14062 347.16876Q330.92188 347.02814 330.0625 346.8094Q328.90625 346.5125 328.45312 346.3094Q328.01562 346.09064 327.78125 345.71564Q327.54688 345.34064 327.54688 344.8719Q327.54688 344.46564 327.73438 344.10626Q327.92188 343.7469 328.25 343.5125Q328.5 343.34064 328.92188 343.21564Q329.34375 343.09064 329.84375 343.09064Q330.5625 343.09064 331.10938 343.3094Q331.67188 343.5125 331.9375 343.8719Q332.20312 344.23126 332.29688 344.825L331.26562 344.96564Q331.20312 344.4969 330.85938 344.23126Q330.53125 343.95 329.90625 343.95Q329.1875 343.95 328.875 344.2Q328.5625 344.4344 328.5625 344.7625Q328.5625 344.96564 328.6875 345.1219Q328.82812 345.29376 329.09375 345.40314Q329.25 345.46564 330.03125 345.66876Q331.15625 345.98126 331.59375 346.16876Q332.03125 346.35626 332.28125 346.71564Q332.53125 347.075 332.53125 347.6219Q332.53125 348.15314 332.21875 348.6219Q331.92188 349.075 331.34375 349.34064Q330.76562 349.59064 330.03125 349.59064Q328.8125 349.59064 328.17188 349.09064Q327.54688 348.575 327.375 347.59064ZM334.79688 342.075L334.79688 340.85626L335.85938 340.85626L335.85938 342.075L334.79688 342.075ZM334.79688 349.45L334.79688 343.23126L335.85938 343.23126L335.85938 349.45L334.79688 349.45ZM341.85938 348.6844Q341.26562 349.1844 340.71875 349.3875Q340.1875 349.59064 339.5625 349.59064Q338.53125 349.59064 337.98438 349.09064Q337.4375 348.59064 337.4375 347.8094Q337.4375 347.35626 337.64062 346.98126Q337.84375 346.59064 338.1875 346.3719Q338.53125 346.1375 338.95312 346.02814Q339.25 345.9344 339.89062 345.85626Q341.15625 345.71564 341.76562 345.4969Q341.76562 345.27814 341.76562 345.23126Q341.76562 344.575 341.46875 344.3094Q341.0625 343.96564 340.26562 343.96564Q339.53125 343.96564 339.17188 344.23126Q338.8125 344.48126 338.64062 345.1375L337.60938 344.9969Q337.75 344.34064 338.07812 343.9344Q338.40625 343.52814 339.01562 343.3094Q339.625 343.09064 340.42188 343.09064Q341.21875 343.09064 341.71875 343.27814Q342.21875 343.46564 342.45312 343.7469Q342.6875 344.02814 342.78125 344.46564Q342.82812 344.73126 342.82812 345.4344L342.82812 346.84064Q342.82812 348.3094 342.89062 348.7Q342.96875 349.09064 343.17188 349.45L342.0625 349.45Q341.90625 349.1219 341.85938 348.6844ZM341.76562 346.325Q341.1875 346.5594 340.04688 346.73126Q339.39062 346.825 339.125 346.95Q338.85938 347.0594 338.70312 347.27814Q338.5625 347.4969 338.5625 347.77814Q338.5625 348.2 338.875 348.48126Q339.20312 348.7625 339.8125 348.7625Q340.42188 348.7625 340.89062 348.4969Q341.375 348.23126 341.59375 347.7625Q341.76562 347.40314 341.76562 346.71564L341.76562 346.325ZM342.9375 349.45Q342.60938 349.65314 342.42188 349.95Q342.23438 350.2625 342.23438 350.575Q342.23438 350.8094 342.375 350.98126Q342.51562 351.15314 342.8125 351.15314Q342.95312 351.15314 343.09375 351.10626Q343.23438 351.075 343.34375 351.0125L343.34375 351.7625Q342.92188 351.96564 342.54688 351.96564Q342.25 351.96564 342.03125 351.8719Q341.8125 351.79376 341.65625 351.6375Q341.51562 351.4969 341.4375 351.3094Q341.35938 351.1219 341.35938 350.8875Q341.35938 350.5125 341.5625 350.1375Q341.78125 349.7625 342.17188 349.45L342.9375 349.45ZM348.85938 347.16876L349.89062 347.3094Q349.71875 348.3719 349.01562 348.98126Q348.3125 349.59064 347.29688 349.59064Q346.01562 349.59064 345.23438 348.7625Q344.46875 347.91876 344.46875 346.35626Q344.46875 345.35626 344.79688 344.60626Q345.14062 343.84064 345.8125 343.46564Q346.5 343.09064 347.3125 343.09064Q348.3125 343.09064 348.95312 343.60626Q349.60938 344.10626 349.79688 345.0594L348.76562 345.21564Q348.625 344.59064 348.25 344.27814Q347.875 343.95 347.34375 343.95Q346.54688 343.95 346.04688 344.52814Q345.54688 345.09064 345.54688 346.325Q345.54688 347.59064 346.03125 348.15314Q346.51562 348.71564 347.28125 348.71564Q347.90625 348.71564 348.3125 348.34064Q348.73438 347.96564 348.85938 347.16876ZM355.04688 347.45L356.14062 347.575Q355.89062 348.52814 355.1875 349.0594Q354.48438 349.59064 353.40625 349.59064Q352.04688 349.59064 351.23438 348.7469Q350.4375 347.90314 350.4375 346.3875Q350.4375 344.825 351.25 343.96564Q352.0625 343.09064 353.34375 343.09064Q354.59375 343.09064 355.375 343.9344Q356.17188 344.77814 356.17188 346.325Q356.17188 346.41876 356.17188 346.60626L351.53125 346.60626Q351.59375 347.6375 352.10938 348.1844Q352.625 348.71564 353.40625 348.71564Q353.98438 348.71564 354.39062 348.41876Q354.8125 348.10626 355.04688 347.45ZM351.59375 345.7469L355.0625 345.7469Q355.0 344.95 354.67188 344.5594Q354.15625 343.95 353.35938 343.95Q352.625 343.95 352.125 344.4344Q351.64062 344.91876 351.59375 345.7469Z" fill-rule="nonzero"/><path fill="#000000" d="M26.534388 188.12083L26.831263 186.99583Q28.221888 187.35521 28.956263 188.27708Q29.690638 189.19896 29.690638 190.54271Q29.690638 191.93333 29.128138 192.80833Q28.565638 193.68333 27.503138 194.13646Q26.425013 194.58958 25.190638 194.58958Q23.846888 194.58958 22.846888 194.07396Q21.846888 193.55833 21.331263 192.62083Q20.815638 191.66771 20.815638 190.52708Q20.815638 189.24583 21.471888 188.37083Q22.128138 187.48021 23.315638 187.13646L23.581263 188.26146Q22.643763 188.55833 22.221888 189.13646Q21.784388 189.69896 21.784388 190.55833Q21.784388 191.54271 22.268763 192.21458Q22.737513 192.87083 23.534388 193.15208Q24.331263 193.41771 25.190638 193.41771Q26.284388 193.41771 27.096888 193.10521Q27.909388 192.77708 28.315638 192.10521Q28.721888 191.43333 28.721888 190.63646Q28.721888 189.68333 28.175013 189.02708Q27.628138 188.35521 26.534388 188.12083ZM29.550013 186.19896L20.956263 182.90208L20.956263 181.68333L29.550013 178.16771L29.550013 179.44896L26.940638 180.46458L26.940638 184.04271L29.550013 184.99583L29.550013 186.19896ZM26.018763 183.71458L26.018763 180.80833L23.643763 181.69896Q22.565638 182.12083 21.862513 182.30833Q22.690638 182.48021 23.503138 182.77708L26.018763 183.71458ZM26.534388 172.12083L26.831263 170.99583Q28.221888 171.35521 28.956263 172.27708Q29.690638 173.19896 29.690638 174.54271Q29.690638 175.93333 29.128138 176.80833Q28.565638 177.68333 27.503138 178.13646Q26.425013 178.58958 25.190638 178.58958Q23.846888 178.58958 22.846888 178.07396Q21.846888 177.55833 21.331263 176.62083Q20.815638 175.66771 20.815638 174.52708Q20.815638 173.24583 21.471888 172.37083Q22.128138 171.48021 23.315638 171.13646L23.581263 172.26146Q22.643763 172.55833 22.221888 173.13646Q21.784388 173.69896 21.784388 174.55833Q21.784388 175.54271 22.268763 176.21458Q22.737513 176.87083 23.534388 177.15208Q24.331263 177.41771 25.190638 177.41771Q26.284388 177.41771 27.096888 177.10521Q27.909388 176.77708 28.315638 176.10521Q28.721888 175.43333 28.721888 174.63646Q28.721888 173.68333 28.175013 173.02708Q27.628138 172.35521 26.534388 172.12083Z" fill-rule="nonzero"/><path fill="#000000" d="M65.05 300.21564Q65.05 298.6844 65.3625 297.7625Q65.675 296.825 66.28438 296.325Q66.90938 295.825 67.84688 295.825Q68.53438 295.825 69.05 296.10626Q69.58125 296.3875 69.925 296.91876Q70.26875 297.4344 70.45625 298.1844Q70.64375 298.9344 70.64375 300.21564Q70.64375 301.73126 70.33125 302.65314Q70.03438 303.575 69.40938 304.09064Q68.8 304.59064 67.84688 304.59064Q66.6125 304.59064 65.89375 303.7Q65.05 302.6375 65.05 300.21564ZM66.12813 300.21564Q66.12813 302.325 66.62813 303.02814Q67.12813 303.73126 67.84688 303.73126Q68.58125 303.73126 69.06563 303.02814Q69.56563 302.325 69.56563 300.21564Q69.56563 298.09064 69.06563 297.40314Q68.58125 296.7 67.83125 296.7Q67.1125 296.7 66.675 297.3094Q66.12813 298.09064 66.12813 300.21564Z" fill-rule="nonzero"/><path fill="#000000" d="M58.05 252.49333L59.159374 252.39958Q59.284374 253.21208 59.721874 253.61833Q60.175 254.02458 60.815624 254.02458Q61.565624 254.02458 62.096874 253.44646Q62.628124 252.86833 62.628124 251.93083Q62.628124 251.02458 62.1125 250.50896Q61.6125 249.9777 60.784374 249.9777Q60.284374 249.9777 59.8625 250.21208Q59.45625 250.44646 59.221874 250.80583L58.2375 250.68083L59.065624 246.27458L63.346874 246.27458L63.346874 247.27458L59.909374 247.27458L59.45625 249.58708Q60.221874 249.0402 61.065624 249.0402Q62.190624 249.0402 62.95625 249.82146Q63.7375 250.6027 63.7375 251.83708Q63.7375 252.99333 63.065624 253.8527Q62.2375 254.88396 60.815624 254.88396Q59.64375 254.88396 58.89375 254.2277Q58.159374 253.57146 58.05 252.49333ZM65.05 250.50896Q65.05 248.9777 65.3625 248.05583Q65.675 247.11833 66.28438 246.61833Q66.90938 246.11833 67.84688 246.11833Q68.53438 246.11833 69.05 246.39958Q69.58125 246.68083 69.925 247.21208Q70.26875 247.7277 70.45625 248.4777Q70.64375 249.2277 70.64375 250.50896Q70.64375 252.02458 70.33125 252.94646Q70.03438 253.86833 69.40938 254.38396Q68.8 254.88396 67.84688 254.88396Q66.6125 254.88396 65.89375 253.99333Q65.05 252.93083 65.05 250.50896ZM66.12813 250.50896Q66.12813 252.61833 66.62813 253.32146Q67.12813 254.02458 67.84688 254.02458Q68.58125 254.02458 69.06563 253.32146Q69.56563 252.61833 69.56563 250.50896Q69.56563 248.38396 69.06563 247.69646Q68.58125 246.99333 67.83125 246.99333Q67.1125 246.99333 66.675 247.6027Q66.12813 248.38396 66.12813 250.50896Z" fill-rule="nonzero"/><path fill="#000000" d="M55.01875 205.03667L53.971874 205.03667L53.971874 198.31792Q53.58125 198.67729 52.95625 199.05229Q52.346874 199.41167 51.8625 199.58354L51.8625 198.56792Q52.7375 198.14604 53.39375 197.56792Q54.065624 196.97417 54.346874 196.41167L55.01875 196.41167L55.01875 205.03667ZM58.05 200.80229Q58.05 199.27104 58.3625 198.34917Q58.675 197.41167 59.284374 196.91167Q59.909374 196.41167 60.846874 196.41167Q61.534374 196.41167 62.05 196.69292Q62.58125 196.97417 62.925 197.50542Q63.26875 198.02104 63.45625 198.77104Q63.64375 199.52104 63.64375 200.80229Q63.64375 202.31792 63.33125 203.23979Q63.034374 204.16167 62.409374 204.67729Q61.8 205.17729 60.846874 205.17729Q59.6125 205.17729 58.89375 204.28667Q58.05 203.22417 58.05 200.80229ZM59.128124 200.80229Q59.128124 202.91167 59.628124 203.61479Q60.128124 204.31792 60.846874 204.31792Q61.58125 204.31792 62.065624 203.61479Q62.565624 202.91167 62.565624 200.80229Q62.565624 198.67729 62.065624 197.98979Q61.58125 197.28667 60.83125 197.28667Q60.1125 197.28667 59.675 197.89604Q59.128124 198.67729 59.128124 200.80229ZM65.05 200.80229Q65.05 199.27104 65.3625 198.34917Q65.675 197.41167 66.28438 196.91167Q66.90938 196.41167 67.84688 196.41167Q68.53438 196.41167 69.05 196.69292Q69.58125 196.97417 69.925 197.50542Q70.26875 198.02104 70.45625 198.77104Q70.64375 199.52104 70.64375 200.80229Q70.64375 202.31792 70.33125 203.23979Q70.03438 204.16167 69.40938 204.67729Q68.8 205.17729 67.84688 205.17729Q66.6125 205.17729 65.89375 204.28667Q65.05 203.22417 65.05 200.80229ZM66.12813 200.80229Q66.12813 202.91167 66.62813 203.61479Q67.12813 204.31792 67.84688 204.31792Q68.58125 204.31792 69.06563 203.61479Q69.56563 202.91167 69.56563 200.80229Q69.56563 198.67729 69.06563 197.98979Q68.58125 197.28667 67.83125 197.28667Q67.1125 197.28667 66.675 197.89604Q66.12813 198.67729 66.12813 200.80229Z" fill-rule="nonzero"/><path fill="#000000" d="M55.01875 155.33L53.971874 155.33L53.971874 148.61125Q53.58125 148.97063 52.95625 149.34563Q52.346874 149.705 51.8625 149.87688L51.8625 148.86125Q52.7375 148.43938 53.39375 147.86125Q54.065624 147.2675 54.346874 146.705L55.01875 146.705L55.01875 155.33ZM58.05 153.08L59.159374 152.98625Q59.284374 153.79875 59.721874 154.205Q60.175 154.61125 60.815624 154.61125Q61.565624 154.61125 62.096874 154.03313Q62.628124 153.455 62.628124 152.5175Q62.628124 151.61125 62.1125 151.09563Q61.6125 150.56438 60.784374 150.56438Q60.284374 150.56438 59.8625 150.79875Q59.45625 151.03313 59.221874 151.3925L58.2375 151.2675L59.065624 146.86125L63.346874 146.86125L63.346874 147.86125L59.909374 147.86125L59.45625 150.17375Q60.221874 149.62688 61.065624 149.62688Q62.190624 149.62688 62.95625 150.40813Q63.7375 151.18938 63.7375 152.42375Q63.7375 153.58 63.065624 154.43938Q62.2375 155.47063 60.815624 155.47063Q59.64375 155.47063 58.89375 154.81438Q58.159374 154.15813 58.05 153.08ZM65.05 151.09563Q65.05 149.56438 65.3625 148.6425Q65.675 147.705 66.28438 147.205Q66.90938 146.705 67.84688 146.705Q68.53438 146.705 69.05 146.98625Q69.58125 147.2675 69.925 147.79875Q70.26875 148.31438 70.45625 149.06438Q70.64375 149.81438 70.64375 151.09563Q70.64375 152.61125 70.33125 153.53313Q70.03438 154.455 69.40938 154.97063Q68.8 155.47063 67.84688 155.47063Q66.6125 155.47063 65.89375 154.58Q65.05 153.5175 65.05 151.09563ZM66.12813 151.09563Q66.12813 153.205 66.62813 153.90813Q67.12813 154.61125 67.84688 154.61125Q68.58125 154.61125 69.06563 153.90813Q69.56563 153.205 69.56563 151.09563Q69.56563 148.97063 69.06563 148.28313Q68.58125 147.58 67.83125 147.58Q67.1125 147.58 66.675 148.18938Q66.12813 148.97063 66.12813 151.09563Z" fill-rule="nonzero"/><path fill="#000000" d="M56.596874 104.60771L56.596874 105.62334L50.909374 105.62334Q50.909374 105.24834 51.034374 104.88896Q51.253124 104.31084 51.721874 103.74834Q52.20625 103.18584 53.1125 102.45146Q54.51875 101.29521 55.003124 100.62334Q55.503124 99.95146 55.503124 99.35771Q55.503124 98.73271 55.05 98.31084Q54.596874 97.87334 53.878124 97.87334Q53.1125 97.87334 52.659374 98.32646Q52.20625 98.77959 52.190624 99.59209L51.1125 99.48271Q51.221874 98.26396 51.940624 97.63896Q52.675 96.99834 53.909374 96.99834Q55.14375 96.99834 55.8625 97.68584Q56.58125 98.37334 56.58125 99.38896Q56.58125 99.90459 56.3625 100.40459Q56.159374 100.88896 55.659374 101.45146Q55.175 101.99834 54.05 102.95146Q53.096874 103.74834 52.815624 104.04521Q52.55 104.32646 52.378124 104.60771L56.596874 104.60771ZM58.05 101.38896Q58.05 99.85771 58.3625 98.93584Q58.675 97.99834 59.284374 97.49834Q59.909374 96.99834 60.846874 96.99834Q61.534374 96.99834 62.05 97.27959Q62.58125 97.56084 62.925 98.09209Q63.26875 98.60771 63.45625 99.35771Q63.64375 100.10771 63.64375 101.38896Q63.64375 102.90459 63.33125 103.82646Q63.034374 104.74834 62.409374 105.26396Q61.8 105.76396 60.846874 105.76396Q59.6125 105.76396 58.89375 104.87334Q58.05 103.81084 58.05 101.38896ZM59.128124 101.38896Q59.128124 103.49834 59.628124 104.20146Q60.128124 104.90459 60.846874 104.90459Q61.58125 104.90459 62.065624 104.20146Q62.565624 103.49834 62.565624 101.38896Q62.565624 99.26396 62.065624 98.57646Q61.58125 97.87334 60.83125 97.87334Q60.1125 97.87334 59.675 98.48271Q59.128124 99.26396 59.128124 101.38896ZM65.05 101.38896Q65.05 99.85771 65.3625 98.93584Q65.675 97.99834 66.28438 97.49834Q66.90938 96.99834 67.84688 96.99834Q68.53438 96.99834 69.05 97.27959Q69.58125 97.56084 69.925 98.09209Q70.26875 98.60771 70.45625 99.35771Q70.64375 100.10771 70.64375 101.38896Q70.64375 102.90459 70.33125 103.82646Q70.03438 104.74834 69.40938 105.26396Q68.8 105.76396 67.84688 105.76396Q66.6125 105.76396 65.89375 104.87334Q65.05 103.81084 65.05 101.38896ZM66.12813 101.38896Q66.12813 103.49834 66.62813 104.20146Q67.12813 104.90459 67.84688 104.90459Q68.58125 104.90459 69.06563 104.20146Q69.56563 103.49834 69.56563 101.38896Q69.56563 99.26396 69.06563 98.57646Q68.58125 97.87334 67.83125 97.87334Q67.1125 97.87334 66.675 98.48271Q66.12813 99.26396 66.12813 101.38896Z" fill-rule="nonzero"/><path fill="#000000" d="M56.596874 54.901043L56.596874 55.916668L50.909374 55.916668Q50.909374 55.541668 51.034374 55.182293Q51.253124 54.604168 51.721874 54.041668Q52.20625 53.479168 53.1125 52.744793Q54.51875 51.588543 55.003124 50.916668Q55.503124 50.244793 55.503124 49.651043Q55.503124 49.026043 55.05 48.604168Q54.596874 48.166668 53.878124 48.166668Q53.1125 48.166668 52.659374 48.619793Q52.20625 49.072918 52.190624 49.885418L51.1125 49.776043Q51.221874 48.557293 51.940624 47.932293Q52.675 47.291668 53.909374 47.291668Q55.14375 47.291668 55.8625 47.979168Q56.58125 48.666668 56.58125 49.682293Q56.58125 50.197918 56.3625 50.697918Q56.159374 51.182293 55.659374 51.744793Q55.175 52.291668 54.05 53.244793Q53.096874 54.041668 52.815624 54.338543Q52.55 54.619793 52.378124 54.901043L56.596874 54.901043ZM58.05 53.666668L59.159374 53.572918Q59.284374 54.385418 59.721874 54.791668Q60.175 55.197918 60.815624 55.197918Q61.565624 55.197918 62.096874 54.619793Q62.628124 54.041668 62.628124 53.104168Q62.628124 52.197918 62.1125 51.682293Q61.6125 51.151043 60.784374 51.151043Q60.284374 51.151043 59.8625 51.385418Q59.45625 51.619793 59.221874 51.979168L58.2375 51.854168L59.065624 47.447918L63.346874 47.447918L63.346874 48.447918L59.909374 48.447918L59.45625 50.760418Q60.221874 50.213543 61.065624 50.213543Q62.190624 50.213543 62.95625 50.994793Q63.7375 51.776043 63.7375 53.010418Q63.7375 54.166668 63.065624 55.026043Q62.2375 56.057293 60.815624 56.057293Q59.64375 56.057293 58.89375 55.401043Q58.159374 54.744793 58.05 53.666668ZM65.05 51.682293Q65.05 50.151043 65.3625 49.229168Q65.675 48.291668 66.28438 47.791668Q66.90938 47.291668 67.84688 47.291668Q68.53438 47.291668 69.05 47.572918Q69.58125 47.854168 69.925 48.385418Q70.26875 48.901043 70.45625 49.651043Q70.64375 50.401043 70.64375 51.682293Q70.64375 53.197918 70.33125 54.119793Q70.03438 55.041668 69.40938 55.557293Q68.8 56.057293 67.84688 56.057293Q66.6125 56.057293 65.89375 55.166668Q65.05 54.104168 65.05 51.682293ZM66.12813 51.682293Q66.12813 53.791668 66.62813 54.494793Q67.12813 55.197918 67.84688 55.197918Q68.58125 55.197918 69.06563 54.494793Q69.56563 53.791668 69.56563 51.682293Q69.56563 49.557293 69.06563 48.869793Q68.58125 48.166668 67.83125 48.166668Q67.1125 48.166668 66.675 48.776043Q66.12813 49.557293 66.12813 51.682293Z" fill-rule="nonzero"/><path fill="#000000" d="M108.72869 316.4344L108.72869 317.45L103.04119 317.45Q103.04119 317.075 103.16619 316.71564Q103.38494 316.1375 103.85369 315.575Q104.338066 315.0125 105.244316 314.27814Q106.650566 313.1219 107.13494 312.45Q107.63494 311.77814 107.63494 311.1844Q107.63494 310.5594 107.181816 310.1375Q106.72869 309.7 106.00994 309.7Q105.244316 309.7 104.79119 310.15314Q104.338066 310.60626 104.32244 311.41876L103.244316 311.3094Q103.35369 310.09064 104.07244 309.46564Q104.806816 308.825 106.04119 308.825Q107.275566 308.825 107.994316 309.5125Q108.713066 310.2 108.713066 311.21564Q108.713066 311.73126 108.494316 312.23126Q108.29119 312.71564 107.79119 313.27814Q107.306816 313.825 106.181816 314.77814Q105.22869 315.575 104.94744 315.8719Q104.681816 316.15314 104.50994 316.4344L108.72869 316.4344Z" fill-rule="nonzero"/><path fill="#000000" d="M148.44545 315.1844L149.50795 315.04376Q149.67982 315.9344 150.11732 316.34064Q150.55482 316.73126 151.17982 316.73126Q151.92982 316.73126 152.44545 316.21564Q152.96107 315.7 152.96107 314.9344Q152.96107 314.21564 152.4767 313.7469Q152.00795 313.2625 151.27357 313.2625Q150.9767 313.2625 150.52357 313.3875L150.64857 312.45Q150.75795 312.46564 150.82045 312.46564Q151.49232 312.46564 152.02357 312.1219Q152.57045 311.7625 152.57045 311.02814Q152.57045 310.45 152.17982 310.075Q151.7892 309.6844 151.1642 309.6844Q150.55482 309.6844 150.13295 310.075Q149.7267 310.46564 149.61732 311.23126L148.55482 311.04376Q148.74232 309.9969 149.42982 309.41876Q150.11732 308.825 151.13295 308.825Q151.83607 308.825 152.42982 309.1375Q153.02357 309.4344 153.33607 309.95Q153.64857 310.46564 153.64857 311.0594Q153.64857 311.60626 153.3517 312.075Q153.05482 312.52814 152.4767 312.79376Q153.2267 312.96564 153.64857 313.52814Q154.07045 314.075 154.07045 314.91876Q154.07045 316.04376 153.24232 316.825Q152.42982 317.60626 151.17982 317.60626Q150.05482 317.60626 149.30482 316.9344Q148.55482 316.2469 148.44545 315.1844Z" fill-rule="nonzero"/><path fill="#000000" d="M197.08409 317.45L197.08409 315.3875L193.36534 315.3875L193.36534 314.41876L197.28722 308.85626L198.14659 308.85626L198.14659 314.41876L199.30284 314.41876L199.30284 315.3875L198.14659 315.3875L198.14659 317.45L197.08409 317.45ZM197.08409 314.41876L197.08409 310.5594L194.39659 314.41876L197.08409 314.41876Z" fill-rule="nonzero"/><path fill="#000000" d="M238.97273 315.2L240.0821 315.10626Q240.2071 315.91876 240.6446 316.325Q241.09773 316.73126 241.73836 316.73126Q242.48836 316.73126 243.0196 316.15314Q243.55086 315.575 243.55086 314.6375Q243.55086 313.73126 243.03523 313.21564Q242.53523 312.6844 241.7071 312.6844Q241.2071 312.6844 240.78523 312.91876Q240.37898 313.15314 240.1446 313.5125L239.16023 313.3875L239.98836 308.98126L244.2696 308.98126L244.2696 309.98126L240.8321 309.98126L240.37898 312.29376Q241.1446 311.7469 241.98836 311.7469Q243.11336 311.7469 243.87898 312.52814Q244.66023 313.3094 244.66023 314.54376Q244.66023 315.7 243.98836 316.5594Q243.16023 317.59064 241.73836 317.59064Q240.56648 317.59064 239.81648 316.9344Q239.0821 316.27814 238.97273 315.2Z" fill-rule="nonzero"/><path fill="#000000" d="M289.7051 310.96564L288.65823 311.04376Q288.5176 310.41876 288.2676 310.1375Q287.8301 309.6844 287.2051 309.6844Q286.7051 309.6844 286.31448 309.96564Q285.8301 310.34064 285.53323 311.04376Q285.25198 311.73126 285.23636 313.0125Q285.61136 312.4344 286.15823 312.15314Q286.72073 311.8719 287.3301 311.8719Q288.37698 311.8719 289.11136 312.65314Q289.86136 313.4344 289.86136 314.65314Q289.86136 315.46564 289.50198 316.16876Q289.15823 316.85626 288.54886 317.23126Q287.93948 317.59064 287.17386 317.59064Q285.84573 317.59064 285.0176 316.6219Q284.18948 315.65314 284.18948 313.4344Q284.18948 310.9344 285.11136 309.8094Q285.90823 308.825 287.2676 308.825Q288.28323 308.825 288.92386 309.40314Q289.5801 309.96564 289.7051 310.96564ZM285.40823 314.66876Q285.40823 315.21564 285.62698 315.71564Q285.86136 316.2 286.2676 316.46564Q286.68948 316.73126 287.15823 316.73126Q287.81448 316.73126 288.29886 316.2Q288.78323 315.65314 288.78323 314.73126Q288.78323 313.84064 288.29886 313.325Q287.8301 312.8094 287.11136 312.8094Q286.3926 312.8094 285.8926 313.325Q285.40823 313.84064 285.40823 314.66876Z" fill-rule="nonzero"/><path fill="#000000" d="M329.5625 309.98126L329.5625 308.96564L335.125 308.96564L335.125 309.79376Q334.3125 310.66876 333.5 312.1219Q332.70312 313.5594 332.26562 315.09064Q331.9375 316.16876 331.85938 317.45L330.76562 317.45Q330.78125 316.4344 331.15625 314.9969Q331.54688 313.5594 332.25 312.23126Q332.96875 310.90314 333.78125 309.98126L329.5625 309.98126Z" fill-rule="nonzero"/><path fill="#000000" d="M376.38864 312.79376Q375.7324 312.54376 375.40427 312.10626Q375.09177 311.65314 375.09177 311.04376Q375.09177 310.10626 375.76364 309.46564Q376.45114 308.825 377.56052 308.825Q378.68552 308.825 379.37302 309.48126Q380.06052 310.1375 380.06052 311.075Q380.06052 311.66876 379.74802 312.10626Q379.43552 312.54376 378.7949 312.79376Q379.59177 313.04376 379.99802 313.6219Q380.40427 314.2 380.40427 314.9969Q380.40427 316.09064 379.62302 316.84064Q378.8574 317.59064 377.57614 317.59064Q376.31052 317.59064 375.52927 316.84064Q374.74802 316.09064 374.74802 314.96564Q374.74802 314.1219 375.1699 313.5594Q375.6074 312.9969 376.38864 312.79376ZM376.1699 310.9969Q376.1699 311.60626 376.56052 311.9969Q376.96677 312.3875 377.59177 312.3875Q378.20114 312.3875 378.59177 312.0125Q378.9824 311.6219 378.9824 311.0594Q378.9824 310.48126 378.57614 310.09064Q378.1699 309.6844 377.57614 309.6844Q376.96677 309.6844 376.56052 310.075Q376.1699 310.46564 376.1699 310.9969ZM375.84177 314.96564Q375.84177 315.41876 376.0449 315.84064Q376.26364 316.2625 376.68552 316.4969Q377.1074 316.73126 377.59177 316.73126Q378.34177 316.73126 378.82614 316.2469Q379.32614 315.7625 379.32614 315.0125Q379.32614 314.2469 378.82614 313.7469Q378.32614 313.2469 377.56052 313.2469Q376.81052 313.2469 376.32614 313.7469Q375.84177 314.23126 375.84177 314.96564Z" fill-rule="nonzero"/><path fill="#000000" d="M420.18353 315.46564L421.19916 315.3719Q421.32416 316.09064 421.68353 316.41876Q422.05853 316.73126 422.62103 316.73126Q423.1054 316.73126 423.46478 316.5125Q423.83978 316.27814 424.07416 315.91876Q424.30853 315.54376 424.46478 314.91876Q424.62103 314.27814 424.62103 313.6219Q424.62103 313.54376 424.62103 313.40314Q424.30853 313.90314 423.76166 314.23126Q423.21478 314.54376 422.57416 314.54376Q421.49603 314.54376 420.76166 313.77814Q420.02728 312.9969 420.02728 311.73126Q420.02728 310.41876 420.7929 309.6219Q421.57416 308.825 422.7304 308.825Q423.55853 308.825 424.24603 309.27814Q424.94916 309.73126 425.30853 310.575Q425.6679 311.40314 425.6679 312.98126Q425.6679 314.6219 425.30853 315.60626Q424.96478 316.575 424.24603 317.09064Q423.5429 317.59064 422.6054 317.59064Q421.58978 317.59064 420.94916 317.04376Q420.30853 316.48126 420.18353 315.46564ZM424.49603 311.66876Q424.49603 310.7625 424.01166 310.23126Q423.5429 309.7 422.8554 309.7Q422.15228 309.7 421.62103 310.27814Q421.1054 310.84064 421.1054 311.7625Q421.1054 312.575 421.6054 313.09064Q422.1054 313.60626 422.82416 313.60626Q423.55853 313.60626 424.02728 313.09064Q424.49603 312.575 424.49603 311.66876Z" fill-rule="nonzero"/><path fill="#000000" d="M465.75967 317.45L464.7128 317.45L464.7128 310.73126Q464.32217 311.09064 463.69717 311.46564Q463.0878 311.825 462.60342 311.9969L462.60342 310.98126Q463.47842 310.5594 464.13467 309.98126Q464.80655 309.3875 465.0878 308.825L465.75967 308.825L465.75967 317.45ZM468.79092 313.21564Q468.79092 311.6844 469.10342 310.7625Q469.41592 309.825 470.0253 309.325Q470.6503 308.825 471.5878 308.825Q472.2753 308.825 472.79092 309.10626Q473.32217 309.3875 473.66592 309.91876Q474.00967 310.4344 474.19717 311.1844Q474.38467 311.9344 474.38467 313.21564Q474.38467 314.73126 474.07217 315.65314Q473.7753 316.575 473.1503 317.09064Q472.54092 317.59064 471.5878 317.59064Q470.35342 317.59064 469.63467 316.7Q468.79092 315.6375 468.79092 313.21564ZM469.86905 313.21564Q469.86905 315.325 470.36905 316.02814Q470.86905 316.73126 471.5878 316.73126Q472.32217 316.73126 472.80655 316.02814Q473.30655 315.325 473.30655 313.21564Q473.30655 311.09064 472.80655 310.40314Q472.32217 309.7 471.57217 309.7Q470.85342 309.7 470.41592 310.3094Q469.86905 311.09064 469.86905 313.21564Z" fill-rule="nonzero"/><path fill="#000000" d="M511.0233 317.45L509.9764 317.45L509.9764 310.73126Q509.5858 311.09064 508.9608 311.46564Q508.3514 311.825 507.86703 311.9969L507.86703 310.98126Q508.74203 310.5594 509.3983 309.98126Q510.07016 309.3875 510.3514 308.825L511.0233 308.825L511.0233 317.45ZM518.0233 317.45L516.97644 317.45L516.97644 310.73126Q516.5858 311.09064 515.9608 311.46564Q515.35144 311.825 514.86707 311.9969L514.86707 310.98126Q515.74207 310.5594 516.3983 309.98126Q517.0702 309.3875 517.35144 308.825L518.0233 308.825L518.0233 317.45Z" fill-rule="nonzero"/><path fill="#000000" d="M556.2869 317.45L555.24005 317.45L555.24005 310.73126Q554.8494 311.09064 554.2244 311.46564Q553.61505 311.825 553.1307 311.9969L553.1307 310.98126Q554.0057 310.5594 554.6619 309.98126Q555.3338 309.3875 555.61505 308.825L556.2869 308.825L556.2869 317.45ZM564.86505 316.4344L564.86505 317.45L559.17755 317.45Q559.17755 317.075 559.30255 316.71564Q559.5213 316.1375 559.99005 315.575Q560.4744 315.0125 561.3807 314.27814Q562.7869 313.1219 563.2713 312.45Q563.7713 311.77814 563.7713 311.1844Q563.7713 310.5594 563.3182 310.1375Q562.86505 309.7 562.1463 309.7Q561.3807 309.7 560.92755 310.15314Q560.4744 310.60626 560.4588 311.41876L559.3807 311.3094Q559.49005 310.09064 560.2088 309.46564Q560.9432 308.825 562.17755 308.825Q563.4119 308.825 564.1307 309.5125Q564.8494 310.2 564.8494 311.21564Q564.8494 311.73126 564.6307 312.23126Q564.42755 312.71564 563.92755 313.27814Q563.4432 313.825 562.3182 314.77814Q561.36505 315.575 561.0838 315.8719Q560.8182 316.15314 560.6463 316.4344L564.86505 316.4344Z" fill-rule="nonzero"/><path stroke="#cc0000" stroke-width="4.0" stroke-linecap="butt" stroke-dasharray="13.0,9.0" d="M101.5 25.55L136.5 25.55" fill-rule="nonzero"/><path fill="#1a1a1a" d="M151.5625 26.534374L152.6875 26.83125Q152.32812 28.221874 151.40625 28.95625Q150.48438 29.690624 149.14062 29.690624Q147.75 29.690624 146.875 29.128124Q146.0 28.565624 145.54688 27.503124Q145.09375 26.425 145.09375 25.190624Q145.09375 23.846874 145.60938 22.846874Q146.125 21.846874 147.0625 21.33125Q148.01562 20.815624 149.15625 20.815624Q150.4375 20.815624 151.3125 21.471874Q152.20312 22.128124 152.54688 23.315624L151.42188 23.58125Q151.125 22.64375 150.54688 22.221874Q149.98438 21.784374 149.125 21.784374Q148.14062 21.784374 147.46875 22.26875Q146.8125 22.7375 146.53125 23.534374Q146.26562 24.33125 146.26562 25.190624Q146.26562 26.284374 146.57812 27.096874Q146.90625 27.909374 147.57812 28.315624Q148.25 28.721874 149.04688 28.721874Q150.0 28.721874 150.65625 28.175Q151.32812 27.628124 151.5625 26.534374ZM153.48438 29.55L156.78125 20.95625L158.0 20.95625L161.51562 29.55L160.23438 29.55L159.21875 26.940624L155.64062 26.940624L154.6875 29.55L153.48438 29.55ZM155.96875 26.01875L158.875 26.01875L157.98438 23.64375Q157.5625 22.565624 157.375 21.8625Q157.20312 22.690624 156.90625 23.503124L155.96875 26.01875ZM167.5625 26.534374L168.6875 26.83125Q168.32812 28.221874 167.40625 28.95625Q166.48438 29.690624 165.14062 29.690624Q163.75 29.690624 162.875 29.128124Q162.0 28.565624 161.54688 27.503124Q161.09375 26.425 161.09375 25.190624Q161.09375 23.846874 161.60938 22.846874Q162.125 21.846874 163.0625 21.33125Q164.01562 20.815624 165.15625 20.815624Q166.4375 20.815624 167.3125 21.471874Q168.20312 22.128124 168.54688 23.315624L167.42188 23.58125Q167.125 22.64375 166.54688 22.221874Q165.98438 21.784374 165.125 21.784374Q164.14062 21.784374 163.46875 22.26875Q162.8125 22.7375 162.53125 23.534374Q162.26562 24.33125 162.26562 25.190624Q162.26562 26.284374 162.57812 27.096874Q162.90625 27.909374 163.57812 28.315624Q164.25 28.721874 165.04688 28.721874Q166.0 28.721874 166.65625 28.175Q167.32812 27.628124 167.5625 26.534374ZM179.0625 20.95625L180.20312 20.95625L180.20312 25.925Q180.20312 27.221874 179.90625 27.9875Q179.60938 28.7375 178.84375 29.221874Q178.07812 29.690624 176.84375 29.690624Q175.64062 29.690624 174.85938 29.284374Q174.09375 28.8625 173.76562 28.08125Q173.4375 27.284374 173.4375 25.925L173.4375 20.95625L174.57812 20.95625L174.57812 25.909374Q174.57812 27.034374 174.78125 27.565624Q175.0 28.096874 175.5 28.39375Q176.01562 28.675 176.75 28.675Q178.0 28.675 178.53125 28.1125Q179.0625 27.534374 179.0625 25.909374L179.0625 20.95625ZM182.29688 29.55L182.29688 23.33125L183.23438 23.33125L183.23438 24.20625Q183.92188 23.190624 185.21875 23.190624Q185.78125 23.190624 186.25 23.39375Q186.73438 23.596874 186.96875 23.925Q187.20312 24.253124 187.29688 24.690624Q187.34375 24.9875 187.34375 25.721874L187.34375 29.55L186.29688 29.55L186.29688 25.76875Q186.29688 25.1125 186.17188 24.8Q186.04688 24.4875 185.73438 24.3Q185.42188 24.096874 185.0 24.096874Q184.32812 24.096874 183.82812 24.534374Q183.34375 24.95625 183.34375 26.14375L183.34375 29.55L182.29688 29.55ZM189.29688 29.55L189.29688 23.33125L190.23438 23.33125L190.23438 24.20625Q190.53125 23.7375 191.01562 23.471874Q191.5 23.190624 192.125 23.190624Q192.8125 23.190624 193.25 23.471874Q193.70312 23.753124 193.875 24.26875Q194.625 23.190624 195.79688 23.190624Q196.73438 23.190624 197.21875 23.70625Q197.71875 24.20625 197.71875 25.284374L197.71875 29.55L196.67188 29.55L196.67188 25.628124Q196.67188 25.003124 196.5625 24.721874Q196.46875 24.440624 196.20312 24.26875Q195.9375 24.096874 195.5625 24.096874Q194.90625 24.096874 194.46875 24.534374Q194.04688 24.971874 194.04688 25.940624L194.04688 29.55L192.98438 29.55L192.98438 25.503124Q192.98438 24.8 192.71875 24.45625Q192.46875 24.096874 191.89062 24.096874Q191.4375 24.096874 191.0625 24.33125Q190.6875 24.565624 190.51562 25.01875Q190.34375 25.471874 190.34375 26.315624L190.34375 29.55L189.29688 29.55ZM204.35938 28.784374Q203.76562 29.284374 203.21875 29.4875Q202.6875 29.690624 202.0625 29.690624Q201.03125 29.690624 200.48438 29.190624Q199.9375 28.690624 199.9375 27.909374Q199.9375 27.45625 200.14062 27.08125Q200.34375 26.690624 200.6875 26.471874Q201.03125 26.2375 201.45312 26.128124Q201.75 26.034374 202.39062 25.95625Q203.65625 25.815624 204.26562 25.596874Q204.26562 25.378124 204.26562 25.33125Q204.26562 24.675 203.96875 24.409374Q203.5625 24.065624 202.76562 24.065624Q202.03125 24.065624 201.67188 24.33125Q201.3125 24.58125 201.14062 25.2375L200.10938 25.096874Q200.25 24.440624 200.57812 24.034374Q200.90625 23.628124 201.51562 23.409374Q202.125 23.190624 202.92188 23.190624Q203.71875 23.190624 204.21875 23.378124Q204.71875 23.565624 204.95312 23.846874Q205.1875 24.128124 205.28125 24.565624Q205.32812 24.83125 205.32812 25.534374L205.32812 26.940624Q205.32812 28.409374 205.39062 28.8Q205.46875 29.190624 205.67188 29.55L204.5625 29.55Q204.40625 29.221874 204.35938 28.784374ZM204.26562 26.425Q203.6875 26.659374 202.54688 26.83125Q201.89062 26.925 201.625 27.05Q201.35938 27.159374 201.20312 27.378124Q201.0625 27.596874 201.0625 27.878124Q201.0625 28.3 201.375 28.58125Q201.70312 28.8625 202.3125 28.8625Q202.92188 28.8625 203.39062 28.596874Q203.875 28.33125 204.09375 27.8625Q204.26562 27.503124 204.26562 26.815624L204.26562 26.425ZM207.29688 29.55L207.29688 23.33125L208.23438 23.33125L208.23438 24.20625Q208.53125 23.7375 209.01562 23.471874Q209.5 23.190624 210.125 23.190624Q210.8125 23.190624 211.25 23.471874Q211.70312 23.753124 211.875 24.26875Q212.625 23.190624 213.79688 23.190624Q214.73438 23.190624 215.21875 23.70625Q215.71875 24.20625 215.71875 25.284374L215.71875 29.55L214.67188 29.55L214.67188 25.628124Q214.67188 25.003124 214.5625 24.721874Q214.46875 24.440624 214.20312 24.26875Q213.9375 24.096874 213.5625 24.096874Q212.90625 24.096874 212.46875 24.534374Q212.04688 24.971874 212.04688 25.940624L212.04688 29.55L210.98438 29.55L210.98438 25.503124Q210.98438 24.8 210.71875 24.45625Q210.46875 24.096874 209.89062 24.096874Q209.4375 24.096874 209.0625 24.33125Q208.6875 24.565624 208.51562 25.01875Q208.34375 25.471874 208.34375 26.315624L208.34375 29.55L207.29688 29.55ZM222.35938 28.784374Q221.76562 29.284374 221.21875 29.4875Q220.6875 29.690624 220.0625 29.690624Q219.03125 29.690624 218.48438 29.190624Q217.9375 28.690624 217.9375 27.909374Q217.9375 27.45625 218.14062 27.08125Q218.34375 26.690624 218.6875 26.471874Q219.03125 26.2375 219.45312 26.128124Q219.75 26.034374 220.39062 25.95625Q221.65625 25.815624 222.26562 25.596874Q222.26562 25.378124 222.26562 25.33125Q222.26562 24.675 221.96875 24.409374Q221.5625 24.065624 220.76562 24.065624Q220.03125 24.065624 219.67188 24.33125Q219.3125 24.58125 219.14062 25.2375L218.10938 25.096874Q218.25 24.440624 218.57812 24.034374Q218.90625 23.628124 219.51562 23.409374Q220.125 23.190624 220.92188 23.190624Q221.71875 23.190624 222.21875 23.378124Q222.71875 23.565624 222.95312 23.846874Q223.1875 24.128124 223.28125 24.565624Q223.32812 24.83125 223.32812 25.534374L223.32812 26.940624Q223.32812 28.409374 223.39062 28.8Q223.46875 29.190624 223.67188 29.55L222.5625 29.55Q222.40625 29.221874 222.35938 28.784374ZM222.26562 26.425Q221.6875 26.659374 220.54688 26.83125Q219.89062 26.925 219.625 27.05Q219.35938 27.159374 219.20312 27.378124Q219.0625 27.596874 219.0625 27.878124Q219.0625 28.3 219.375 28.58125Q219.70312 28.8625 220.3125 28.8625Q220.92188 28.8625 221.39062 28.596874Q221.875 28.33125 222.09375 27.8625Q222.26562 27.503124 222.26562 26.815624L222.26562 26.425ZM225.09375 30.065624L226.125 30.221874Q226.1875 30.690624 226.48438 30.909374Q226.875 31.20625 227.54688 31.20625Q228.28125 31.20625 228.67188 30.909374Q229.07812 30.6125 229.21875 30.096874Q229.3125 29.76875 229.29688 28.7375Q228.60938 29.55 227.57812 29.55Q226.29688 29.55 225.59375 28.628124Q224.89062 27.690624 224.89062 26.409374Q224.89062 25.51875 225.20312 24.76875Q225.53125 24.003124 226.14062 23.596874Q226.75 23.190624 227.57812 23.190624Q228.6875 23.190624 229.40625 24.08125L229.40625 23.33125L230.375 23.33125L230.375 28.70625Q230.375 30.159374 230.07812 30.76875Q229.78125 31.378124 229.14062 31.721874Q228.5 32.08125 227.5625 32.08125Q226.45312 32.08125 225.76562 31.58125Q225.07812 31.08125 225.09375 30.065624ZM225.96875 26.33125Q225.96875 27.55 226.45312 28.1125Q226.9375 28.675 227.67188 28.675Q228.40625 28.675 228.89062 28.1125Q229.39062 27.55 229.39062 26.3625Q229.39062 25.221874 228.875 24.64375Q228.375 24.065624 227.65625 24.065624Q226.95312 24.065624 226.45312 24.64375Q225.96875 25.20625 225.96875 26.33125ZM236.54688 27.55L237.64062 27.675Q237.39062 28.628124 236.6875 29.159374Q235.98438 29.690624 234.90625 29.690624Q233.54688 29.690624 232.73438 28.846874Q231.9375 28.003124 231.9375 26.4875Q231.9375 24.925 232.75 24.065624Q233.5625 23.190624 234.84375 23.190624Q236.09375 23.190624 236.875 24.034374Q237.67188 24.878124 237.67188 26.425Q237.67188 26.51875 237.67188 26.70625L233.03125 26.70625Q233.09375 27.7375 233.60938 28.284374Q234.125 28.815624 234.90625 28.815624Q235.48438 28.815624 235.89062 28.51875Q236.3125 28.20625 236.54688 27.55ZM233.09375 25.846874L236.5625 25.846874Q236.5 25.05 236.17188 24.659374Q235.65625 24.05 234.85938 24.05Q234.125 24.05 233.625 24.534374Q233.14062 25.01875 233.09375 25.846874ZM243.32812 29.55L243.32812 28.76875Q242.73438 29.690624 241.59375 29.690624Q240.84375 29.690624 240.21875 29.284374Q239.59375 28.8625 239.25 28.128124Q238.90625 27.39375 238.90625 26.440624Q238.90625 25.51875 239.21875 24.753124Q239.53125 23.9875 240.15625 23.596874Q240.78125 23.190624 241.54688 23.190624Q242.10938 23.190624 242.54688 23.425Q242.98438 23.659374 243.26562 24.034374L243.26562 20.95625L244.3125 20.95625L244.3125 29.55L243.32812 29.55ZM240.0 26.440624Q240.0 27.64375 240.5 28.2375Q241.0 28.815624 241.6875 28.815624Q242.375 28.815624 242.85938 28.253124Q243.34375 27.690624 243.34375 26.534374Q243.34375 25.253124 242.84375 24.659374Q242.35938 24.065624 241.64062 24.065624Q240.9375 24.065624 240.46875 24.64375Q240.0 25.20625 240.0 26.440624ZM249.39062 29.55L249.39062 20.95625L251.10938 20.95625L253.14062 27.034374Q253.42188 27.89375 253.54688 28.315624Q253.6875 27.846874 254.0 26.940624L256.0625 20.95625L257.59375 20.95625L257.59375 29.55L256.5 29.55L256.5 22.3625L254.0 29.55L252.96875 29.55L250.48438 22.2375L250.48438 29.55L249.39062 29.55ZM262.35938 28.784374Q261.76562 29.284374 261.21875 29.4875Q260.6875 29.690624 260.0625 29.690624Q259.03125 29.690624 258.48438 29.190624Q257.9375 28.690624 257.9375 27.909374Q257.9375 27.45625 258.14062 27.08125Q258.34375 26.690624 258.6875 26.471874Q259.03125 26.2375 259.45312 26.128124Q259.75 26.034374 260.39062 25.95625Q261.65625 25.815624 262.26562 25.596874Q262.26562 25.378124 262.26562 25.33125Q262.26562 24.675 261.96875 24.409374Q261.5625 24.065624 260.76562 24.065624Q260.03125 24.065624 259.67188 24.33125Q259.3125 24.58125 259.14062 25.2375L258.10938 25.096874Q258.25 24.440624 258.57812 24.034374Q258.90625 23.628124 259.51562 23.409374Q260.125 23.190624 260.92188 23.190624Q261.71875 23.190624 262.21875 23.378124Q262.71875 23.565624 262.95312 23.846874Q263.1875 24.128124 263.28125 24.565624Q263.32812 24.83125 263.32812 25.534374L263.32812 26.940624Q263.32812 28.409374 263.39062 28.8Q263.46875 29.190624 263.67188 29.55L262.5625 29.55Q262.40625 29.221874 262.35938 28.784374ZM262.26562 26.425Q261.6875 26.659374 260.54688 26.83125Q259.89062 26.925 259.625 27.05Q259.35938 27.159374 259.20312 27.378124Q259.0625 27.596874 259.0625 27.878124Q259.0625 28.3 259.375 28.58125Q259.70312 28.8625 260.3125 28.8625Q260.92188 28.8625 261.39062 28.596874Q261.875 28.33125 262.09375 27.8625Q262.26562 27.503124 262.26562 26.815624L262.26562 26.425ZM265.28125 29.55L265.28125 23.33125L266.23438 23.33125L266.23438 24.26875Q266.59375 23.6125 266.89062 23.409374Q267.20312 23.190624 267.57812 23.190624Q268.10938 23.190624 268.65625 23.51875L268.29688 24.503124Q267.90625 24.26875 267.53125 24.26875Q267.17188 24.26875 266.89062 24.4875Q266.625 24.690624 266.51562 25.065624Q266.32812 25.628124 266.32812 26.284374L266.32812 29.55L265.28125 29.55ZM269.29688 29.55L269.29688 20.95625L270.35938 20.95625L270.35938 25.8625L272.84375 23.33125L274.21875 23.33125L271.82812 25.628124L274.45312 29.55L273.15625 29.55L271.09375 26.3625L270.35938 27.08125L270.35938 29.55L269.29688 29.55ZM279.54688 27.55L280.64062 27.675Q280.39062 28.628124 279.6875 29.159374Q278.98438 29.690624 277.90625 29.690624Q276.54688 29.690624 275.73438 28.846874Q274.9375 28.003124 274.9375 26.4875Q274.9375 24.925 275.75 24.065624Q276.5625 23.190624 277.84375 23.190624Q279.09375 23.190624 279.875 24.034374Q280.67188 24.878124 280.67188 26.425Q280.67188 26.51875 280.67188 26.70625L276.03125 26.70625Q276.09375 27.7375 276.60938 28.284374Q277.125 28.815624 277.90625 28.815624Q278.48438 28.815624 278.89062 28.51875Q279.3125 28.20625 279.54688 27.55ZM276.09375 25.846874L279.5625 25.846874Q279.5 25.05 279.17188 24.659374Q278.65625 24.05 277.85938 24.05Q277.125 24.05 276.625 24.534374Q276.14062 25.01875 276.09375 25.846874ZM284.59375 28.6125L284.75 29.534374Q284.29688 29.628124 283.95312 29.628124Q283.375 29.628124 283.0625 29.45625Q282.75 29.26875 282.60938 28.971874Q282.48438 28.675 282.48438 27.721874L282.48438 24.14375L281.71875 24.14375L281.71875 23.33125L282.48438 23.33125L282.48438 21.784374L283.53125 21.159374L283.53125 23.33125L284.59375 23.33125L284.59375 24.14375L283.53125 24.14375L283.53125 27.784374Q283.53125 28.2375 283.57812 28.3625Q283.64062 28.4875 283.76562 28.565624Q283.89062 28.64375 284.125 28.64375Q284.3125 28.64375 284.59375 28.6125ZM285.29688 31.940624L285.29688 23.33125L286.25 23.33125L286.25 24.128124Q286.59375 23.659374 287.01562 23.425Q287.45312 23.190624 288.0625 23.190624Q288.85938 23.190624 289.46875 23.596874Q290.07812 24.003124 290.375 24.753124Q290.6875 25.503124 290.6875 26.39375Q290.6875 27.346874 290.34375 28.1125Q290.01562 28.878124 289.35938 29.284374Q288.70312 29.690624 287.98438 29.690624Q287.45312 29.690624 287.03125 29.471874Q286.60938 29.2375 286.34375 28.909374L286.34375 31.940624L285.29688 31.940624ZM286.25 26.471874Q286.25 27.675 286.73438 28.253124Q287.21875 28.815624 287.90625 28.815624Q288.60938 28.815624 289.10938 28.221874Q289.60938 27.628124 289.60938 26.378124Q289.60938 25.190624 289.125 24.6125Q288.64062 24.01875 287.95312 24.01875Q287.28125 24.01875 286.76562 24.64375Q286.25 25.26875 286.25 26.471874ZM292.26562 29.55L292.26562 20.95625L293.32812 20.95625L293.32812 29.55L292.26562 29.55ZM299.35938 28.784374Q298.76562 29.284374 298.21875 29.4875Q297.6875 29.690624 297.0625 29.690624Q296.03125 29.690624 295.48438 29.190624Q294.9375 28.690624 294.9375 27.909374Q294.9375 27.45625 295.14062 27.08125Q295.34375 26.690624 295.6875 26.471874Q296.03125 26.2375 296.45312 26.128124Q296.75 26.034374 297.39062 25.95625Q298.65625 25.815624 299.26562 25.596874Q299.26562 25.378124 299.26562 25.33125Q299.26562 24.675 298.96875 24.409374Q298.5625 24.065624 297.76562 24.065624Q297.03125 24.065624 296.67188 24.33125Q296.3125 24.58125 296.14062 25.2375L295.10938 25.096874Q295.25 24.440624 295.57812 24.034374Q295.90625 23.628124 296.51562 23.409374Q297.125 23.190624 297.92188 23.190624Q298.71875 23.190624 299.21875 23.378124Q299.71875 23.565624 299.95312 23.846874Q300.1875 24.128124 300.28125 24.565624Q300.32812 24.83125 300.32812 25.534374L300.32812 26.940624Q300.32812 28.409374 300.39062 28.8Q300.46875 29.190624 300.67188 29.55L299.5625 29.55Q299.40625 29.221874 299.35938 28.784374ZM299.26562 26.425Q298.6875 26.659374 297.54688 26.83125Q296.89062 26.925 296.625 27.05Q296.35938 27.159374 296.20312 27.378124Q296.0625 27.596874 296.0625 27.878124Q296.0625 28.3 296.375 28.58125Q296.70312 28.8625 297.3125 28.8625Q297.92188 28.8625 298.39062 28.596874Q298.875 28.33125 299.09375 27.8625Q299.26562 27.503124 299.26562 26.815624L299.26562 26.425ZM306.35938 27.26875L307.39062 27.409374Q307.21875 28.471874 306.51562 29.08125Q305.8125 29.690624 304.79688 29.690624Q303.51562 29.690624 302.73438 28.8625Q301.96875 28.01875 301.96875 26.45625Q301.96875 25.45625 302.29688 24.70625Q302.64062 23.940624 303.3125 23.565624Q304.0 23.190624 304.8125 23.190624Q305.8125 23.190624 306.45312 23.70625Q307.10938 24.20625 307.29688 25.159374L306.26562 25.315624Q306.125 24.690624 305.75 24.378124Q305.375 24.05 304.84375 24.05Q304.04688 24.05 303.54688 24.628124Q303.04688 25.190624 303.04688 26.425Q303.04688 27.690624 303.53125 28.253124Q304.01562 28.815624 304.78125 28.815624Q305.40625 28.815624 305.8125 28.440624Q306.23438 28.065624 306.35938 27.26875ZM312.54688 27.55L313.64062 27.675Q313.39062 28.628124 312.6875 29.159374Q311.98438 29.690624 310.90625 29.690624Q309.54688 29.690624 308.73438 28.846874Q307.9375 28.003124 307.9375 26.4875Q307.9375 24.925 308.75 24.065624Q309.5625 23.190624 310.84375 23.190624Q312.09375 23.190624 312.875 24.034374Q313.67188 24.878124 313.67188 26.425Q313.67188 26.51875 313.67188 26.70625L309.03125 26.70625Q309.09375 27.7375 309.60938 28.284374Q310.125 28.815624 310.90625 28.815624Q311.48438 28.815624 311.89062 28.51875Q312.3125 28.20625 312.54688 27.55ZM309.09375 25.846874L312.5625 25.846874Q312.5 25.05 312.17188 24.659374Q311.65625 24.05 310.85938 24.05Q310.125 24.05 309.625 24.534374Q309.14062 25.01875 309.09375 25.846874Z" fill-rule="nonzero"/><path stroke="#3d85c6" stroke-width="4.0" stroke-linecap="butt" d="M330.5 25.55L342.5 25.55" fill-rule="nonzero"/><path fill="#1a1a1a" d="M357.5625 26.534374L358.6875 26.83125Q358.32812 28.221874 357.40625 28.95625Q356.48438 29.690624 355.14062 29.690624Q353.75 29.690624 352.875 29.128124Q352.0 28.565624 351.54688 27.503124Q351.09375 26.425 351.09375 25.190624Q351.09375 23.846874 351.60938 22.846874Q352.125 21.846874 353.0625 21.33125Q354.01562 20.815624 355.15625 20.815624Q356.4375 20.815624 357.3125 21.471874Q358.20312 22.128124 358.54688 23.315624L357.42188 23.58125Q357.125 22.64375 356.54688 22.221874Q355.98438 21.784374 355.125 21.784374Q354.14062 21.784374 353.46875 22.26875Q352.8125 22.7375 352.53125 23.534374Q352.26562 24.33125 352.26562 25.190624Q352.26562 26.284374 352.57812 27.096874Q352.90625 27.909374 353.57812 28.315624Q354.25 28.721874 355.04688 28.721874Q356.0 28.721874 356.65625 28.175Q357.32812 27.628124 357.5625 26.534374ZM359.48438 29.55L362.78125 20.95625L364.0 20.95625L367.51562 29.55L366.23438 29.55L365.21875 26.940624L361.64062 26.940624L360.6875 29.55L359.48438 29.55ZM361.96875 26.01875L364.875 26.01875L363.98438 23.64375Q363.5625 22.565624 363.375 21.8625Q363.20312 22.690624 362.90625 23.503124L361.96875 26.01875ZM373.5625 26.534374L374.6875 26.83125Q374.32812 28.221874 373.40625 28.95625Q372.48438 29.690624 371.14062 29.690624Q369.75 29.690624 368.875 29.128124Q368.0 28.565624 367.54688 27.503124Q367.09375 26.425 367.09375 25.190624Q367.09375 23.846874 367.60938 22.846874Q368.125 21.846874 369.0625 21.33125Q370.01562 20.815624 371.15625 20.815624Q372.4375 20.815624 373.3125 21.471874Q374.20312 22.128124 374.54688 23.315624L373.42188 23.58125Q373.125 22.64375 372.54688 22.221874Q371.98438 21.784374 371.125 21.784374Q370.14062 21.784374 369.46875 22.26875Q368.8125 22.7375 368.53125 23.534374Q368.26562 24.33125 368.26562 25.190624Q368.26562 26.284374 368.57812 27.096874Q368.90625 27.909374 369.57812 28.315624Q370.25 28.721874 371.04688 28.721874Q372.0 28.721874 372.65625 28.175Q373.32812 27.628124 373.5625 26.534374ZM379.39062 29.55L379.39062 20.95625L381.10938 20.95625L383.14062 27.034374Q383.42188 27.89375 383.54688 28.315624Q383.6875 27.846874 384.0 26.940624L386.0625 20.95625L387.59375 20.95625L387.59375 29.55L386.5 29.55L386.5 22.3625L384.0 29.55L382.96875 29.55L380.48438 22.2375L380.48438 29.55L379.39062 29.55ZM392.35938 28.784374Q391.76562 29.284374 391.21875 29.4875Q390.6875 29.690624 390.0625 29.690624Q389.03125 29.690624 388.48438 29.190624Q387.9375 28.690624 387.9375 27.909374Q387.9375 27.45625 388.14062 27.08125Q388.34375 26.690624 388.6875 26.471874Q389.03125 26.2375 389.45312 26.128124Q389.75 26.034374 390.39062 25.95625Q391.65625 25.815624 392.26562 25.596874Q392.26562 25.378124 392.26562 25.33125Q392.26562 24.675 391.96875 24.409374Q391.5625 24.065624 390.76562 24.065624Q390.03125 24.065624 389.67188 24.33125Q389.3125 24.58125 389.14062 25.2375L388.10938 25.096874Q388.25 24.440624 388.57812 24.034374Q388.90625 23.628124 389.51562 23.409374Q390.125 23.190624 390.92188 23.190624Q391.71875 23.190624 392.21875 23.378124Q392.71875 23.565624 392.95312 23.846874Q393.1875 24.128124 393.28125 24.565624Q393.32812 24.83125 393.32812 25.534374L393.32812 26.940624Q393.32812 28.409374 393.39062 28.8Q393.46875 29.190624 393.67188 29.55L392.5625 29.55Q392.40625 29.221874 392.35938 28.784374ZM392.26562 26.425Q391.6875 26.659374 390.54688 26.83125Q389.89062 26.925 389.625 27.05Q389.35938 27.159374 389.20312 27.378124Q389.0625 27.596874 389.0625 27.878124Q389.0625 28.3 389.375 28.58125Q389.70312 28.8625 390.3125 28.8625Q390.92188 28.8625 391.39062 28.596874Q391.875 28.33125 392.09375 27.8625Q392.26562 27.503124 392.26562 26.815624L392.26562 26.425ZM395.29688 29.55L395.29688 23.33125L396.23438 23.33125L396.23438 24.20625Q396.92188 23.190624 398.21875 23.190624Q398.78125 23.190624 399.25 23.39375Q399.73438 23.596874 399.96875 23.925Q400.20312 24.253124 400.29688 24.690624Q400.34375 24.9875 400.34375 25.721874L400.34375 29.55L399.29688 29.55L399.29688 25.76875Q399.29688 25.1125 399.17188 24.8Q399.04688 24.4875 398.73438 24.3Q398.42188 24.096874 398.0 24.096874Q397.32812 24.096874 396.82812 24.534374Q396.34375 24.95625 396.34375 26.14375L396.34375 29.55L395.29688 29.55ZM406.35938 28.784374Q405.76562 29.284374 405.21875 29.4875Q404.6875 29.690624 404.0625 29.690624Q403.03125 29.690624 402.48438 29.190624Q401.9375 28.690624 401.9375 27.909374Q401.9375 27.45625 402.14062 27.08125Q402.34375 26.690624 402.6875 26.471874Q403.03125 26.2375 403.45312 26.128124Q403.75 26.034374 404.39062 25.95625Q405.65625 25.815624 406.26562 25.596874Q406.26562 25.378124 406.26562 25.33125Q406.26562 24.675 405.96875 24.409374Q405.5625 24.065624 404.76562 24.065624Q404.03125 24.065624 403.67188 24.33125Q403.3125 24.58125 403.14062 25.2375L402.10938 25.096874Q402.25 24.440624 402.57812 24.034374Q402.90625 23.628124 403.51562 23.409374Q404.125 23.190624 404.92188 23.190624Q405.71875 23.190624 406.21875 23.378124Q406.71875 23.565624 406.95312 23.846874Q407.1875 24.128124 407.28125 24.565624Q407.32812 24.83125 407.32812 25.534374L407.32812 26.940624Q407.32812 28.409374 407.39062 28.8Q407.46875 29.190624 407.67188 29.55L406.5625 29.55Q406.40625 29.221874 406.35938 28.784374ZM406.26562 26.425Q405.6875 26.659374 404.54688 26.83125Q403.89062 26.925 403.625 27.05Q403.35938 27.159374 403.20312 27.378124Q403.0625 27.596874 403.0625 27.878124Q403.0625 28.3 403.375 28.58125Q403.70312 28.8625 404.3125 28.8625Q404.92188 28.8625 405.39062 28.596874Q405.875 28.33125 406.09375 27.8625Q406.26562 27.503124 406.26562 26.815624L406.26562 26.425ZM409.09375 30.065624L410.125 30.221874Q410.1875 30.690624 410.48438 30.909374Q410.875 31.20625 411.54688 31.20625Q412.28125 31.20625 412.67188 30.909374Q413.07812 30.6125 413.21875 30.096874Q413.3125 29.76875 413.29688 28.7375Q412.60938 29.55 411.57812 29.55Q410.29688 29.55 409.59375 28.628124Q408.89062 27.690624 408.89062 26.409374Q408.89062 25.51875 409.20312 24.76875Q409.53125 24.003124 410.14062 23.596874Q410.75 23.190624 411.57812 23.190624Q412.6875 23.190624 413.40625 24.08125L413.40625 23.33125L414.375 23.33125L414.375 28.70625Q414.375 30.159374 414.07812 30.76875Q413.78125 31.378124 413.14062 31.721874Q412.5 32.08125 411.5625 32.08125Q410.45312 32.08125 409.76562 31.58125Q409.07812 31.08125 409.09375 30.065624ZM409.96875 26.33125Q409.96875 27.55 410.45312 28.1125Q410.9375 28.675 411.67188 28.675Q412.40625 28.675 412.89062 28.1125Q413.39062 27.55 413.39062 26.3625Q413.39062 25.221874 412.875 24.64375Q412.375 24.065624 411.65625 24.065624Q410.95312 24.065624 410.45312 24.64375Q409.96875 25.20625 409.96875 26.33125ZM420.54688 27.55L421.64062 27.675Q421.39062 28.628124 420.6875 29.159374Q419.98438 29.690624 418.90625 29.690624Q417.54688 29.690624 416.73438 28.846874Q415.9375 28.003124 415.9375 26.4875Q415.9375 24.925 416.75 24.065624Q417.5625 23.190624 418.84375 23.190624Q420.09375 23.190624 420.875 24.034374Q421.67188 24.878124 421.67188 26.425Q421.67188 26.51875 421.67188 26.70625L417.03125 26.70625Q417.09375 27.7375 417.60938 28.284374Q418.125 28.815624 418.90625 28.815624Q419.48438 28.815624 419.89062 28.51875Q420.3125 28.20625 420.54688 27.55ZM417.09375 25.846874L420.5625 25.846874Q420.5 25.05 420.17188 24.659374Q419.65625 24.05 418.85938 24.05Q418.125 24.05 417.625 24.534374Q417.14062 25.01875 417.09375 25.846874ZM427.32812 29.55L427.32812 28.76875Q426.73438 29.690624 425.59375 29.690624Q424.84375 29.690624 424.21875 29.284374Q423.59375 28.8625 423.25 28.128124Q422.90625 27.39375 422.90625 26.440624Q422.90625 25.51875 423.21875 24.753124Q423.53125 23.9875 424.15625 23.596874Q424.78125 23.190624 425.54688 23.190624Q426.10938 23.190624 426.54688 23.425Q426.98438 23.659374 427.26562 24.034374L427.26562 20.95625L428.3125 20.95625L428.3125 29.55L427.32812 29.55ZM424.0 26.440624Q424.0 27.64375 424.5 28.2375Q425.0 28.815624 425.6875 28.815624Q426.375 28.815624 426.85938 28.253124Q427.34375 27.690624 427.34375 26.534374Q427.34375 25.253124 426.84375 24.659374Q426.35938 24.065624 425.64062 24.065624Q424.9375 24.065624 424.46875 24.64375Q424.0 25.20625 424.0 26.440624ZM433.39062 29.55L433.39062 20.95625L435.10938 20.95625L437.14062 27.034374Q437.42188 27.89375 437.54688 28.315624Q437.6875 27.846874 438.0 26.940624L440.0625 20.95625L441.59375 20.95625L441.59375 29.55L440.5 29.55L440.5 22.3625L438.0 29.55L436.96875 29.55L434.48438 22.2375L434.48438 29.55L433.39062 29.55ZM441.48438 29.55L444.78125 20.95625L446.0 20.95625L449.51562 29.55L448.23438 29.55L447.21875 26.940624L443.64062 26.940624L442.6875 29.55L441.48438 29.55ZM443.96875 26.01875L446.875 26.01875L445.98438 23.64375Q445.5625 22.565624 445.375 21.8625Q445.20312 22.690624 444.90625 23.503124L443.96875 26.01875ZM449.28125 29.55L449.28125 23.33125L450.23438 23.33125L450.23438 24.26875Q450.59375 23.6125 450.89062 23.409374Q451.20312 23.190624 451.57812 23.190624Q452.10938 23.190624 452.65625 23.51875L452.29688 24.503124Q451.90625 24.26875 451.53125 24.26875Q451.17188 24.26875 450.89062 24.4875Q450.625 24.690624 450.51562 25.065624Q450.32812 25.628124 450.32812 26.284374L450.32812 29.55L449.28125 29.55ZM453.29688 29.55L453.29688 20.95625L454.35938 20.95625L454.35938 25.8625L456.84375 23.33125L458.21875 23.33125L455.82812 25.628124L458.45312 29.55L457.15625 29.55L455.09375 26.3625L454.35938 27.08125L454.35938 29.55L453.29688 29.55ZM463.54688 27.55L464.64062 27.675Q464.39062 28.628124 463.6875 29.159374Q462.98438 29.690624 461.90625 29.690624Q460.54688 29.690624 459.73438 28.846874Q458.9375 28.003124 458.9375 26.4875Q458.9375 24.925 459.75 24.065624Q460.5625 23.190624 461.84375 23.190624Q463.09375 23.190624 463.875 24.034374Q464.67188 24.878124 464.67188 26.425Q464.67188 26.51875 464.67188 26.70625L460.03125 26.70625Q460.09375 27.7375 460.60938 28.284374Q461.125 28.815624 461.90625 28.815624Q462.48438 28.815624 462.89062 28.51875Q463.3125 28.20625 463.54688 27.55ZM460.09375 25.846874L463.5625 25.846874Q463.5 25.05 463.17188 24.659374Q462.65625 24.05 461.85938 24.05Q461.125 24.05 460.625 24.534374Q460.14062 25.01875 460.09375 25.846874ZM468.59375 28.6125L468.75 29.534374Q468.29688 29.628124 467.95312 29.628124Q467.375 29.628124 467.0625 29.45625Q466.75 29.26875 466.60938 28.971874Q466.48438 28.675 466.48438 27.721874L466.48438 24.14375L465.71875 24.14375L465.71875 23.33125L466.48438 23.33125L466.48438 21.784374L467.53125 21.159374L467.53125 23.33125L468.59375 23.33125L468.59375 24.14375L467.53125 24.14375L467.53125 27.784374Q467.53125 28.2375 467.57812 28.3625Q467.64062 28.4875 467.76562 28.565624Q467.89062 28.64375 468.125 28.64375Q468.3125 28.64375 468.59375 28.6125ZM469.29688 31.940624L469.29688 23.33125L470.25 23.33125L470.25 24.128124Q470.59375 23.659374 471.01562 23.425Q471.45312 23.190624 472.0625 23.190624Q472.85938 23.190624 473.46875 23.596874Q474.07812 24.003124 474.375 24.753124Q474.6875 25.503124 474.6875 26.39375Q474.6875 27.346874 474.34375 28.1125Q474.01562 28.878124 473.35938 29.284374Q472.70312 29.690624 471.98438 29.690624Q471.45312 29.690624 471.03125 29.471874Q470.60938 29.2375 470.34375 28.909374L470.34375 31.940624L469.29688 31.940624ZM470.25 26.471874Q470.25 27.675 470.73438 28.253124Q471.21875 28.815624 471.90625 28.815624Q472.60938 28.815624 473.10938 28.221874Q473.60938 27.628124 473.60938 26.378124Q473.60938 25.190624 473.125 24.6125Q472.64062 24.01875 471.95312 24.01875Q471.28125 24.01875 470.76562 24.64375Q470.25 25.26875 470.25 26.471874ZM476.26562 29.55L476.26562 20.95625L477.32812 20.95625L477.32812 29.55L476.26562 29.55ZM483.35938 28.784374Q482.76562 29.284374 482.21875 29.4875Q481.6875 29.690624 481.0625 29.690624Q480.03125 29.690624 479.48438 29.190624Q478.9375 28.690624 478.9375 27.909374Q478.9375 27.45625 479.14062 27.08125Q479.34375 26.690624 479.6875 26.471874Q480.03125 26.2375 480.45312 26.128124Q480.75 26.034374 481.39062 25.95625Q482.65625 25.815624 483.26562 25.596874Q483.26562 25.378124 483.26562 25.33125Q483.26562 24.675 482.96875 24.409374Q482.5625 24.065624 481.76562 24.065624Q481.03125 24.065624 480.67188 24.33125Q480.3125 24.58125 480.14062 25.2375L479.10938 25.096874Q479.25 24.440624 479.57812 24.034374Q479.90625 23.628124 480.51562 23.409374Q481.125 23.190624 481.92188 23.190624Q482.71875 23.190624 483.21875 23.378124Q483.71875 23.565624 483.95312 23.846874Q484.1875 24.128124 484.28125 24.565624Q484.32812 24.83125 484.32812 25.534374L484.32812 26.940624Q484.32812 28.409374 484.39062 28.8Q484.46875 29.190624 484.67188 29.55L483.5625 29.55Q483.40625 29.221874 483.35938 28.784374ZM483.26562 26.425Q482.6875 26.659374 481.54688 26.83125Q480.89062 26.925 480.625 27.05Q480.35938 27.159374 480.20312 27.378124Q480.0625 27.596874 480.0625 27.878124Q480.0625 28.3 480.375 28.58125Q480.70312 28.8625 481.3125 28.8625Q481.92188 28.8625 482.39062 28.596874Q482.875 28.33125 483.09375 27.8625Q483.26562 27.503124 483.26562 26.815624L483.26562 26.425ZM490.35938 27.26875L491.39062 27.409374Q491.21875 28.471874 490.51562 29.08125Q489.8125 29.690624 488.79688 29.690624Q487.51562 29.690624 486.73438 28.8625Q485.96875 28.01875 485.96875 26.45625Q485.96875 25.45625 486.29688 24.70625Q486.64062 23.940624 487.3125 23.565624Q488.0 23.190624 488.8125 23.190624Q489.8125 23.190624 490.45312 23.70625Q491.10938 24.20625 491.29688 25.159374L490.26562 25.315624Q490.125 24.690624 489.75 24.378124Q489.375 24.05 488.84375 24.05Q488.04688 24.05 487.54688 24.628124Q487.04688 25.190624 487.04688 26.425Q487.04688 27.690624 487.53125 28.253124Q488.01562 28.815624 488.78125 28.815624Q489.40625 28.815624 489.8125 28.440624Q490.23438 28.065624 490.35938 27.26875ZM496.54688 27.55L497.64062 27.675Q497.39062 28.628124 496.6875 29.159374Q495.98438 29.690624 494.90625 29.690624Q493.54688 29.690624 492.73438 28.846874Q491.9375 28.003124 491.9375 26.4875Q491.9375 24.925 492.75 24.065624Q493.5625 23.190624 494.84375 23.190624Q496.09375 23.190624 496.875 24.034374Q497.67188 24.878124 497.67188 26.425Q497.67188 26.51875 497.67188 26.70625L493.03125 26.70625Q493.09375 27.7375 493.60938 28.284374Q494.125 28.815624 494.90625 28.815624Q495.48438 28.815624 495.89062 28.51875Q496.3125 28.20625 496.54688 27.55ZM493.09375 25.846874L496.5625 25.846874Q496.5 25.05 496.17188 24.659374Q495.65625 24.05 494.85938 24.05Q494.125 24.05 493.625 24.534374Q493.14062 25.01875 493.09375 25.846874Z" fill-rule="nonzero"/></svg>