<svg version="1.1" viewBox="0.0 0.0 600.0 371.0" fill="none" stroke="none" stroke-linecap="square" stroke-miterlimit="10" width="600" height="371" xmlns:xlink="http://www.w3.org/1999/xlink" xmlns="http://www.w3.org/2000/svg"><path fill="#ffffff" d="M0 0L600.0 0L600.0 371.0L0 371.0L0 0Z" fill-rule="nonzero"/><path stroke="#cccccc" stroke-width="1.0" stroke-linecap="butt" d="M63.5 300.5L581.5 300.5" fill-rule="nonzero"/><path stroke="#cccccc" stroke-width="1.0" stroke-linecap="butt" d="M63.5 259.5L581.5 259.5" fill-rule="nonzero"/><path stroke="#cccccc" stroke-width="1.0" stroke-linecap="butt" d="M63.5 217.5L581.5 217.5" fill-rule="nonzero"/><path stroke="#333333" stroke-width="1.0" stroke-linecap="butt" d="M63.5 176.5L581.5 176.5" fill-rule="nonzero"/><path stroke="#cccccc" stroke-width="1.0" stroke-linecap="butt" d="M63.5 134.5L581.5 134.5" fill-rule="nonzero"/><path stroke="#cccccc" stroke-width="1.0" stroke-linecap="butt" d="M63.5 93.5L581.5 93.5" fill-rule="nonzero"/><path stroke="#cccccc" stroke-width="1.0" stroke-linecap="butt" d="M63.5 51.5L581.5 51.5" fill-rule="nonzero"/><path stroke="#000000" stroke-width="1.0" stroke-linecap="butt" d="M63.5 300.5L63.5 51.5" fill-rule="nonzero"/><clipPath id="id_0"><path d="M63.55 51.916668L581.45 51.916668L581.45 300.45L63.55 300.45L63.55 51.916668Z" clip-rule="nonzero"/></clipPath><path stroke="#ff0000" stroke-width="2.0" stroke-linecap="butt" stroke-dasharray="2.0,3.0" clip-path="url(#id_0)" d="M85.129166 238.98647L128.2875 236.21327L171.44583 231.64253L214.60417 226.50754L257.7625 221.52257L300.92084 215.4461L344.07916 208.12808L387.2375 199.50264L430.39584 192.49864L473.55417 184.95723L516.7125 176.88237L559.87085 168.28304" fill-rule="nonzero"/><path stroke="#00ff00" stroke-width="4.0" stroke-linecap="butt" clip-path="url(#id_0)" d="M85.129166 281.71472L128.2875 273.45877L171.44583 259.718L214.60417 244.70886L257.7625 229.38765L300.92084 210.65599L344.07916 188.63663L387.2375 162.72708L430.39584 141.71358L473.55417 119.08686L516.7125 94.86132L559.87085 68.52217" fill-rule="nonzero"/><path fill="#000000" fill-opacity="0.0" clip-path="url(#id_0)" d="M88.129166 238.98647C88.129166 240.64333 86.78602 241.98647 85.129166 241.98647C83.47231 241.98647 82.129166 240.64333 82.129166 238.98647C82.129166 237.3296 83.47231 235.98647 85.129166 235.98647C86.78602 235.98647 88.129166 237.3296 88.129166 238.98647Z" fill-rule="nonzero"/><path fill="#000000" fill-opacity="0.0" clip-path="url(#id_0)" d="M131.2875 236.21327C131.2875 237.87012 129.94435 239.21327 128.2875 239.21327C126.630646 239.21327 125.2875 237.87012 125.2875 236.21327C125.2875 234.55641 126.630646 233.21327 128.2875 233.21327C129.94435 233.21327 131.2875 234.55641 131.2875 236.21327Z" fill-rule="nonzero"/><path fill="#000000" fill-opacity="0.0" clip-path="url(#id_0)" d="M174.44583 231.64253C174.44583 233.2994 173.10269 234.64253 171.44583 234.64253C169.78899 234.64253 168.44583 233.2994 168.44583 231.64253C168.44583 229.98567 169.78899 228.64253 171.44583 228.64253C173.10269 228.64253 174.44583 229.98567 174.44583 231.64253Z" fill-rule="nonzero"/><path fill="#000000" fill-opacity="0.0" clip-path="url(#id_0)" d="M217.60417 226.50754C217.60417 228.1644 216.26102 229.50754 214.60417 229.50754C212.94731 229.50754 211.60417 228.1644 211.60417 226.50754C211.60417 224.8507 212.94731 223.50754 214.60417 223.50754C216.26102 223.50754 217.60417 224.8507 217.60417 226.50754Z" fill-rule="nonzero"/><path fill="#000000" fill-opacity="0.0" clip-path="url(#id_0)" d="M260.7625 221.52257C260.7625 223.17941 259.41934 224.52257 257.7625 224.52257C256.10565 224.52257 254.7625 223.17941 254.7625 221.52257C254.7625 219.8657 256.10565 218.52257 257.7625 218.52257C259.41934 218.52257 260.7625 219.8657 260.7625 221.52257Z" fill-rule="nonzero"/><path fill="#000000" fill-opacity="0.0" clip-path="url(#id_0)" d="M303.92084 215.4461C303.92084 217.10297 302.5777 218.4461 300.92084 218.4461C299.26398 218.4461 297.92084 217.10297 297.92084 215.4461C297.92084 213.78926 299.26398 212.4461 300.92084 212.4461C302.5777 212.4461 303.92084 213.78926 303.92084 215.4461Z" fill-rule="nonzero"/><path fill="#000000" fill-opacity="0.0" clip-path="url(#id_0)" d="M347.07916 208.12808C347.07916 209.78494 345.73602 211.12808 344.07916 211.12808C342.4223 211.12808 341.07916 209.78494 341.07916 208.12808C341.07916 206.47122 342.4223 205.12808 344.07916 205.12808C345.73602 205.12808 347.07916 206.47122 347.07916 208.12808Z" fill-rule="nonzero"/><path fill="#000000" fill-opacity="0.0" clip-path="url(#id_0)" d="M390.2375 199.50264C390.2375 201.15948 388.89435 202.50264 387.2375 202.50264C385.58066 202.50264 384.2375 201.15948 384.2375 199.50264C384.2375 197.84578 385.58066 196.50264 387.2375 196.50264C388.89435 196.50264 390.2375 197.84578 390.2375 199.50264Z" fill-rule="nonzero"/><path fill="#000000" fill-opacity="0.0" clip-path="url(#id_0)" d="M433.39584 192.49864C433.39584 194.15549 432.05267 195.49864 430.39584 195.49864C428.73898 195.49864 427.39584 194.15549 427.39584 192.49864C427.39584 190.84178 428.73898 189.49864 430.39584 189.49864C432.05267 189.49864 433.39584 190.84178 433.39584 192.49864Z" fill-rule="nonzero"/><path fill="#000000" fill-opacity="0.0" clip-path="url(#id_0)" d="M476.55417 184.95723C476.55417 186.61407 475.21103 187.95723 473.55417 187.95723C471.8973 187.95723 470.55417 186.61407 470.55417 184.95723C470.55417 183.30037 471.8973 181.95723 473.55417 181.95723C475.21103 181.95723 476.55417 183.30037 476.55417 184.95723Z" fill-rule="nonzero"/><path fill="#000000" fill-opacity="0.0" clip-path="url(#id_0)" d="M519.7125 176.88237C519.7125 178.53923 518.3694 179.88237 516.7125 179.88237C515.05566 179.88237 513.7125 178.53923 513.7125 176.88237C513.7125 175.22552 515.05566 173.88237 516.7125 173.88237C518.3694 173.88237 519.7125 175.22552 519.7125 176.88237Z" fill-rule="nonzero"/><path fill="#000000" fill-opacity="0.0" clip-path="url(#id_0)" d="M562.87085 168.28304C562.87085 169.9399 561.5277 171.28304 559.87085 171.28304C558.214 171.28304 556.87085 169.9399 556.87085 168.28304C556.87085 166.62619 558.214 165.28304 559.87085 165.28304C561.5277 165.28304 562.87085 166.62619 562.87085 168.28304Z" fill-rule="nonzero"/><path fill="#000000" fill-opacity="0.0" clip-path="url(#id_0)" d="M88.129166 281.71472C88.129166 283.37158 86.78602 284.71472 85.129166 284.71472C83.47231 284.71472 82.129166 283.37158 82.129166 281.71472C82.129166 280.05786 83.47231 278.71472 85.129166 278.71472C86.78602 278.71472 88.129166 280.05786 88.129166 281.71472Z" fill-rule="nonzero"/><path fill="#000000" fill-opacity="0.0" clip-path="url(#id_0)" d="M131.2875 273.45877C131.2875 275.11563 129.94435 276.45877 128.2875 276.45877C126.630646 276.45877 125.2875 275.11563 125.2875 273.45877C125.2875 271.8019 126.630646 270.45877 128.2875 270.45877C129.94435 270.45877 131.2875 271.8019 131.2875 273.45877Z" fill-rule="nonzero"/><path fill="#000000" fill-opacity="0.0" clip-path="url(#id_0)" d="M174.44583 259.718C174.44583 261.37482 173.10269 262.718 171.44583 262.718C169.78899 262.718 168.44583 261.37482 168.44583 259.718C168.44583 258.06113 169.78899 256.718 171.44583 256.718C173.10269 256.718 174.44583 258.06113 174.44583 259.718Z" fill-rule="nonzero"/><path fill="#000000" fill-opacity="0.0" clip-path="url(#id_0)" d="M217.60417 244.70886C217.60417 246.36572 216.26102 247.70886 214.60417 247.70886C212.94731 247.70886 211.60417 246.36572 211.60417 244.70886C211.60417 243.052 212.94731 241.70886 214.60417 241.70886C216.26102 241.70886 217.60417 243.052 217.60417 244.70886Z" fill-rule="nonzero"/><path fill="#000000" fill-opacity="0.0" clip-path="url(#id_0)" d="M260.7625 229.38765C260.7625 231.04451 259.41934 232.38765 257.7625 232.38765C256.10565 232.38765 254.7625 231.04451 254.7625 229.38765C254.7625 227.73079 256.10565 226.38765 257.7625 226.38765C259.41934 226.38765 260.7625 227.73079 260.7625 229.38765Z" fill-rule="nonzero"/><path fill="#000000" fill-opacity="0.0" clip-path="url(#id_0)" d="M303.92084 210.65599C303.92084 212.31285 302.5777 213.65599 300.92084 213.65599C299.26398 213.65599 297.92084 212.31285 297.92084 210.65599C297.92084 208.99915 299.26398 207.65599 300.92084 207.65599C302.5777 207.65599 303.92084 208.99915 303.92084 210.65599Z" fill-rule="nonzero"/><path fill="#000000" fill-opacity="0.0" clip-path="url(#id_0)" d="M347.07916 188.63663C347.07916 190.29349 345.73602 191.63663 344.07916 191.63663C342.4223 191.63663 341.07916 190.29349 341.07916 188.63663C341.07916 186.97978 342.4223 185.63663 344.07916 185.63663C345.73602 185.63663 347.07916 186.97978 347.07916 188.63663Z" fill-rule="nonzero"/><path fill="#000000" fill-opacity="0.0" clip-path="url(#id_0)" d="M390.2375 162.72708C390.2375 164.38393 388.89435 165.72708 387.2375 165.72708C385.58066 165.72708 384.2375 164.38393 384.2375 162.72708C384.2375 161.07022 385.58066 159.72708 387.2375 159.72708C388.89435 159.72708 390.2375 161.07022 390.2375 162.72708Z" fill-rule="nonzero"/><path fill="#000000" fill-opacity="0.0" clip-path="url(#id_0)" d="M433.39584 141.71358C433.39584 143.37044 432.05267 144.71358 430.39584 144.71358C428.73898 144.71358 427.39584 143.37044 427.39584 141.71358C427.39584 140.05673 428.73898 138.71358 430.39584 138.71358C432.05267 138.71358 433.39584 140.05673 433.39584 141.71358Z" fill-rule="nonzero"/><path fill="#000000" fill-opacity="0.0" clip-path="url(#id_0)" d="M476.55417 119.08686C476.55417 120.74371 475.21103 122.08686 473.55417 122.08686C471.8973 122.08686 470.55417 120.74371 470.55417 119.08686C470.55417 117.43001 471.8973 116.08686 473.55417 116.08686C475.21103 116.08686 476.55417 117.43001 476.55417 119.08686Z" fill-rule="nonzero"/><path fill="#000000" fill-opacity="0.0" clip-path="url(#id_0)" d="M519.7125 94.86132C519.7125 96.51817 518.3694 97.86132 516.7125 97.86132C515.05566 97.86132 513.7125 96.51817 513.7125 94.86132C513.7125 93.20447 515.05566 91.86132 516.7125 91.86132C518.3694 91.86132 519.7125 93.20447 519.7125 94.86132Z" fill-rule="nonzero"/><path fill="#000000" fill-opacity="0.0" clip-path="url(#id_0)" d="M562.87085 68.52217C562.87085 70.17902 561.5277 71.52217 559.87085 71.52217C558.214 71.52217 556.87085 70.17902 556.87085 68.52217C556.87085 66.86532 558.214 65.52217 559.87085 65.52217C561.5277 65.52217 562.87085 66.86532 562.87085 68.52217Z" fill-rule="nonzero"/><path fill="#000000" d="M302.39062 349.45L302.39062 340.85626L304.10938 340.85626L306.14062 346.9344Q306.42188 347.79376 306.54688 348.21564Q306.6875 347.7469 307.0 346.84064L309.0625 340.85626L310.59375 340.85626L310.59375 349.45L309.5 349.45L309.5 342.2625L307.0 349.45L305.96875 349.45L303.48438 342.1375L303.48438 349.45L302.39062 349.45ZM311.29688 342.075L311.29688 340.85626L312.35938 340.85626L312.35938 342.075L311.29688 342.075ZM311.29688 349.45L311.29688 343.23126L312.35938 343.23126L312.35938 349.45L311.29688 349.45ZM318.54688 347.45L319.64062 347.575Q319.39062 348.52814 318.6875 349.0594Q317.98438 349.59064 316.90625 349.59064Q315.54688 349.59064 314.73438 348.7469Q313.9375 347.90314 313.9375 346.3875Q313.9375 344.825 314.75 343.96564Q315.5625 343.09064 316.84375 343.09064Q318.09375 343.09064 318.875 343.9344Q319.67188 344.77814 319.67188 346.325Q319.67188 346.41876 319.67188 346.60626L315.03125 346.60626Q315.09375 347.6375 315.60938 348.1844Q316.125 348.71564 316.90625 348.71564Q317.48438 348.71564 317.89062 348.41876Q318.3125 348.10626 318.54688 347.45ZM315.09375 345.7469L318.5625 345.7469Q318.5 344.95 318.17188 344.5594Q317.65625 343.95 316.85938 343.95Q316.125 343.95 315.625 344.4344Q315.14062 344.91876 315.09375 345.7469ZM320.875 347.59064L321.90625 347.4344Q322.0 348.0594 322.39062 348.3875Q322.79688 348.71564 323.53125 348.71564Q324.25 348.71564 324.59375 348.4344Q324.95312 348.1375 324.95312 347.73126Q324.95312 347.3719 324.64062 347.16876Q324.42188 347.02814 323.5625 346.8094Q322.40625 346.5125 321.95312 346.3094Q321.51562 346.09064 321.28125 345.71564Q321.04688 345.34064 321.04688 344.8719Q321.04688 344.46564 321.23438 344.10626Q321.42188 343.7469 321.75 343.5125Q322.0 343.34064 322.42188 343.21564Q322.84375 343.09064 323.34375 343.09064Q324.0625 343.09064 324.60938 343.3094Q325.17188 343.5125 325.4375 343.8719Q325.70312 344.23126 325.79688 344.825L324.76562 344.96564Q324.70312 344.4969 324.35938 344.23126Q324.03125 343.95 323.40625 343.95Q322.6875 343.95 322.375 344.2Q322.0625 344.4344 322.0625 344.7625Q322.0625 344.96564 322.1875 345.1219Q322.32812 345.29376 322.59375 345.40314Q322.75 345.46564 323.53125 345.66876Q324.65625 345.98126 325.09375 346.16876Q325.53125 346.35626 325.78125 346.71564Q326.03125 347.075 326.03125 347.6219Q326.03125 348.15314 325.71875 348.6219Q325.42188 349.075 324.84375 349.34064Q324.26562 349.59064 323.53125 349.59064Q322.3125 349.59064 321.67188 349.09064Q321.04688 348.575 320.875 347.59064ZM328.29688 342.075L328.29688 340.85626L329.35938 340.85626L329.35938 342.075L328.29688 342.075ZM328.29688 349.45L328.29688 343.23126L329.35938 343.23126L329.35938 349.45L328.29688 349.45ZM335.35938 348.6844Q334.76562 349.1844 334.21875 349.3875Q333.6875 349.59064 333.0625 349.59064Q332.03125 349.59064 331.48438 349.09064Q330.9375 348.59064 330.9375 347.8094Q330.9375 347.35626 331.14062 346.98126Q331.34375 346.59064 331.6875 346.3719Q332.03125 346.1375 332.45312 346.02814Q332.75 345.9344 333.39062 345.85626Q334.65625 345.71564 335.26562 345.4969Q335.26562 345.27814 335.26562 345.23126Q335.26562 344.575 334.96875 344.3094Q334.5625 343.96564 333.76562 343.96564Q333.03125 343.96564 332.67188 344.23126Q332.3125 344.48126 332.14062 345.1375L331.10938 344.9969Q331.25 344.34064 331.57812 343.9344Q331.90625 343.52814 332.51562 343.3094Q333.125 343.09064 333.92188 343.09064Q334.71875 343.09064 335.21875 343.27814Q335.71875 343.46564 335.95312 343.7469Q336.1875 344.02814 336.28125 344.46564Q336.32812 344.73126 336.32812 345.4344L336.32812 346.84064Q336.32812 348.3094 336.39062 348.7Q336.46875 349.09064 336.67188 349.45L335.5625 349.45Q335.40625 349.1219 335.35938 348.6844ZM335.26562 346.325Q334.6875 346.5594 333.54688 346.73126Q332.89062 346.825 332.625 346.95Q332.35938 347.0594 332.20312 347.27814Q332.0625 347.4969 332.0625 347.77814Q332.0625 348.2 332.375 348.48126Q332.70312 348.7625 333.3125 348.7625Q333.92188 348.7625 334.39062 348.4969Q334.875 348.23126 335.09375 347.7625Q335.26562 347.40314 335.26562 346.71564L335.26562 346.325ZM336.4375 349.45Q336.10938 349.65314 335.92188 349.95Q335.73438 350.2625 335.73438 350.575Q335.73438 350.8094 335.875 350.98126Q336.01562 351.15314 336.3125 351.15314Q336.45312 351.15314 336.59375 351.10626Q336.73438 351.075 336.84375 351.0125L336.84375 351.7625Q336.42188 351.96564 336.04688 351.96564Q335.75 351.96564 335.53125 351.8719Q335.3125 351.79376 335.15625 351.6375Q335.01562 351.4969 334.9375 351.3094Q334.85938 351.1219 334.85938 350.8875Q334.85938 350.5125 335.0625 350.1375Q335.28125 349.7625 335.67188 349.45L336.4375 349.45ZM342.35938 347.16876L343.39062 347.3094Q343.21875 348.3719 342.51562 348.98126Q341.8125 349.59064 340.79688 349.59064Q339.51562 349.59064 338.73438 348.7625Q337.96875 347.91876 337.96875 346.35626Q337.96875 345.35626 338.29688 344.60626Q338.64062 343.84064 339.3125 343.46564Q340.0 343.09064 340.8125 343.09064Q341.8125 343.09064 342.45312 343.60626Q343.10938 344.10626 343.29688 345.0594L342.26562 345.21564Q342.125 344.59064 341.75 344.27814Q341.375 343.95 340.84375 343.95Q340.04688 343.95 339.54688 344.52814Q339.04688 345.09064 339.04688 346.325Q339.04688 347.59064 339.53125 348.15314Q340.01562 348.71564 340.78125 348.71564Q341.40625 348.71564 341.8125 348.34064Q342.23438 347.96564 342.35938 347.16876Z" fill-rule="nonzero"/><path fill="#000000" d="M18.925 301.8719L18.925 300.8094L22.175 300.8094L22.175 301.8719L18.925 301.8719ZM28.51875 297.96564L27.471874 298.04376Q27.33125 297.41876 27.08125 297.1375Q26.64375 296.6844 26.01875 296.6844Q25.51875 296.6844 25.128124 296.96564Q24.64375 297.34064 24.346874 298.04376Q24.065624 298.73126 24.05 300.0125Q24.425 299.4344 24.971874 299.15314Q25.534374 298.8719 26.14375 298.8719Q27.190624 298.8719 27.925 299.65314Q28.675 300.4344 28.675 301.65314Q28.675 302.46564 28.315624 303.16876Q27.971874 303.85626 27.3625 304.23126Q26.753124 304.59064 25.9875 304.59064Q24.659374 304.59064 23.83125 303.6219Q23.003124 302.65314 23.003124 300.4344Q23.003124 297.9344 23.925 296.8094Q24.721874 295.825 26.08125 295.825Q27.096874 295.825 27.7375 296.40314Q28.39375 296.96564 28.51875 297.96564ZM24.221874 301.66876Q24.221874 302.21564 24.440624 302.71564Q24.675 303.2 25.08125 303.46564Q25.503124 303.73126 25.971874 303.73126Q26.628124 303.73126 27.1125 303.2Q27.596874 302.65314 27.596874 301.73126Q27.596874 300.84064 27.1125 300.325Q26.64375 299.8094 25.925 299.8094Q25.20625 299.8094 24.70625 300.325Q24.221874 300.84064 24.221874 301.66876ZM30.05 300.21564Q30.05 298.6844 30.3625 297.7625Q30.675 296.825 31.284374 296.325Q31.909374 295.825 32.846874 295.825Q33.534374 295.825 34.05 296.10626Q34.58125 296.3875 34.925 296.91876Q35.26875 297.4344 35.45625 298.1844Q35.64375 298.9344 35.64375 300.21564Q35.64375 301.73126 35.33125 302.65314Q35.034374 303.575 34.409374 304.09064Q33.8 304.59064 32.846874 304.59064Q31.6125 304.59064 30.89375 303.7Q30.05 302.6375 30.05 300.21564ZM31.128124 300.21564Q31.128124 302.325 31.628124 303.02814Q32.128124 303.73126 32.846874 303.73126Q33.58125 303.73126 34.065624 303.02814Q34.565624 302.325 34.565624 300.21564Q34.565624 298.09064 34.065624 297.40314Q33.58125 296.7 32.83125 296.7Q32.1125 296.7 31.675 297.3094Q31.128124 298.09064 31.128124 300.21564ZM37.05 300.21564Q37.05 298.6844 37.3625 297.7625Q37.675 296.825 38.284374 296.325Q38.909374 295.825 39.846874 295.825Q40.534374 295.825 41.05 296.10626Q41.58125 296.3875 41.925 296.91876Q42.26875 297.4344 42.45625 298.1844Q42.64375 298.9344 42.64375 300.21564Q42.64375 301.73126 42.33125 302.65314Q42.034374 303.575 41.409374 304.09064Q40.8 304.59064 39.846874 304.59064Q38.6125 304.59064 37.89375 303.7Q37.05 302.6375 37.05 300.21564ZM38.128124 300.21564Q38.128124 302.325 38.628124 303.02814Q39.128124 303.73126 39.846874 303.73126Q40.58125 303.73126 41.065624 303.02814Q41.565624 302.325 41.565624 300.21564Q41.565624 298.09064 41.065624 297.40314Q40.58125 296.7 39.83125 296.7Q39.1125 296.7 38.675 297.3094Q38.128124 298.09064 38.128124 300.21564ZM44.05 300.21564Q44.05 298.6844 44.3625 297.7625Q44.675 296.825 45.284374 296.325Q45.909374 295.825 46.846874 295.825Q47.534374 295.825 48.05 296.10626Q48.58125 296.3875 48.925 296.91876Q49.26875 297.4344 49.45625 298.1844Q49.64375 298.9344 49.64375 300.21564Q49.64375 301.73126 49.33125 302.65314Q49.034374 303.575 48.409374 304.09064Q47.8 304.59064 46.846874 304.59064Q45.6125 304.59064 44.89375 303.7Q44.05 302.6375 44.05 300.21564ZM45.128124 300.21564Q45.128124 302.325 45.628124 303.02814Q46.128124 303.73126 46.846874 303.73126Q47.58125 303.73126 48.065624 303.02814Q48.565624 302.325 48.565624 300.21564Q48.565624 298.09064 48.065624 297.40314Q47.58125 296.7 46.83125 296.7Q46.1125 296.7 45.675 297.3094Q45.128124 298.09064 45.128124 300.21564ZM51.05 300.21564Q51.05 298.6844 51.3625 297.7625Q51.675 296.825 52.284374 296.325Q52.909374 295.825 53.846874 295.825Q54.534374 295.825 55.05 296.10626Q55.58125 296.3875 55.925 296.91876Q56.26875 297.4344 56.45625 298.1844Q56.64375 298.9344 56.64375 300.21564Q56.64375 301.73126 56.33125 302.65314Q56.034374 303.575 55.409374 304.09064Q54.8 304.59064 53.846874 304.59064Q52.6125 304.59064 51.89375 303.7Q51.05 302.6375 51.05 300.21564ZM52.128124 300.21564Q52.128124 302.325 52.628124 303.02814Q53.128124 303.73126 53.846874 303.73126Q54.58125 303.73126 55.065624 303.02814Q55.565624 302.325 55.565624 300.21564Q55.565624 298.09064 55.065624 297.40314Q54.58125 296.7 53.83125 296.7Q53.1125 296.7 52.675 297.3094Q52.128124 298.09064 52.128124 300.21564Z" fill-rule="nonzero"/><path fill="#000000" d="M18.925 260.44965L18.925 259.38715L22.175 259.38715L22.175 260.44965L18.925 260.44965ZM26.425 263.02777L26.425 260.96527L22.70625 260.96527L22.70625 259.99652L26.628124 254.43402L27.4875 254.43402L27.4875 259.99652L28.64375 259.99652L28.64375 260.96527L27.4875 260.96527L27.4875 263.02777L26.425 263.02777ZM26.425 259.99652L26.425 256.13715L23.7375 259.99652L26.425 259.99652ZM30.05 258.7934Q30.05 257.26215 30.3625 256.34027Q30.675 255.40277 31.284374 254.90277Q31.909374 254.40277 32.846874 254.40277Q33.534374 254.40277 34.05 254.68402Q34.58125 254.96527 34.925 255.49652Q35.26875 256.01215 35.45625 256.76215Q35.64375 257.51215 35.64375 258.7934Q35.64375 260.30902 35.33125 261.2309Q35.034374 262.15277 34.409374 262.6684Q33.8 263.1684 32.846874 263.1684Q31.6125 263.1684 30.89375 262.27777Q30.05 261.21527 30.05 258.7934ZM31.128124 258.7934Q31.128124 260.90277 31.628124 261.6059Q32.128124 262.30902 32.846874 262.30902Q33.58125 262.30902 34.065624 261.6059Q34.565624 260.90277 34.565624 258.7934Q34.565624 256.6684 34.065624 255.9809Q33.58125 255.27777 32.83125 255.27777Q32.1125 255.27777 31.675 255.88715Q31.128124 256.6684 31.128124 258.7934ZM37.05 258.7934Q37.05 257.26215 37.3625 256.34027Q37.675 255.40277 38.284374 254.90277Q38.909374 254.40277 39.846874 254.40277Q40.534374 254.40277 41.05 254.68402Q41.58125 254.96527 41.925 255.49652Q42.26875 256.01215 42.45625 256.76215Q42.64375 257.51215 42.64375 258.7934Q42.64375 260.30902 42.33125 261.2309Q42.034374 262.15277 41.409374 262.6684Q40.8 263.1684 39.846874 263.1684Q38.6125 263.1684 37.89375 262.27777Q37.05 261.21527 37.05 258.7934ZM38.128124 258.7934Q38.128124 260.90277 38.628124 261.6059Q39.128124 262.30902 39.846874 262.30902Q40.58125 262.30902 41.065624 261.6059Q41.565624 260.90277 41.565624 258.7934Q41.565624 256.6684 41.065624 255.9809Q40.58125 255.27777 39.83125 255.27777Q39.1125 255.27777 38.675 255.88715Q38.128124 256.6684 38.128124 258.7934ZM44.05 258.7934Q44.05 257.26215 44.3625 256.34027Q44.675 255.40277 45.284374 254.90277Q45.909374 254.40277 46.846874 254.40277Q47.534374 254.40277 48.05 254.68402Q48.58125 254.96527 48.925 255.49652Q49.26875 256.01215 49.45625 256.76215Q49.64375 257.51215 49.64375 258.7934Q49.64375 260.30902 49.33125 261.2309Q49.034374 262.15277 48.409374 262.6684Q47.8 263.1684 46.846874 263.1684Q45.6125 263.1684 44.89375 262.27777Q44.05 261.21527 44.05 258.7934ZM45.128124 258.7934Q45.128124 260.90277 45.628124 261.6059Q46.128124 262.30902 46.846874 262.30902Q47.58125 262.30902 48.065624 261.6059Q48.565624 260.90277 48.565624 258.7934Q48.565624 256.6684 48.065624 255.9809Q47.58125 255.27777 46.83125 255.27777Q46.1125 255.27777 45.675 255.88715Q45.128124 256.6684 45.128124 258.7934ZM51.05 258.7934Q51.05 257.26215 51.3625 256.34027Q51.675 255.40277 52.284374 254.90277Q52.909374 254.40277 53.846874 254.40277Q54.534374 254.40277 55.05 254.68402Q55.58125 254.96527 55.925 255.49652Q56.26875 256.01215 56.45625 256.76215Q56.64375 257.51215 56.64375 258.7934Q56.64375 260.30902 56.33125 261.2309Q56.034374 262.15277 55.409374 262.6684Q54.8 263.1684 53.846874 263.1684Q52.6125 263.1684 51.89375 262.27777Q51.05 261.21527 51.05 258.7934ZM52.128124 258.7934Q52.128124 260.90277 52.628124 261.6059Q53.128124 262.30902 53.846874 262.30902Q54.58125 262.30902 55.065624 261.6059Q55.565624 260.90277 55.565624 258.7934Q55.565624 256.6684 55.065624 255.9809Q54.58125 255.27777 53.83125 255.27777Q53.1125 255.27777 52.675 255.88715Q52.128124 256.6684 52.128124 258.7934Z" fill-rule="nonzero"/><path fill="#000000" d="M18.925 219.02744L18.925 217.96494L22.175 217.96494L22.175 219.02744L18.925 219.02744ZM28.596874 220.58994L28.596874 221.60556L22.909374 221.60556Q22.909374 221.23056 23.034374 220.87119Q23.253124 220.29306 23.721874 219.73056Q24.20625 219.16806 25.1125 218.43369Q26.51875 217.27744 27.003124 216.60556Q27.503124 215.93369 27.503124 215.33994Q27.503124 214.71494 27.05 214.29306Q26.596874 213.85556 25.878124 213.85556Q25.1125 213.85556 24.659374 214.30869Q24.20625 214.76181 24.190624 215.57431L23.1125 215.46494Q23.221874 214.24619 23.940624 213.62119Q24.675 212.98056 25.909374 212.98056Q27.14375 212.98056 27.8625 213.66806Q28.58125 214.35556 28.58125 215.37119Q28.58125 215.88681 28.3625 216.38681Q28.159374 216.87119 27.659374 217.43369Q27.175 217.98056 26.05 218.93369Q25.096874 219.73056 24.815624 220.02744Q24.55 220.30869 24.378124 220.58994L28.596874 220.58994ZM30.05 217.37119Q30.05 215.83994 30.3625 214.91806Q30.675 213.98056 31.284374 213.48056Q31.909374 212.98056 32.846874 212.98056Q33.534374 212.98056 34.05 213.26181Q34.58125 213.54306 34.925 214.07431Q35.26875 214.58994 35.45625 215.33994Q35.64375 216.08994 35.64375 217.37119Q35.64375 218.88681 35.33125 219.80869Q35.034374 220.73056 34.409374 221.24619Q33.8 221.74619 32.846874 221.74619Q31.6125 221.74619 30.89375 220.85556Q30.05 219.79306 30.05 217.37119ZM31.128124 217.37119Q31.128124 219.48056 31.628124 220.18369Q32.128124 220.88681 32.846874 220.88681Q33.58125 220.88681 34.065624 220.18369Q34.565624 219.48056 34.565624 217.37119Q34.565624 215.24619 34.065624 214.55869Q33.58125 213.85556 32.83125 213.85556Q32.1125 213.85556 31.675 214.46494Q31.128124 215.24619 31.128124 217.37119ZM37.05 217.37119Q37.05 215.83994 37.3625 214.91806Q37.675 213.98056 38.284374 213.48056Q38.909374 212.98056 39.846874 212.98056Q40.534374 212.98056 41.05 213.26181Q41.58125 213.54306 41.925 214.07431Q42.26875 214.58994 42.45625 215.33994Q42.64375 216.08994 42.64375 217.37119Q42.64375 218.88681 42.33125 219.80869Q42.034374 220.73056 41.409374 221.24619Q40.8 221.74619 39.846874 221.74619Q38.6125 221.74619 37.89375 220.85556Q37.05 219.79306 37.05 217.37119ZM38.128124 217.37119Q38.128124 219.48056 38.628124 220.18369Q39.128124 220.88681 39.846874 220.88681Q40.58125 220.88681 41.065624 220.18369Q41.565624 219.48056 41.565624 217.37119Q41.565624 215.24619 41.065624 214.55869Q40.58125 213.85556 39.83125 213.85556Q39.1125 213.85556 38.675 214.46494Q38.128124 215.24619 38.128124 217.37119ZM44.05 217.37119Q44.05 215.83994 44.3625 214.91806Q44.675 213.98056 45.284374 213.48056Q45.909374 212.98056 46.846874 212.98056Q47.534374 212.98056 48.05 213.26181Q48.58125 213.54306 48.925 214.07431Q49.26875 214.58994 49.45625 215.33994Q49.64375 216.08994 49.64375 217.37119Q49.64375 218.88681 49.33125 219.80869Q49.034374 220.73056 48.409374 221.24619Q47.8 221.74619 46.846874 221.74619Q45.6125 221.74619 44.89375 220.85556Q44.05 219.79306 44.05 217.37119ZM45.128124 217.37119Q45.128124 219.48056 45.628124 220.18369Q46.128124 220.88681 46.846874 220.88681Q47.58125 220.88681 48.065624 220.18369Q48.565624 219.48056 48.565624 217.37119Q48.565624 215.24619 48.065624 214.55869Q47.58125 213.85556 46.83125 213.85556Q46.1125 213.85556 45.675 214.46494Q45.128124 215.24619 45.128124 217.37119ZM51.05 217.37119Q51.05 215.83994 51.3625 214.91806Q51.675 213.98056 52.284374 213.48056Q52.909374 212.98056 53.846874 212.98056Q54.534374 212.98056 55.05 213.26181Q55.58125 213.54306 55.925 214.07431Q56.26875 214.58994 56.45625 215.33994Q56.64375 216.08994 56.64375 217.37119Q56.64375 218.88681 56.33125 219.80869Q56.034374 220.73056 55.409374 221.24619Q54.8 221.74619 53.846874 221.74619Q52.6125 221.74619 51.89375 220.85556Q51.05 219.79306 51.05 217.37119ZM52.128124 217.37119Q52.128124 219.48056 52.628124 220.18369Q53.128124 220.88681 53.846874 220.88681Q54.58125 220.88681 55.065624 220.18369Q55.565624 219.48056 55.565624 217.37119Q55.565624 215.24619 55.065624 214.55869Q54.58125 213.85556 53.83125 213.85556Q53.1125 213.85556 52.675 214.46494Q52.128124 215.24619 52.128124 217.37119Z" fill-rule="nonzero"/><path fill="#000000" d="M51.05 175.94896Q51.05 174.41771 51.3625 173.49583Q51.675 172.55833 52.284374 172.05833Q52.909374 171.55833 53.846874 171.55833Q54.534374 171.55833 55.05 171.83958Q55.58125 172.12083 55.925 172.65208Q56.26875 173.16771 56.45625 173.91771Q56.64375 174.66771 56.64375 175.94896Q56.64375 177.46458 56.33125 178.38646Q56.034374 179.30833 55.409374 179.82396Q54.8 180.32396 53.846874 180.32396Q52.6125 180.32396 51.89375 179.43333Q51.05 178.37083 51.05 175.94896ZM52.128124 175.94896Q52.128124 178.05833 52.628124 178.76146Q53.128124 179.46458 53.846874 179.46458Q54.58125 179.46458 55.065624 178.76146Q55.565624 178.05833 55.565624 175.94896Q55.565624 173.82396 55.065624 173.13646Q54.58125 172.43333 53.83125 172.43333Q53.1125 172.43333 52.675 173.04271Q52.128124 173.82396 52.128124 175.94896Z" fill-rule="nonzero"/><path fill="#000000" d="M28.596874 137.74548L28.596874 138.76111L22.909374 138.76111Q22.909374 138.38611 23.034374 138.02673Q23.253124 137.44861 23.721874 136.88611Q24.20625 136.32361 25.1125 135.58923Q26.51875 134.43298 27.003124 133.76111Q27.503124 133.08923 27.503124 132.49548Q27.503124 131.87048 27.05 131.44861Q26.596874 131.01111 25.878124 131.01111Q25.1125 131.01111 24.659374 131.46423Q24.20625 131.91736 24.190624 132.72986L23.1125 132.62048Q23.221874 131.40173 23.940624 130.77673Q24.675 130.13611 25.909374 130.13611Q27.14375 130.13611 27.8625 130.82361Q28.58125 131.51111 28.58125 132.52673Q28.58125 133.04236 28.3625 133.54236Q28.159374 134.02673 27.659374 134.58923Q27.175 135.13611 26.05 136.08923Q25.096874 136.88611 24.815624 137.18298Q24.55 137.46423 24.378124 137.74548L28.596874 137.74548ZM30.05 134.52673Q30.05 132.99548 30.3625 132.07361Q30.675 131.13611 31.284374 130.63611Q31.909374 130.13611 32.846874 130.13611Q33.534374 130.13611 34.05 130.41736Q34.58125 130.69861 34.925 131.22986Q35.26875 131.74548 35.45625 132.49548Q35.64375 133.24548 35.64375 134.52673Q35.64375 136.04236 35.33125 136.96423Q35.034374 137.88611 34.409374 138.40173Q33.8 138.90173 32.846874 138.90173Q31.6125 138.90173 30.89375 138.01111Q30.05 136.94861 30.05 134.52673ZM31.128124 134.52673Q31.128124 136.63611 31.628124 137.33923Q32.128124 138.04236 32.846874 138.04236Q33.58125 138.04236 34.065624 137.33923Q34.565624 136.63611 34.565624 134.52673Q34.565624 132.40173 34.065624 131.71423Q33.58125 131.01111 32.83125 131.01111Q32.1125 131.01111 31.675 131.62048Q31.128124 132.40173 31.128124 134.52673ZM37.05 134.52673Q37.05 132.99548 37.3625 132.07361Q37.675 131.13611 38.284374 130.63611Q38.909374 130.13611 39.846874 130.13611Q40.534374 130.13611 41.05 130.41736Q41.58125 130.69861 41.925 131.22986Q42.26875 131.74548 42.45625 132.49548Q42.64375 133.24548 42.64375 134.52673Q42.64375 136.04236 42.33125 136.96423Q42.034374 137.88611 41.409374 138.40173Q40.8 138.90173 39.846874 138.90173Q38.6125 138.90173 37.89375 138.01111Q37.05 136.94861 37.05 134.52673ZM38.128124 134.52673Q38.128124 136.63611 38.628124 137.33923Q39.128124 138.04236 39.846874 138.04236Q40.58125 138.04236 41.065624 137.33923Q41.565624 136.63611 41.565624 134.52673Q41.565624 132.40173 41.065624 131.71423Q40.58125 131.01111 39.83125 131.01111Q39.1125 131.01111 38.675 131.62048Q38.128124 132.40173 38.128124 134.52673ZM44.05 134.52673Q44.05 132.99548 44.3625 132.07361Q44.675 131.13611 45.284374 130.63611Q45.909374 130.13611 46.846874 130.13611Q47.534374 130.13611 48.05 130.41736Q48.58125 130.69861 48.925 131.22986Q49.26875 131.74548 49.45625 132.49548Q49.64375 133.24548 49.64375 134.52673Q49.64375 136.04236 49.33125 136.96423Q49.034374 137.88611 48.409374 138.40173Q47.8 138.90173 46.846874 138.90173Q45.6125 138.90173 44.89375 138.01111Q44.05 136.94861 44.05 134.52673ZM45.128124 134.52673Q45.128124 136.63611 45.628124 137.33923Q46.128124 138.04236 46.846874 138.04236Q47.58125 138.04236 48.065624 137.33923Q48.565624 136.63611 48.565624 134.52673Q48.565624 132.40173 48.065624 131.71423Q47.58125 131.01111 46.83125 131.01111Q46.1125 131.01111 45.675 131.62048Q45.128124 132.40173 45.128124 134.52673ZM51.05 134.52673Q51.05 132.99548 51.3625 132.07361Q51.675 131.13611 52.284374 130.63611Q52.909374 130.13611 53.846874 130.13611Q54.534374 130.13611 55.05 130.41736Q55.58125 130.69861 55.925 131.22986Q56.26875 131.74548 56.45625 132.49548Q56.64375 133.24548 56.64375 134.52673Q56.64375 136.04236 56.33125 136.96423Q56.034374 137.88611 55.409374 138.40173Q54.8 138.90173 53.846874 138.90173Q52.6125 138.90173 51.89375 138.01111Q51.05 136.94861 51.05 134.52673ZM52.128124 134.52673Q52.128124 136.63611 52.628124 137.33923Q53.128124 138.04236 53.846874 138.04236Q54.58125 138.04236 55.065624 137.33923Q55.565624 136.63611 55.565624 134.52673Q55.565624 132.40173 55.065624 131.71423Q54.58125 131.01111 53.83125 131.01111Q53.1125 131.01111 52.675 131.62048Q52.128124 132.40173 52.128124 134.52673Z" fill-rule="nonzero"/><path fill="#000000" d="M26.425 97.33889L26.425 95.27639L22.70625 95.27639L22.70625 94.30764L26.628124 88.74514L27.4875 88.74514L27.4875 94.30764L28.64375 94.30764L28.64375 95.27639L27.4875 95.27639L27.4875 97.33889L26.425 97.33889ZM26.425 94.30764L26.425 90.448265L23.7375 94.30764L26.425 94.30764ZM30.05 93.104515Q30.05 91.573265 30.3625 90.65139Q30.675 89.71389 31.284374 89.21389Q31.909374 88.71389 32.846874 88.71389Q33.534374 88.71389 34.05 88.99514Q34.58125 89.27639 34.925 89.80764Q35.26875 90.323265 35.45625 91.073265Q35.64375 91.823265 35.64375 93.104515Q35.64375 94.62014 35.33125 95.542015Q35.034374 96.46389 34.409374 96.979515Q33.8 97.479515 32.846874 97.479515Q31.6125 97.479515 30.89375 96.58889Q30.05 95.52639 30.05 93.104515ZM31.128124 93.104515Q31.128124 95.21389 31.628124 95.917015Q32.128124 96.62014 32.846874 96.62014Q33.58125 96.62014 34.065624 95.917015Q34.565624 95.21389 34.565624 93.104515Q34.565624 90.979515 34.065624 90.292015Q33.58125 89.58889 32.83125 89.58889Q32.1125 89.58889 31.675 90.198265Q31.128124 90.979515 31.128124 93.104515ZM37.05 93.104515Q37.05 91.573265 37.3625 90.65139Q37.675 89.71389 38.284374 89.21389Q38.909374 88.71389 39.846874 88.71389Q40.534374 88.71389 41.05 88.99514Q41.58125 89.27639 41.925 89.80764Q42.26875 90.323265 42.45625 91.073265Q42.64375 91.823265 42.64375 93.104515Q42.64375 94.62014 42.33125 95.542015Q42.034374 96.46389 41.409374 96.979515Q40.8 97.479515 39.846874 97.479515Q38.6125 97.479515 37.89375 96.58889Q37.05 95.52639 37.05 93.104515ZM38.128124 93.104515Q38.128124 95.21389 38.628124 95.917015Q39.128124 96.62014 39.846874 96.62014Q40.58125 96.62014 41.065624 95.917015Q41.565624 95.21389 41.565624 93.104515Q41.565624 90.979515 41.065624 90.292015Q40.58125 89.58889 39.83125 89.58889Q39.1125 89.58889 38.675 90.198265Q38.128124 90.979515 38.128124 93.104515ZM44.05 93.104515Q44.05 91.573265 44.3625 90.65139Q44.675 89.71389 45.284374 89.21389Q45.909374 88.71389 46.846874 88.71389Q47.534374 88.71389 48.05 88.99514Q48.58125 89.27639 48.925 89.80764Q49.26875 90.323265 49.45625 91.073265Q49.64375 91.823265 49.64375 93.104515Q49.64375 94.62014 49.33125 95.542015Q49.034374 96.46389 48.409374 96.979515Q47.8 97.479515 46.846874 97.479515Q45.6125 97.479515 44.89375 96.58889Q44.05 95.52639 44.05 93.104515ZM45.128124 93.104515Q45.128124 95.21389 45.628124 95.917015Q46.128124 96.62014 46.846874 96.62014Q47.58125 96.62014 48.065624 95.917015Q48.565624 95.21389 48.565624 93.104515Q48.565624 90.979515 48.065624 90.292015Q47.58125 89.58889 46.83125 89.58889Q46.1125 89.58889 45.675 90.198265Q45.128124 90.979515 45.128124 93.104515ZM51.05 93.104515Q51.05 91.573265 51.3625 90.65139Q51.675 89.71389 52.284374 89.21389Q52.909374 88.71389 53.846874 88.71389Q54.534374 88.71389 55.05 88.99514Q55.58125 89.27639 55.925 89.80764Q56.26875 90.323265 56.45625 91.073265Q56.64375 91.823265 56.64375 93.104515Q56.64375 94.62014 56.33125 95.542015Q56.034374 96.46389 55.409374 96.979515Q54.8 97.479515 53.846874 97.479515Q52.6125 97.479515 51.89375 96.58889Q51.05 95.52639 51.05 93.104515ZM52.128124 93.104515Q52.128124 95.21389 52.628124 95.917015Q53.128124 96.62014 53.846874 96.62014Q54.58125 96.62014 55.065624 95.917015Q55.565624 95.21389 55.565624 93.104515Q55.565624 90.979515 55.065624 90.292015Q54.58125 89.58889 53.83125 89.58889Q53.1125 89.58889 52.675 90.198265Q52.128124 90.979515 52.128124 93.104515Z" fill-rule="nonzero"/><path fill="#000000" d="M28.51875 49.432293L27.471874 49.510418Q27.33125 48.885418 27.08125 48.604168Q26.64375 48.151043 26.01875 48.151043Q25.51875 48.151043 25.128124 48.432293Q24.64375 48.807293 24.346874 49.510418Q24.065624 50.197918 24.05 51.479168Q24.425 50.901043 24.971874 50.619793Q25.534374 50.338543 26.14375 50.338543Q27.190624 50.338543 27.925 51.119793Q28.675 51.901043 28.675 53.119793Q28.675 53.932293 28.315624 54.635418Q27.971874 55.322918 27.3625 55.697918Q26.753124 56.057293 25.9875 56.057293Q24.659374 56.057293 23.83125 55.088543Q23.003124 54.119793 23.003124 51.901043Q23.003124 49.401043 23.925 48.276043Q24.721874 47.291668 26.08125 47.291668Q27.096874 47.291668 27.7375 47.869793Q28.39375 48.432293 28.51875 49.432293ZM24.221874 53.135418Q24.221874 53.682293 24.440624 54.182293Q24.675 54.666668 25.08125 54.932293Q25.503124 55.197918 25.971874 55.197918Q26.628124 55.197918 27.1125 54.666668Q27.596874 54.119793 27.596874 53.197918Q27.596874 52.307293 27.1125 51.791668Q26.64375 51.276043 25.925 51.276043Q25.20625 51.276043 24.70625 51.791668Q24.221874 52.307293 24.221874 53.135418ZM30.05 51.682293Q30.05 50.151043 30.3625 49.229168Q30.675 48.291668 31.284374 47.791668Q31.909374 47.291668 32.846874 47.291668Q33.534374 47.291668 34.05 47.572918Q34.58125 47.854168 34.925 48.385418Q35.26875 48.901043 35.45625 49.651043Q35.64375 50.401043 35.64375 51.682293Q35.64375 53.197918 35.33125 54.119793Q35.034374 55.041668 34.409374 55.557293Q33.8 56.057293 32.846874 56.057293Q31.6125 56.057293 30.89375 55.166668Q30.05 54.104168 30.05 51.682293ZM31.128124 51.682293Q31.128124 53.791668 31.628124 54.494793Q32.128124 55.197918 32.846874 55.197918Q33.58125 55.197918 34.065624 54.494793Q34.565624 53.791668 34.565624 51.682293Q34.565624 49.557293 34.065624 48.869793Q33.58125 48.166668 32.83125 48.166668Q32.1125 48.166668 31.675 48.776043Q31.128124 49.557293 31.128124 51.682293ZM37.05 51.682293Q37.05 50.151043 37.3625 49.229168Q37.675 48.291668 38.284374 47.791668Q38.909374 47.291668 39.846874 47.291668Q40.534374 47.291668 41.05 47.572918Q41.58125 47.854168 41.925 48.385418Q42.26875 48.901043 42.45625 49.651043Q42.64375 50.401043 42.64375 51.682293Q42.64375 53.197918 42.33125 54.119793Q42.034374 55.041668 41.409374 55.557293Q40.8 56.057293 39.846874 56.057293Q38.6125 56.057293 37.89375 55.166668Q37.05 54.104168 37.05 51.682293ZM38.128124 51.682293Q38.128124 53.791668 38.628124 54.494793Q39.128124 55.197918 39.846874 55.197918Q40.58125 55.197918 41.065624 54.494793Q41.565624 53.791668 41.565624 51.682293Q41.565624 49.557293 41.065624 48.869793Q40.58125 48.166668 39.83125 48.166668Q39.1125 48.166668 38.675 48.776043Q38.128124 49.557293 38.128124 51.682293ZM44.05 51.682293Q44.05 50.151043 44.3625 49.229168Q44.675 48.291668 45.284374 47.791668Q45.909374 47.291668 46.846874 47.291668Q47.534374 47.291668 48.05 47.572918Q48.58125 47.854168 48.925 48.385418Q49.26875 48.901043 49.45625 49.651043Q49.64375 50.401043 49.64375 51.682293Q49.64375 53.197918 49.33125 54.119793Q49.034374 55.041668 48.409374 55.557293Q47.8 56.057293 46.846874 56.057293Q45.6125 56.057293 44.89375 55.166668Q44.05 54.104168 44.05 51.682293ZM45.128124 51.682293Q45.128124 53.791668 45.628124 54.494793Q46.128124 55.197918 46.846874 55.197918Q47.58125 55.197918 48.065624 54.494793Q48.565624 53.791668 48.565624 51.682293Q48.565624 49.557293 48.065624 48.869793Q47.58125 48.166668 46.83125 48.166668Q46.1125 48.166668 45.675 48.776043Q45.128124 49.557293 45.128124 51.682293ZM51.05 51.682293Q51.05 50.151043 51.3625 49.229168Q51.675 48.291668 52.284374 47.791668Q52.909374 47.291668 53.846874 47.291668Q54.534374 47.291668 55.05 47.572918Q55.58125 47.854168 55.925 48.385418Q56.26875 48.901043 56.45625 49.651043Q56.64375 50.401043 56.64375 51.682293Q56.64375 53.197918 56.33125 54.119793Q56.034374 55.041668 55.409374 55.557293Q54.8 56.057293 53.846874 56.057293Q52.6125 56.057293 51.89375 55.166668Q51.05 54.104168 51.05 51.682293ZM52.128124 51.682293Q52.128124 53.791668 52.628124 54.494793Q53.128124 55.197918 53.846874 55.197918Q54.58125 55.197918 55.065624 54.494793Q55.565624 53.791668 55.565624 51.682293Q55.565624 49.557293 55.065624 48.869793Q54.58125 48.166668 53.83125 48.166668Q53.1125 48.166668 52.675 48.776043Q52.128124 49.557293 52.128124 51.682293Z" fill-rule="nonzero"/><path fill="#000000" d="M86.097916 317.45L85.05104 317.45L85.05104 310.73126Q84.660416 311.09064 84.035416 311.46564Q83.42604 311.825 82.941666 311.9969L82.941666 310.98126Q83.816666 310.5594 84.472916 309.98126Q85.14479 309.3875 85.42604 308.825L86.097916 308.825L86.097916 317.45Z" fill-rule="nonzero"/><path fill="#000000" d="M130.83438 316.4344L130.83438 317.45L125.14687 317.45Q125.14687 317.075 125.27187 316.71564Q125.49062 316.1375 125.95937 315.575Q126.44375 315.0125 127.35 314.27814Q128.75626 313.1219 129.24063 312.45Q129.74063 311.77814 129.74063 311.1844Q129.74063 310.5594 129.2875 310.1375Q128.83438 309.7 128.11563 309.7Q127.35 309.7 126.89687 310.15314Q126.44375 310.60626 126.42812 311.41876L125.35 311.3094Q125.45937 310.09064 126.17812 309.46564Q126.9125 308.825 128.14688 308.825Q129.38126 308.825 130.1 309.5125Q130.81876 310.2 130.81876 311.21564Q130.81876 311.73126 130.6 312.23126Q130.39688 312.71564 129.89688 313.27814Q129.4125 313.825 128.2875 314.77814Q127.33437 315.575 127.05312 315.8719Q126.7875 316.15314 126.61562 316.4344L130.83438 316.4344Z" fill-rule="nonzero"/><path fill="#000000" d="M168.44583 315.1844L169.50833 315.04376Q169.6802 315.9344 170.1177 316.34064Q170.5552 316.73126 171.1802 316.73126Q171.9302 316.73126 172.44583 316.21564Q172.96146 315.7 172.96146 314.9344Q172.96146 314.21564 172.47708 313.7469Q172.00833 313.2625 171.27396 313.2625Q170.97708 313.2625 170.52396 313.3875L170.64896 312.45Q170.75833 312.46564 170.82083 312.46564Q171.4927 312.46564 172.02396 312.1219Q172.57083 311.7625 172.57083 311.02814Q172.57083 310.45 172.1802 310.075Q171.78958 309.6844 171.16458 309.6844Q170.5552 309.6844 170.13333 310.075Q169.72708 310.46564 169.6177 311.23126L168.5552 311.04376Q168.7427 309.9969 169.4302 309.41876Q170.1177 308.825 171.13333 308.825Q171.83646 308.825 172.4302 309.1375Q173.02396 309.4344 173.33646 309.95Q173.64896 310.46564 173.64896 311.0594Q173.64896 311.60626 173.35208 312.075Q173.0552 312.52814 172.47708 312.79376Q173.22708 312.96564 173.64896 313.52814Q174.07083 314.075 174.07083 314.91876Q174.07083 316.04376 173.2427 316.825Q172.4302 317.60626 171.1802 317.60626Q170.0552 317.60626 169.3052 316.9344Q168.5552 316.2469 168.44583 315.1844Z" fill-rule="nonzero"/><path fill="#000000" d="M214.97917 317.45L214.97917 315.3875L211.26042 315.3875L211.26042 314.41876L215.1823 308.85626L216.04167 308.85626L216.04167 314.41876L217.19792 314.41876L217.19792 315.3875L216.04167 315.3875L216.04167 317.45L214.97917 317.45ZM214.97917 314.41876L214.97917 310.5594L212.29167 314.41876L214.97917 314.41876Z" fill-rule="nonzero"/><path fill="#000000" d="M254.7625 315.2L255.87187 315.10626Q255.99687 315.91876 256.4344 316.325Q256.8875 316.73126 257.52814 316.73126Q258.27814 316.73126 258.8094 316.15314Q259.34064 315.575 259.34064 314.6375Q259.34064 313.73126 258.825 313.21564Q258.325 312.6844 257.4969 312.6844Q256.9969 312.6844 256.575 312.91876Q256.16876 313.15314 255.93437 313.5125L254.95 313.3875L255.77812 308.98126L260.0594 308.98126L260.0594 309.98126L256.6219 309.98126L256.16876 312.29376Q256.9344 311.7469 257.77814 311.7469Q258.90314 311.7469 259.66876 312.52814Q260.45 313.3094 260.45 314.54376Q260.45 315.7 259.77814 316.5594Q258.95 317.59064 257.52814 317.59064Q256.35626 317.59064 255.60625 316.9344Q254.87187 316.27814 254.7625 315.2Z" fill-rule="nonzero"/><path fill="#000000" d="M303.3896 310.96564L302.3427 311.04376Q302.2021 310.41876 301.9521 310.1375Q301.5146 309.6844 300.8896 309.6844Q300.3896 309.6844 299.99896 309.96564Q299.5146 310.34064 299.2177 311.04376Q298.93646 311.73126 298.92084 313.0125Q299.29584 312.4344 299.8427 312.15314Q300.4052 311.8719 301.0146 311.8719Q302.06146 311.8719 302.79584 312.65314Q303.54584 313.4344 303.54584 314.65314Q303.54584 315.46564 303.18646 316.16876Q302.8427 316.85626 302.23334 317.23126Q301.62396 317.59064 300.85834 317.59064Q299.5302 317.59064 298.7021 316.6219Q297.87396 315.65314 297.87396 313.4344Q297.87396 310.9344 298.79584 309.8094Q299.5927 308.825 300.9521 308.825Q301.9677 308.825 302.60834 309.40314Q303.2646 309.96564 303.3896 310.96564ZM299.0927 314.66876Q299.0927 315.21564 299.31146 315.71564Q299.54584 316.2 299.9521 316.46564Q300.37396 316.73126 300.8427 316.73126Q301.49896 316.73126 301.98334 316.2Q302.4677 315.65314 302.4677 314.73126Q302.4677 313.84064 301.98334 313.325Q301.5146 312.8094 300.79584 312.8094Q300.0771 312.8094 299.5771 313.325Q299.0927 313.84064 299.0927 314.66876Z" fill-rule="nonzero"/><path fill="#000000" d="M341.14166 309.98126L341.14166 308.96564L346.70416 308.96564L346.70416 309.79376Q345.89166 310.66876 345.07916 312.1219Q344.2823 313.5594 343.8448 315.09064Q343.51666 316.16876 343.43854 317.45L342.3448 317.45Q342.3604 316.4344 342.7354 314.9969Q343.12604 313.5594 343.82916 312.23126Q344.5479 310.90314 345.3604 309.98126L341.14166 309.98126Z" fill-rule="nonzero"/><path fill="#000000" d="M385.8625 312.79376Q385.20624 312.54376 384.8781 312.10626Q384.5656 311.65314 384.5656 311.04376Q384.5656 310.10626 385.2375 309.46564Q385.925 308.825 387.03436 308.825Q388.15936 308.825 388.84686 309.48126Q389.53436 310.1375 389.53436 311.075Q389.53436 311.66876 389.22186 312.10626Q388.90936 312.54376 388.26874 312.79376Q389.0656 313.04376 389.47186 313.6219Q389.8781 314.2 389.8781 314.9969Q389.8781 316.09064 389.09686 316.84064Q388.33124 317.59064 387.05 317.59064Q385.78436 317.59064 385.0031 316.84064Q384.22186 316.09064 384.22186 314.96564Q384.22186 314.1219 384.64374 313.5594Q385.08124 312.9969 385.8625 312.79376ZM385.64374 310.9969Q385.64374 311.60626 386.03436 311.9969Q386.4406 312.3875 387.0656 312.3875Q387.675 312.3875 388.0656 312.0125Q388.45624 311.6219 388.45624 311.0594Q388.45624 310.48126 388.05 310.09064Q387.64374 309.6844 387.05 309.6844Q386.4406 309.6844 386.03436 310.075Q385.64374 310.46564 385.64374 310.9969ZM385.3156 314.96564Q385.3156 315.41876 385.51874 315.84064Q385.7375 316.2625 386.15936 316.4969Q386.58124 316.73126 387.0656 316.73126Q387.8156 316.73126 388.3 316.2469Q388.8 315.7625 388.8 315.0125Q388.8 314.2469 388.3 313.7469Q387.8 313.2469 387.03436 313.2469Q386.28436 313.2469 385.8 313.7469Q385.3156 314.23126 385.3156 314.96564Z" fill-rule="nonzero"/><path fill="#000000" d="M427.5521 315.46564L428.56772 315.3719Q428.69272 316.09064 429.0521 316.41876Q429.4271 316.73126 429.9896 316.73126Q430.47397 316.73126 430.83334 316.5125Q431.20834 316.27814 431.44272 315.91876Q431.6771 315.54376 431.83334 314.91876Q431.9896 314.27814 431.9896 313.6219Q431.9896 313.54376 431.9896 313.40314Q431.6771 313.90314 431.13022 314.23126Q430.58334 314.54376 429.94272 314.54376Q428.8646 314.54376 428.13022 313.77814Q427.39584 312.9969 427.39584 311.73126Q427.39584 310.41876 428.16147 309.6219Q428.94272 308.825 430.09897 308.825Q430.9271 308.825 431.6146 309.27814Q432.31772 309.73126 432.6771 310.575Q433.03647 311.40314 433.03647 312.98126Q433.03647 314.6219 432.6771 315.60626Q432.33334 316.575 431.6146 317.09064Q430.91147 317.59064 429.97397 317.59064Q428.95834 317.59064 428.31772 317.04376Q427.6771 316.48126 427.5521 315.46564ZM431.8646 311.66876Q431.8646 310.7625 431.38022 310.23126Q430.91147 309.7 430.22397 309.7Q429.52084 309.7 428.9896 310.27814Q428.47397 310.84064 428.47397 311.7625Q428.47397 312.575 428.97397 313.09064Q429.47397 313.60626 430.19272 313.60626Q430.9271 313.60626 431.39584 313.09064Q431.8646 312.575 431.8646 311.66876Z" fill-rule="nonzero"/><path fill="#000000" d="M471.02292 317.45L469.97604 317.45L469.97604 310.73126Q469.58542 311.09064 468.96042 311.46564Q468.35104 311.825 467.86667 311.9969L467.86667 310.98126Q468.74167 310.5594 469.39792 309.98126Q470.0698 309.3875 470.35104 308.825L471.02292 308.825L471.02292 317.45ZM474.05417 313.21564Q474.05417 311.6844 474.36667 310.7625Q474.67917 309.825 475.28854 309.325Q475.91354 308.825 476.85104 308.825Q477.53854 308.825 478.05417 309.10626Q478.58542 309.3875 478.92917 309.91876Q479.27292 310.4344 479.46042 311.1844Q479.64792 311.9344 479.64792 313.21564Q479.64792 314.73126 479.33542 315.65314Q479.03854 316.575 478.41354 317.09064Q477.80417 317.59064 476.85104 317.59064Q475.61667 317.59064 474.89792 316.7Q474.05417 315.6375 474.05417 313.21564ZM475.1323 313.21564Q475.1323 315.325 475.6323 316.02814Q476.1323 316.73126 476.85104 316.73126Q477.58542 316.73126 478.0698 316.02814Q478.5698 315.325 478.5698 313.21564Q478.5698 311.09064 478.0698 310.40314Q477.58542 309.7 476.83542 309.7Q476.11667 309.7 475.67917 310.3094Q475.1323 311.09064 475.1323 313.21564Z" fill-rule="nonzero"/><path fill="#000000" d="M514.1813 317.45L513.1344 317.45L513.1344 310.73126Q512.7438 311.09064 512.1188 311.46564Q511.50937 311.825 511.025 311.9969L511.025 310.98126Q511.9 310.5594 512.5563 309.98126Q513.22815 309.3875 513.5094 308.825L514.1813 308.825L514.1813 317.45ZM521.1813 317.45L520.1344 317.45L520.1344 310.73126Q519.7438 311.09064 519.1188 311.46564Q518.5094 311.825 518.025 311.9969L518.025 310.98126Q518.9 310.5594 519.5563 309.98126Q520.22815 309.3875 520.5094 308.825L521.1813 308.825L521.1813 317.45Z" fill-rule="nonzero"/><path fill="#000000" d="M557.3396 317.45L556.2927 317.45L556.2927 310.73126Q555.9021 311.09064 555.2771 311.46564Q554.6677 311.825 554.18335 311.9969L554.18335 310.98126Q555.05835 310.5594 555.7146 309.98126Q556.3865 309.3875 556.6677 308.825L557.3396 308.825L557.3396 317.45ZM565.9177 316.4344L565.9177 317.45L560.2302 317.45Q560.2302 317.075 560.3552 316.71564Q560.574 316.1375 561.0427 315.575Q561.5271 315.0125 562.43335 314.27814Q563.8396 313.1219 564.324 312.45Q564.824 311.77814 564.824 311.1844Q564.824 310.5594 564.37085 310.1375Q563.9177 309.7 563.199 309.7Q562.43335 309.7 561.9802 310.15314Q561.5271 310.60626 561.5115 311.41876L560.43335 311.3094Q560.5427 310.09064 561.2615 309.46564Q561.99585 308.825 563.2302 308.825Q564.4646 308.825 565.18335 309.5125Q565.9021 310.2 565.9021 311.21564Q565.9021 311.73126 565.68335 312.23126Q565.4802 312.71564 564.9802 313.27814Q564.49585 313.825 563.37085 314.77814Q562.4177 315.575 562.1365 315.8719Q561.87085 316.15314 561.699 316.4344L565.9177 316.4344Z" fill-rule="nonzero"/><path stroke="#ff0000" stroke-width="4.0" stroke-linecap="butt" stroke-dasharray="4.0,5.0" d="M181.5 25.55L194.5 25.55" fill-rule="nonzero"/><path fill="#1a1a1a" d="M209.5625 26.534374L210.6875 26.83125Q210.32812 28.221874 209.40625 28.95625Q208.48438 29.690624 207.14062 29.690624Q205.75 29.690624 204.875 29.128124Q204.0 28.565624 203.54688 27.503124Q203.09375 26.425 203.09375 25.190624Q203.09375 23.846874 203.60938 22.846874Q204.125 21.846874 205.0625 21.33125Q206.01562 20.815624 207.15625 20.815624Q208.4375 20.815624 209.3125 21.471874Q210.20312 22.128124 210.54688 23.315624L209.42188 23.58125Q209.125 22.64375 208.54688 22.221874Q207.98438 21.784374 207.125 21.784374Q206.14062 21.784374 205.46875 22.26875Q204.8125 22.7375 204.53125 23.534374Q204.26562 24.33125 204.26562 25.190624Q204.26562 26.284374 204.57812 27.096874Q204.90625 27.909374 205.57812 28.315624Q206.25 28.721874 207.04688 28.721874Q208.0 28.721874 208.65625 28.175Q209.32812 27.628124 209.5625 26.534374ZM216.35938 28.784374Q215.76562 29.284374 215.21875 29.4875Q214.6875 29.690624 214.0625 29.690624Q213.03125 29.690624 212.48438 29.190624Q211.9375 28.690624 211.9375 27.909374Q211.9375 27.45625 212.14062 27.08125Q212.34375 26.690624 212.6875 26.471874Q213.03125 26.2375 213.45312 26.128124Q213.75 26.034374 214.39062 25.95625Q215.65625 25.815624 216.26562 25.596874Q216.26562 25.378124 216.26562 25.33125Q216.26562 24.675 215.96875 24.409374Q215.5625 24.065624 214.76562 24.065624Q214.03125 24.065624 213.67188 24.33125Q213.3125 24.58125 213.14062 25.2375L212.10938 25.096874Q212.25 24.440624 212.57812 24.034374Q212.90625 23.628124 213.51562 23.409374Q214.125 23.190624 214.92188 23.190624Q215.71875 23.190624 216.21875 23.378124Q216.71875 23.565624 216.95312 23.846874Q217.1875 24.128124 217.28125 24.565624Q217.32812 24.83125 217.32812 25.534374L217.32812 26.940624Q217.32812 28.409374 217.39062 28.8Q217.46875 29.190624 217.67188 29.55L216.5625 29.55Q216.40625 29.221874 216.35938 28.784374ZM216.26562 26.425Q215.6875 26.659374 214.54688 26.83125Q213.89062 26.925 213.625 27.05Q213.35938 27.159374 213.20312 27.378124Q213.0625 27.596874 213.0625 27.878124Q213.0625 28.3 213.375 28.58125Q213.70312 28.8625 214.3125 28.8625Q214.92188 28.8625 215.39062 28.596874Q215.875 28.33125 216.09375 27.8625Q216.26562 27.503124 216.26562 26.815624L216.26562 26.425ZM218.875 27.690624L219.90625 27.534374Q220.0 28.159374 220.39062 28.4875Q220.79688 28.815624 221.53125 28.815624Q222.25 28.815624 222.59375 28.534374Q222.95312 28.2375 222.95312 27.83125Q222.95312 27.471874 222.64062 27.26875Q222.42188 27.128124 221.5625 26.909374Q220.40625 26.6125 219.95312 26.409374Q219.51562 26.190624 219.28125 25.815624Q219.04688 25.440624 219.04688 24.971874Q219.04688 24.565624 219.23438 24.20625Q219.42188 23.846874 219.75 23.6125Q220.0 23.440624 220.42188 23.315624Q220.84375 23.190624 221.34375 23.190624Q222.0625 23.190624 222.60938 23.409374Q223.17188 23.6125 223.4375 23.971874Q223.70312 24.33125 223.79688 24.925L222.76562 25.065624Q222.70312 24.596874 222.35938 24.33125Q222.03125 24.05 221.40625 24.05Q220.6875 24.05 220.375 24.3Q220.0625 24.534374 220.0625 24.8625Q220.0625 25.065624 220.1875 25.221874Q220.32812 25.39375 220.59375 25.503124Q220.75 25.565624 221.53125 25.76875Q222.65625 26.08125 223.09375 26.26875Q223.53125 26.45625 223.78125 26.815624Q224.03125 27.175 224.03125 27.721874Q224.03125 28.253124 223.71875 28.721874Q223.42188 29.175 222.84375 29.440624Q222.26562 29.690624 221.53125 29.690624Q220.3125 29.690624 219.67188 29.190624Q219.04688 28.675 218.875 27.690624ZM226.29688 29.55L226.29688 20.95625L227.34375 20.95625L227.34375 24.034374Q228.07812 23.190624 229.20312 23.190624Q229.90625 23.190624 230.40625 23.471874Q230.92188 23.7375 231.14062 24.221874Q231.35938 24.690624 231.35938 25.6125L231.35938 29.55L230.3125 29.55L230.3125 25.6125Q230.3125 24.815624 229.96875 24.45625Q229.625 24.096874 229.0 24.096874Q228.53125 24.096874 228.10938 24.346874Q227.70312 24.58125 227.51562 25.003124Q227.34375 25.409374 227.34375 26.14375L227.34375 29.55L226.29688 29.55ZM233.54688 29.55L233.54688 24.14375L232.60938 24.14375L232.60938 23.33125L233.54688 23.33125L233.54688 22.659374Q233.54688 22.034374 233.65625 21.7375Q233.8125 21.315624 234.1875 21.065624Q234.57812 20.815624 235.26562 20.815624Q235.71875 20.815624 236.25 20.925L236.09375 21.83125Q235.76562 21.784374 235.46875 21.784374Q234.98438 21.784374 234.78125 21.9875Q234.59375 22.190624 234.59375 22.753124L234.59375 23.33125L235.8125 23.33125L235.8125 24.14375L234.59375 24.14375L234.59375 29.55L233.54688 29.55ZM236.26562 29.55L236.26562 20.95625L237.32812 20.95625L237.32812 29.55L236.26562 29.55ZM238.90625 26.440624Q238.90625 24.70625 239.85938 23.878124Q240.65625 23.190624 241.8125 23.190624Q243.09375 23.190624 243.90625 24.034374Q244.73438 24.8625 244.73438 26.346874Q244.73438 27.55 244.375 28.2375Q244.01562 28.925 243.3125 29.315624Q242.625 29.690624 241.8125 29.690624Q240.51562 29.690624 239.70312 28.8625Q238.90625 28.01875 238.90625 26.440624ZM239.98438 26.440624Q239.98438 27.628124 240.5 28.221874Q241.03125 28.815624 241.8125 28.815624Q242.60938 28.815624 243.125 28.221874Q243.64062 27.628124 243.64062 26.409374Q243.64062 25.253124 243.10938 24.659374Q242.59375 24.065624 241.8125 24.065624Q241.03125 24.065624 240.5 24.659374Q239.98438 25.2375 239.98438 26.440624ZM247.4375 29.55L245.53125 23.33125L246.625 23.33125L247.60938 26.925L247.98438 28.253124Q248.01562 28.159374 248.3125 26.971874L249.29688 23.33125L250.375 23.33125L251.3125 26.940624L251.625 28.128124L251.98438 26.925L253.04688 23.33125L254.07812 23.33125L252.125 29.55L251.03125 29.55L250.04688 25.815624L249.79688 24.76875L248.54688 29.55L247.4375 29.55ZM260.01562 29.55L257.65625 23.33125L258.76562 23.33125L260.10938 27.05Q260.3125 27.659374 260.5 28.3Q260.64062 27.815624 260.89062 27.128124L262.28125 23.33125L263.35938 23.33125L261.0 29.55L260.01562 29.55ZM266.96875 29.55L265.92188 29.55L265.92188 22.83125Q265.53125 23.190624 264.90625 23.565624Q264.29688 23.925 263.8125 24.096874L263.8125 23.08125Q264.6875 22.659374 265.34375 22.08125Q266.01562 21.4875 266.29688 20.925L266.96875 20.925L266.96875 29.55ZM276.96875 29.55L275.92188 29.55L275.92188 22.83125Q275.53125 23.190624 274.90625 23.565624Q274.29688 23.925 273.8125 24.096874L273.8125 23.08125Q274.6875 22.659374 275.34375 22.08125Q276.01562 21.4875 276.29688 20.925L276.96875 20.925L276.96875 29.55ZM280.0 25.315624Q280.0 23.784374 280.3125 22.8625Q280.625 21.925 281.23438 21.425Q281.85938 20.925 282.79688 20.925Q283.48438 20.925 284.0 21.20625Q284.53125 21.4875 284.875 22.01875Q285.21875 22.534374 285.40625 23.284374Q285.59375 24.034374 285.59375 25.315624Q285.59375 26.83125 285.28125 27.753124Q284.98438 28.675 284.35938 29.190624Q283.75 29.690624 282.79688 29.690624Q281.5625 29.690624 280.84375 28.8Q280.0 27.7375 280.0 25.315624ZM281.07812 25.315624Q281.07812 27.425 281.57812 28.128124Q282.07812 28.83125 282.79688 28.83125Q283.53125 28.83125 284.01562 28.128124Q284.51562 27.425 284.51562 25.315624Q284.51562 23.190624 284.01562 22.503124Q283.53125 21.8 282.78125 21.8Q282.0625 21.8 281.625 22.409374Q281.07812 23.190624 281.07812 25.315624ZM287.29688 29.55L287.29688 20.95625L288.35938 20.95625L288.35938 25.8625L290.84375 23.33125L292.21875 23.33125L289.82812 25.628124L292.45312 29.55L291.15625 29.55L289.09375 26.3625L288.35938 27.08125L288.35938 29.55L287.29688 29.55Z" fill-rule="nonzero"/><path stroke="#00ff00" stroke-width="4.0" stroke-linecap="butt" d="M308.5 25.55L320.5 25.55" fill-rule="nonzero"/><path fill="#1a1a1a" d="M335.5625 26.534374L336.6875 26.83125Q336.32812 28.221874 335.40625 28.95625Q334.48438 29.690624 333.14062 29.690624Q331.75 29.690624 330.875 29.128124Q330.0 28.565624 329.54688 27.503124Q329.09375 26.425 329.09375 25.190624Q329.09375 23.846874 329.60938 22.846874Q330.125 21.846874 331.0625 21.33125Q332.01562 20.815624 333.15625 20.815624Q334.4375 20.815624 335.3125 21.471874Q336.20312 22.128124 336.54688 23.315624L335.42188 23.58125Q335.125 22.64375 334.54688 22.221874Q333.98438 21.784374 333.125 21.784374Q332.14062 21.784374 331.46875 22.26875Q330.8125 22.7375 330.53125 23.534374Q330.26562 24.33125 330.26562 25.190624Q330.26562 26.284374 330.57812 27.096874Q330.90625 27.909374 331.57812 28.315624Q332.25 28.721874 333.04688 28.721874Q334.0 28.721874 334.65625 28.175Q335.32812 27.628124 335.5625 26.534374ZM342.35938 28.784374Q341.76562 29.284374 341.21875 29.4875Q340.6875 29.690624 340.0625 29.690624Q339.03125 29.690624 338.48438 29.190624Q337.9375 28.690624 337.9375 27.909374Q337.9375 27.45625 338.14062 27.08125Q338.34375 26.690624 338.6875 26.471874Q339.03125 26.2375 339.45312 26.128124Q339.75 26.034374 340.39062 25.95625Q341.65625 25.815624 342.26562 25.596874Q342.26562 25.378124 342.26562 25.33125Q342.26562 24.675 341.96875 24.409374Q341.5625 24.065624 340.76562 24.065624Q340.03125 24.065624 339.67188 24.33125Q339.3125 24.58125 339.14062 25.2375L338.10938 25.096874Q338.25 24.440624 338.57812 24.034374Q338.90625 23.628124 339.51562 23.409374Q340.125 23.190624 340.92188 23.190624Q341.71875 23.190624 342.21875 23.378124Q342.71875 23.565624 342.95312 23.846874Q343.1875 24.128124 343.28125 24.565624Q343.32812 24.83125 343.32812 25.534374L343.32812 26.940624Q343.32812 28.409374 343.39062 28.8Q343.46875 29.190624 343.67188 29.55L342.5625 29.55Q342.40625 29.221874 342.35938 28.784374ZM342.26562 26.425Q341.6875 26.659374 340.54688 26.83125Q339.89062 26.925 339.625 27.05Q339.35938 27.159374 339.20312 27.378124Q339.0625 27.596874 339.0625 27.878124Q339.0625 28.3 339.375 28.58125Q339.70312 28.8625 340.3125 28.8625Q340.92188 28.8625 341.39062 28.596874Q341.875 28.33125 342.09375 27.8625Q342.26562 27.503124 342.26562 26.815624L342.26562 26.425ZM344.875 27.690624L345.90625 27.534374Q346.0 28.159374 346.39062 28.4875Q346.79688 28.815624 347.53125 28.815624Q348.25 28.815624 348.59375 28.534374Q348.95312 28.2375 348.95312 27.83125Q348.95312 27.471874 348.64062 27.26875Q348.42188 27.128124 347.5625 26.909374Q346.40625 26.6125 345.95312 26.409374Q345.51562 26.190624 345.28125 25.815624Q345.04688 25.440624 345.04688 24.971874Q345.04688 24.565624 345.23438 24.20625Q345.42188 23.846874 345.75 23.6125Q346.0 23.440624 346.42188 23.315624Q346.84375 23.190624 347.34375 23.190624Q348.0625 23.190624 348.60938 23.409374Q349.17188 23.6125 349.4375 23.971874Q349.70312 24.33125 349.79688 24.925L348.76562 25.065624Q348.70312 24.596874 348.35938 24.33125Q348.03125 24.05 347.40625 24.05Q346.6875 24.05 346.375 24.3Q346.0625 24.534374 346.0625 24.8625Q346.0625 25.065624 346.1875 25.221874Q346.32812 25.39375 346.59375 25.503124Q346.75 25.565624 347.53125 25.76875Q348.65625 26.08125 349.09375 26.26875Q349.53125 26.45625 349.78125 26.815624Q350.03125 27.175 350.03125 27.721874Q350.03125 28.253124 349.71875 28.721874Q349.42188 29.175 348.84375 29.440624Q348.26562 29.690624 347.53125 29.690624Q346.3125 29.690624 345.67188 29.190624Q345.04688 28.675 344.875 27.690624ZM352.29688 29.55L352.29688 20.95625L353.34375 20.95625L353.34375 24.034374Q354.07812 23.190624 355.20312 23.190624Q355.90625 23.190624 356.40625 23.471874Q356.92188 23.7375 357.14062 24.221874Q357.35938 24.690624 357.35938 25.6125L357.35938 29.55L356.3125 29.55L356.3125 25.6125Q356.3125 24.815624 355.96875 24.45625Q355.625 24.096874 355.0 24.096874Q354.53125 24.096874 354.10938 24.346874Q353.70312 24.58125 353.51562 25.003124Q353.34375 25.409374 353.34375 26.14375L353.34375 29.55L352.29688 29.55ZM359.54688 29.55L359.54688 24.14375L358.60938 24.14375L358.60938 23.33125L359.54688 23.33125L359.54688 22.659374Q359.54688 22.034374 359.65625 21.7375Q359.8125 21.315624 360.1875 21.065624Q360.57812 20.815624 361.26562 20.815624Q361.71875 20.815624 362.25 20.925L362.09375 21.83125Q361.76562 21.784374 361.46875 21.784374Q360.98438 21.784374 360.78125 21.9875Q360.59375 22.190624 360.59375 22.753124L360.59375 23.33125L361.8125 23.33125L361.8125 24.14375L360.59375 24.14375L360.59375 29.55L359.54688 29.55ZM362.26562 29.55L362.26562 20.95625L363.32812 20.95625L363.32812 29.55L362.26562 29.55ZM364.90625 26.440624Q364.90625 24.70625 365.85938 23.878124Q366.65625 23.190624 367.8125 23.190624Q369.09375 23.190624 369.90625 24.034374Q370.73438 24.8625 370.73438 26.346874Q370.73438 27.55 370.375 28.2375Q370.01562 28.925 369.3125 29.315624Q368.625 29.690624 367.8125 29.690624Q366.51562 29.690624 365.70312 28.8625Q364.90625 28.01875 364.90625 26.440624ZM365.98438 26.440624Q365.98438 27.628124 366.5 28.221874Q367.03125 28.815624 367.8125 28.815624Q368.60938 28.815624 369.125 28.221874Q369.64062 27.628124 369.64062 26.409374Q369.64062 25.253124 369.10938 24.659374Q368.59375 24.065624 367.8125 24.065624Q367.03125 24.065624 366.5 24.659374Q365.98438 25.2375 365.98438 26.440624ZM373.4375 29.55L371.53125 23.33125L372.625 23.33125L373.60938 26.925L373.98438 28.253124Q374.01562 28.159374 374.3125 26.971874L375.29688 23.33125L376.375 23.33125L377.3125 26.940624L377.625 28.128124L377.98438 26.925L379.04688 23.33125L380.07812 23.33125L378.125 29.55L377.03125 29.55L376.04688 25.815624L375.79688 24.76875L374.54688 29.55L373.4375 29.55ZM386.01562 29.55L383.65625 23.33125L384.76562 23.33125L386.10938 27.05Q386.3125 27.659374 386.5 28.3Q386.64062 27.815624 386.89062 27.128124L388.28125 23.33125L389.35938 23.33125L387.0 29.55L386.01562 29.55ZM394.54688 28.534374L394.54688 29.55L388.85938 29.55Q388.85938 29.175 388.98438 28.815624Q389.20312 28.2375 389.67188 27.675Q390.15625 27.1125 391.0625 26.378124Q392.46875 25.221874 392.95312 24.55Q393.45312 23.878124 393.45312 23.284374Q393.45312 22.659374 393.0 22.2375Q392.54688 21.8 391.82812 21.8Q391.0625 21.8 390.60938 22.253124Q390.15625 22.70625 390.14062 23.51875L389.0625 23.409374Q389.17188 22.190624 389.89062 21.565624Q390.625 20.925 391.85938 20.925Q393.09375 20.925 393.8125 21.6125Q394.53125 22.3 394.53125 23.315624Q394.53125 23.83125 394.3125 24.33125Q394.10938 24.815624 393.60938 25.378124Q393.125 25.925 392.0 26.878124Q391.04688 27.675 390.76562 27.971874Q390.5 28.253124 390.32812 28.534374L394.54688 28.534374ZM399.0 27.284374L400.0625 27.14375Q400.23438 28.034374 400.67188 28.440624Q401.10938 28.83125 401.73438 28.83125Q402.48438 28.83125 403.0 28.315624Q403.51562 27.8 403.51562 27.034374Q403.51562 26.315624 403.03125 25.846874Q402.5625 25.3625 401.82812 25.3625Q401.53125 25.3625 401.07812 25.4875L401.20312 24.55Q401.3125 24.565624 401.375 24.565624Q402.04688 24.565624 402.57812 24.221874Q403.125 23.8625 403.125 23.128124Q403.125 22.55 402.73438 22.175Q402.34375 21.784374 401.71875 21.784374Q401.10938 21.784374 400.6875 22.175Q400.28125 22.565624 400.17188 23.33125L399.10938 23.14375Q399.29688 22.096874 399.98438 21.51875Q400.67188 20.925 401.6875 20.925Q402.39062 20.925 402.98438 21.2375Q403.57812 21.534374 403.89062 22.05Q404.20312 22.565624 404.20312 23.159374Q404.20312 23.70625 403.90625 24.175Q403.60938 24.628124 403.03125 24.89375Q403.78125 25.065624 404.20312 25.628124Q404.625 26.175 404.625 27.01875Q404.625 28.14375 403.79688 28.925Q402.98438 29.70625 401.73438 29.70625Q400.60938 29.70625 399.85938 29.034374Q399.10938 28.346874 399.0 27.284374ZM406.0 25.315624Q406.0 23.784374 406.3125 22.8625Q406.625 21.925 407.23438 21.425Q407.85938 20.925 408.79688 20.925Q409.48438 20.925 410.0 21.20625Q410.53125 21.4875 410.875 22.01875Q411.21875 22.534374 411.40625 23.284374Q411.59375 24.034374 411.59375 25.315624Q411.59375 26.83125 411.28125 27.753124Q410.98438 28.675 410.35938 29.190624Q409.75 29.690624 408.79688 29.690624Q407.5625 29.690624 406.84375 28.8Q406.0 27.7375 406.0 25.315624ZM407.07812 25.315624Q407.07812 27.425 407.57812 28.128124Q408.07812 28.83125 408.79688 28.83125Q409.53125 28.83125 410.01562 28.128124Q410.51562 27.425 410.51562 25.315624Q410.51562 23.190624 410.01562 22.503124Q409.53125 21.8 408.78125 21.8Q408.0625 21.8 407.625 22.409374Q407.07812 23.190624 407.07812 25.315624ZM413.29688 29.55L413.29688 20.95625L414.35938 20.95625L414.35938 25.8625L416.84375 23.33125L418.21875 23.33125L415.82812 25.628124L418.45312 29.55L417.15625 29.55L415.09375 26.3625L414.35938 27.08125L414.35938 29.55L413.29688 29.55Z" fill-rule="nonzero"/></svg>