<svg version="1.1" viewBox="0.0 0.0 731.0 452.0" fill="none" stroke="none" stroke-linecap="square" stroke-miterlimit="10" width="731" height="452" xmlns:xlink="http://www.w3.org/1999/xlink" xmlns="http://www.w3.org/2000/svg"><path fill="#ffffff" d="M0 0L731.0 0L731.0 452.0L0 452.0L0 0Z" fill-rule="nonzero"/><path stroke="#333333" stroke-width="1.0" stroke-linecap="butt" d="M49.5 409.5L629.5 409.5" fill-rule="nonzero"/><path stroke="#cccccc" stroke-width="1.0" stroke-linecap="butt" d="M49.5 339.5L629.5 339.5" fill-rule="nonzero"/><path stroke="#cccccc" stroke-width="1.0" stroke-linecap="butt" d="M49.5 269.5L629.5 269.5" fill-rule="nonzero"/><path stroke="#cccccc" stroke-width="1.0" stroke-linecap="butt" d="M49.5 198.5L629.5 198.5" fill-rule="nonzero"/><path stroke="#cccccc" stroke-width="1.0" stroke-linecap="butt" d="M49.5 128.5L629.5 128.5" fill-rule="nonzero"/><path stroke="#cccccc" stroke-width="1.0" stroke-linecap="butt" d="M49.5 58.5L629.5 58.5" fill-rule="nonzero"/><clipPath id="id_0"><path d="M49.6 58.666668L629.4 58.666668L629.4 409.4L49.6 409.4L49.6 58.666668Z" clip-rule="nonzero"/></clipPath><path stroke="#000000" stroke-width="2.0" stroke-linecap="butt" stroke-opacity="0.0" clip-path="url(#id_0)" d="M97.0 409.0L66.0 409.0L66.0 375.0C66.0 373.89542 66.89543 373.0 68.0 373.0L95.0 373.0C96.10457 373.0 97.0 373.89542 97.0 375.0Z" fill-rule="nonzero"/><path fill="#4285f4" clip-path="url(#id_0)" d="M97.0 409.0L66.0 409.0L66.0 375.0C66.0 373.89542 66.89543 373.0 68.0 373.0L95.0 373.0C96.10457 373.0 97.0 373.89542 97.0 375.0Z" fill-rule="nonzero"/><path stroke="#000000" stroke-width="2.0" stroke-linecap="butt" stroke-opacity="0.0" clip-path="url(#id_0)" d="M144.0 409.0L113.0 409.0L113.0 356.0C113.0 354.89542 113.89543 354.0 115.0 354.0L142.0 354.0C143.10457 354.0 144.0 354.89542 144.0 356.0Z" fill-rule="nonzero"/><path fill="#4285f4" clip-path="url(#id_0)" d="M144.0 409.0L113.0 409.0L113.0 356.0C113.0 354.89542 113.89543 354.0 115.0 354.0L142.0 354.0C143.10457 354.0 144.0 354.89542 144.0 356.0Z" fill-rule="nonzero"/><path stroke="#000000" stroke-width="2.0" stroke-linecap="butt" stroke-opacity="0.0" clip-path="url(#id_0)" d="M191.0 409.0L160.0 409.0L160.0 336.0C160.0 334.89542 160.89543 334.0 162.0 334.0L189.0 334.0C190.10457 334.0 191.0 334.89542 191.0 336.0Z" fill-rule="nonzero"/><path fill="#4285f4" clip-path="url(#id_0)" d="M191.0 409.0L160.0 409.0L160.0 336.0C160.0 334.89542 160.89543 334.0 162.0 334.0L189.0 334.0C190.10457 334.0 191.0 334.89542 191.0 336.0Z" fill-rule="nonzero"/><path stroke="#000000" stroke-width="2.0" stroke-linecap="butt" stroke-opacity="0.0" clip-path="url(#id_0)" d="M238.0 409.0L207.0 409.0L207.0 315.0C207.0 313.89542 207.89543 313.0 209.0 313.0L236.0 313.0C237.10457 313.0 238.0 313.89542 238.0 315.0Z" fill-rule="nonzero"/><path fill="#4285f4" clip-path="url(#id_0)" d="M238.0 409.0L207.0 409.0L207.0 315.0C207.0 313.89542 207.89543 313.0 209.0 313.0L236.0 313.0C237.10457 313.0 238.0 313.89542 238.0 315.0Z" fill-rule="nonzero"/><path stroke="#000000" stroke-width="2.0" stroke-linecap="butt" stroke-opacity="0.0" clip-path="url(#id_0)" d="M285.0 409.0L254.0 409.0L254.0 290.0C254.0 288.89542 254.89543 288.0 256.0 288.0L283.0 288.0C284.10458 288.0 285.0 288.89542 285.0 290.0Z" fill-rule="nonzero"/><path fill="#4285f4" clip-path="url(#id_0)" d="M285.0 409.0L254.0 409.0L254.0 290.0C254.0 288.89542 254.89543 288.0 256.0 288.0L283.0 288.0C284.10458 288.0 285.0 288.89542 285.0 290.0Z" fill-rule="nonzero"/><path stroke="#000000" stroke-width="2.0" stroke-linecap="butt" stroke-opacity="0.0" clip-path="url(#id_0)" d="M332.0 409.0L301.0 409.0L301.0 264.0C301.0 262.89542 301.89542 262.0 303.0 262.0L330.0 262.0C331.10458 262.0 332.0 262.89542 332.0 264.0Z" fill-rule="nonzero"/><path fill="#4285f4" clip-path="url(#id_0)" d="M332.0 409.0L301.0 409.0L301.0 264.0C301.0 262.89542 301.89542 262.0 303.0 262.0L330.0 262.0C331.10458 262.0 332.0 262.89542 332.0 264.0Z" fill-rule="nonzero"/><path stroke="#000000" stroke-width="2.0" stroke-linecap="butt" stroke-opacity="0.0" clip-path="url(#id_0)" d="M379.0 409.0L348.0 409.0L348.0 238.0C348.0 236.89543 348.89542 236.0 350.0 236.0L377.0 236.0C378.10458 236.0 379.0 236.89543 379.0 238.0Z" fill-rule="nonzero"/><path fill="#4285f4" clip-path="url(#id_0)" d="M379.0 409.0L348.0 409.0L348.0 238.0C348.0 236.89543 348.89542 236.0 350.0 236.0L377.0 236.0C378.10458 236.0 379.0 236.89543 379.0 238.0Z" fill-rule="nonzero"/><path stroke="#000000" stroke-width="2.0" stroke-linecap="butt" stroke-opacity="0.0" clip-path="url(#id_0)" d="M426.0 409.0L395.0 409.0L395.0 207.0C395.0 205.89543 395.89542 205.0 397.0 205.0L424.0 205.0C425.10458 205.0 426.0 205.89543 426.0 207.0Z" fill-rule="nonzero"/><path fill="#4285f4" clip-path="url(#id_0)" d="M426.0 409.0L395.0 409.0L395.0 207.0C395.0 205.89543 395.89542 205.0 397.0 205.0L424.0 205.0C425.10458 205.0 426.0 205.89543 426.0 207.0Z" fill-rule="nonzero"/><path stroke="#000000" stroke-width="2.0" stroke-linecap="butt" stroke-opacity="0.0" clip-path="url(#id_0)" d="M473.0 409.0L442.0 409.0L442.0 175.0C442.0 173.89543 442.89542 173.0 444.0 173.0L471.0 173.0C472.10458 173.0 473.0 173.89543 473.0 175.0Z" fill-rule="nonzero"/><path fill="#4285f4" clip-path="url(#id_0)" d="M473.0 409.0L442.0 409.0L442.0 175.0C442.0 173.89543 442.89542 173.0 444.0 173.0L471.0 173.0C472.10458 173.0 473.0 173.89543 473.0 175.0Z" fill-rule="nonzero"/><path stroke="#000000" stroke-width="2.0" stroke-linecap="butt" stroke-opacity="0.0" clip-path="url(#id_0)" d="M520.0 409.0L489.0 409.0L489.0 141.0C489.0 139.89543 489.89542 139.0 491.0 139.0L518.0 139.0C519.10455 139.0 520.0 139.89543 520.0 141.0Z" fill-rule="nonzero"/><path fill="#4285f4" clip-path="url(#id_0)" d="M520.0 409.0L489.0 409.0L489.0 141.0C489.0 139.89543 489.89542 139.0 491.0 139.0L518.0 139.0C519.10455 139.0 520.0 139.89543 520.0 141.0Z" fill-rule="nonzero"/><path stroke="#000000" stroke-width="2.0" stroke-linecap="butt" stroke-opacity="0.0" clip-path="url(#id_0)" d="M567.0 409.0L536.0 409.0L536.0 103.0C536.0 101.89543 536.89545 101.0 538.0 101.0L565.0 101.0C566.10455 101.0 567.0 101.89543 567.0 103.0Z" fill-rule="nonzero"/><path fill="#4285f4" clip-path="url(#id_0)" d="M567.0 409.0L536.0 409.0L536.0 103.0C536.0 101.89543 536.89545 101.0 538.0 101.0L565.0 101.0C566.10455 101.0 567.0 101.89543 567.0 103.0Z" fill-rule="nonzero"/><path stroke="#000000" stroke-width="2.0" stroke-linecap="butt" stroke-opacity="0.0" clip-path="url(#id_0)" d="M614.0 409.0L583.0 409.0L583.0 62.0C583.0 60.89543 583.89545 60.0 585.0 60.0L612.0 60.0C613.10455 60.0 614.0 60.89543 614.0 62.0Z" fill-rule="nonzero"/><path fill="#4285f4" clip-path="url(#id_0)" d="M614.0 409.0L583.0 409.0L583.0 62.0C583.0 60.89543 583.89545 60.0 585.0 60.0L612.0 60.0C613.10455 60.0 614.0 60.89543 614.0 62.0Z" fill-rule="nonzero"/><path stroke="#00ff00" stroke-width="2.0" stroke-linecap="butt" clip-path="url(#id_0)" d="M81.289474 409.4L128.23685 308.42038L175.1842 245.90916L222.13158 226.67494L269.07895 231.4835L316.0263 193.01508L362.9737 150.94022L409.92105 105.25896L456.8684 159.3552L503.8158 140.12097L550.7632 120.88676L597.7105 101.65254" fill-rule="nonzero"/><path stroke="#ff0000" stroke-width="2.0" stroke-linecap="butt" stroke-opacity="0.5019608" stroke-dasharray="8.0,6.0" clip-path="url(#id_0)" d="M81.289474 198.96L128.23685 198.96L175.1842 198.96L222.13158 198.96L269.07895 198.96L316.0263 198.96L362.9737 198.96L409.92105 198.96L456.8684 198.96L503.8158 198.96L550.7632 198.96L597.7105 198.96" fill-rule="nonzero"/><path fill="#000000" fill-opacity="0.0" clip-path="url(#id_0)" d="M84.289474 409.4C84.289474 411.05685 82.94633 412.4 81.289474 412.4C79.63262 412.4 78.289474 411.05685 78.289474 409.4C78.289474 407.74313 79.63262 406.4 81.289474 406.4C82.94633 406.4 84.289474 407.74313 84.289474 409.4Z" fill-rule="nonzero"/><path fill="#000000" fill-opacity="0.0" clip-path="url(#id_0)" d="M131.23685 308.42038C131.23685 310.0772 129.89369 311.42038 128.23685 311.42038C126.57999 311.42038 125.23684 310.0772 125.23684 308.42038C125.23684 306.76352 126.57999 305.42038 128.23685 305.42038C129.89369 305.42038 131.23685 306.76352 131.23685 308.42038Z" fill-rule="nonzero"/><path fill="#000000" fill-opacity="0.0" clip-path="url(#id_0)" d="M178.1842 245.90916C178.1842 247.56602 176.84106 248.90916 175.1842 248.90916C173.52736 248.90916 172.1842 247.56602 172.1842 245.90916C172.1842 244.2523 173.52736 242.90916 175.1842 242.90916C176.84106 242.90916 178.1842 244.2523 178.1842 245.90916Z" fill-rule="nonzero"/><path fill="#000000" fill-opacity="0.0" clip-path="url(#id_0)" d="M225.13158 226.67494C225.13158 228.3318 223.78844 229.67494 222.13158 229.67494C220.47473 229.67494 219.13158 228.3318 219.13158 226.67494C219.13158 225.0181 220.47473 223.67494 222.13158 223.67494C223.78844 223.67494 225.13158 225.0181 225.13158 226.67494Z" fill-rule="nonzero"/><path fill="#000000" fill-opacity="0.0" clip-path="url(#id_0)" d="M272.07895 231.4835C272.07895 233.14035 270.7358 234.4835 269.07895 234.4835C267.4221 234.4835 266.07895 233.14035 266.07895 231.4835C266.07895 229.82664 267.4221 228.4835 269.07895 228.4835C270.7358 228.4835 272.07895 229.82664 272.07895 231.4835Z" fill-rule="nonzero"/><path fill="#000000" fill-opacity="0.0" clip-path="url(#id_0)" d="M319.0263 193.01508C319.0263 194.67192 317.68317 196.01508 316.0263 196.01508C314.36948 196.01508 313.0263 194.67192 313.0263 193.01508C313.0263 191.35822 314.36948 190.01508 316.0263 190.01508C317.68317 190.01508 319.0263 191.35822 319.0263 193.01508Z" fill-rule="nonzero"/><path fill="#000000" fill-opacity="0.0" clip-path="url(#id_0)" d="M365.9737 150.94022C365.9737 152.59708 364.63052 153.94022 362.9737 153.94022C361.31683 153.94022 359.9737 152.59708 359.9737 150.94022C359.9737 149.28337 361.31683 147.94022 362.9737 147.94022C364.63052 147.94022 365.9737 149.28337 365.9737 150.94022Z" fill-rule="nonzero"/><path fill="#000000" fill-opacity="0.0" clip-path="url(#id_0)" d="M412.92105 105.25896C412.92105 106.91582 411.5779 108.25896 409.92105 108.25896C408.2642 108.25896 406.92105 106.91582 406.92105 105.25896C406.92105 103.602104 408.2642 102.25896 409.92105 102.25896C411.5779 102.25896 412.92105 103.602104 412.92105 105.25896Z" fill-rule="nonzero"/><path fill="#000000" fill-opacity="0.0" clip-path="url(#id_0)" d="M459.8684 159.3552C459.8684 161.01204 458.52527 162.3552 456.8684 162.3552C455.21158 162.3552 453.8684 161.01204 453.8684 159.3552C453.8684 157.69833 455.21158 156.3552 456.8684 156.3552C458.52527 156.3552 459.8684 157.69833 459.8684 159.3552Z" fill-rule="nonzero"/><path fill="#000000" fill-opacity="0.0" clip-path="url(#id_0)" d="M506.8158 140.12097C506.8158 141.77783 505.47266 143.12097 503.8158 143.12097C502.15894 143.12097 500.8158 141.77783 500.8158 140.12097C500.8158 138.46413 502.15894 137.12097 503.8158 137.12097C505.47266 137.12097 506.8158 138.46413 506.8158 140.12097Z" fill-rule="nonzero"/><path fill="#000000" fill-opacity="0.0" clip-path="url(#id_0)" d="M553.7632 120.88676C553.7632 122.54362 552.42 123.88676 550.7632 123.88676C549.1063 123.88676 547.7632 122.54362 547.7632 120.88676C547.7632 119.229904 549.1063 117.88676 550.7632 117.88676C552.42 117.88676 553.7632 119.229904 553.7632 120.88676Z" fill-rule="nonzero"/><path fill="#000000" fill-opacity="0.0" clip-path="url(#id_0)" d="M600.7105 101.65254C600.7105 103.309395 599.3674 104.65254 597.7105 104.65254C596.05365 104.65254 594.7105 103.309395 594.7105 101.65254C594.7105 99.99569 596.05365 98.65254 597.7105 98.65254C599.3674 98.65254 600.7105 99.99569 600.7105 101.65254Z" fill-rule="nonzero"/><path fill="#ff0000" fill-opacity="0.5019608" clip-path="url(#id_0)" d="M81.289474 198.96C81.289474 198.96 81.289474 198.96 81.289474 198.96C81.289474 198.96 81.289474 198.96 81.289474 198.96C81.289474 198.96 81.289474 198.96 81.289474 198.96C81.289474 198.96 81.289474 198.96 81.289474 198.96Z" fill-rule="nonzero"/><path fill="#ff0000" fill-opacity="0.5019608" clip-path="url(#id_0)" d="M128.23685 198.96C128.23685 198.96 128.23685 198.96 128.23685 198.96C128.23685 198.96 128.23685 198.96 128.23685 198.96C128.23685 198.96 128.23685 198.96 128.23685 198.96C128.23685 198.96 128.23685 198.96 128.23685 198.96Z" fill-rule="nonzero"/><path fill="#ff0000" fill-opacity="0.5019608" clip-path="url(#id_0)" d="M175.1842 198.96C175.1842 198.96 175.1842 198.96 175.1842 198.96C175.1842 198.96 175.1842 198.96 175.1842 198.96C175.1842 198.96 175.1842 198.96 175.1842 198.96C175.1842 198.96 175.1842 198.96 175.1842 198.96Z" fill-rule="nonzero"/><path fill="#ff0000" fill-opacity="0.5019608" clip-path="url(#id_0)" d="M222.13158 198.96C222.13158 198.96 222.13158 198.96 222.13158 198.96C222.13158 198.96 222.13158 198.96 222.13158 198.96C222.13158 198.96 222.13158 198.96 222.13158 198.96C222.13158 198.96 222.13158 198.96 222.13158 198.96Z" fill-rule="nonzero"/><path fill="#ff0000" fill-opacity="0.5019608" clip-path="url(#id_0)" d="M269.07895 198.96C269.07895 198.96 269.07895 198.96 269.07895 198.96C269.07895 198.96 269.07895 198.96 269.07895 198.96C269.07895 198.96 269.07895 198.96 269.07895 198.96C269.07895 198.96 269.07895 198.96 269.07895 198.96Z" fill-rule="nonzero"/><path fill="#ff0000" fill-opacity="0.5019608" clip-path="url(#id_0)" d="M316.0263 198.96C316.0263 198.96 316.0263 198.96 316.0263 198.96C316.0263 198.96 316.0263 198.96 316.0263 198.96C316.0263 198.96 316.0263 198.96 316.0263 198.96C316.0263 198.96 316.0263 198.96 316.0263 198.96Z" fill-rule="nonzero"/><path fill="#ff0000" fill-opacity="0.5019608" clip-path="url(#id_0)" d="M362.9737 198.96C362.9737 198.96 362.9737 198.96 362.9737 198.96C362.9737 198.96 362.9737 198.96 362.9737 198.96C362.9737 198.96 362.9737 198.96 362.9737 198.96C362.9737 198.96 362.9737 198.96 362.9737 198.96Z" fill-rule="nonzero"/><path fill="#ff0000" fill-opacity="0.5019608" clip-path="url(#id_0)" d="M409.92105 198.96C409.92105 198.96 409.92105 198.96 409.92105 198.96C409.92105 198.96 409.92105 198.96 409.92105 198.96C409.92105 198.96 409.92105 198.96 409.92105 198.96C409.92105 198.96 409.92105 198.96 409.92105 198.96Z" fill-rule="nonzero"/><path fill="#ff0000" fill-opacity="0.5019608" clip-path="url(#id_0)" d="M456.8684 198.96C456.8684 198.96 456.8684 198.96 456.8684 198.96C456.8684 198.96 456.8684 198.96 456.8684 198.96C456.8684 198.96 456.8684 198.96 456.8684 198.96C456.8684 198.96 456.8684 198.96 456.8684 198.96Z" fill-rule="nonzero"/><path fill="#ff0000" fill-opacity="0.5019608" clip-path="url(#id_0)" d="M503.8158 198.96C503.8158 198.96 503.8158 198.96 503.8158 198.96C503.8158 198.96 503.8158 198.96 503.8158 198.96C503.8158 198.96 503.8158 198.96 503.8158 198.96C503.8158 198.96 503.8158 198.96 503.8158 198.96Z" fill-rule="nonzero"/><path fill="#ff0000" fill-opacity="0.5019608" clip-path="url(#id_0)" d="M550.7632 198.96C550.7632 198.96 550.7632 198.96 550.7632 198.96C550.7632 198.96 550.7632 198.96 550.7632 198.96C550.7632 198.96 550.7632 198.96 550.7632 198.96C550.7632 198.96 550.7632 198.96 550.7632 198.96Z" fill-rule="nonzero"/><path fill="#ff0000" fill-opacity="0.5019608" clip-path="url(#id_0)" d="M597.7105 198.96C597.7105 198.96 597.7105 198.96 597.7105 198.96C597.7105 198.96 597.7105 198.96 597.7105 198.96C597.7105 198.96 597.7105 198.96 597.7105 198.96C597.7105 198.96 597.7105 198.96 597.7105 198.96Z" fill-rule="nonzero"/><path fill="#000000" d="M37.1 409.16562Q37.1 407.63437 37.4125 406.7125Q37.725 405.775 38.334373 405.275Q38.959373 404.775 39.896873 404.775Q40.584373 404.775 41.1 405.05624Q41.63125 405.3375 41.975 405.86874Q42.31875 406.38437 42.50625 407.13437Q42.69375 407.88437 42.69375 409.16562Q42.69375 410.68124 42.38125 411.60312Q42.084373 412.525 41.459373 413.04062Q40.85 413.54062 39.896873 413.54062Q38.6625 413.54062 37.94375 412.65Q37.1 411.5875 37.1 409.16562ZM38.178123 409.16562Q38.178123 411.275 38.678123 411.97812Q39.178123 412.68124 39.896873 412.68124Q40.63125 412.68124 41.115623 411.97812Q41.615623 411.275 41.615623 409.16562Q41.615623 407.04062 41.115623 406.35312Q40.63125 405.65 39.88125 405.65Q39.1625 405.65 38.725 406.25937Q38.178123 407.04062 38.178123 409.16562Z" fill-rule="nonzero"/><path fill="#000000" d="M41.06875 343.25333L40.021873 343.25333L40.021873 336.53458Q39.63125 336.89395 39.00625 337.26895Q38.396873 337.62833 37.9125 337.8002L37.9125 336.78458Q38.7875 336.3627 39.44375 335.78458Q40.115623 335.19083 40.396873 334.62833L41.06875 334.62833L41.06875 343.25333Z" fill-rule="nonzero"/><path fill="#000000" d="M42.646873 272.09103L42.646873 273.10666L36.959373 273.10666Q36.959373 272.73166 37.084373 272.37228Q37.303123 271.79416 37.771873 271.23166Q38.25625 270.66916 39.1625 269.93478Q40.56875 268.77853 41.053123 268.10666Q41.553123 267.43478 41.553123 266.84103Q41.553123 266.21603 41.1 265.79416Q40.646873 265.35666 39.928123 265.35666Q39.1625 265.35666 38.709373 265.80978Q38.25625 266.2629 38.240623 267.0754L37.1625 266.96603Q37.271873 265.74728 37.990623 265.12228Q38.725 264.48166 39.959373 264.48166Q41.19375 264.48166 41.9125 265.16916Q42.63125 265.85666 42.63125 266.87228Q42.63125 267.3879 42.4125 267.8879Q42.209373 268.37228 41.709373 268.93478Q41.225 269.48166 40.1 270.43478Q39.146873 271.23166 38.865623 271.52853Q38.6 271.80978 38.428123 272.09103L42.646873 272.09103Z" fill-rule="nonzero"/><path fill="#000000" d="M37.1 200.69438L38.1625 200.55376Q38.334373 201.44438 38.771873 201.85063Q39.209373 202.24126 39.834373 202.24126Q40.584373 202.24126 41.1 201.72563Q41.615623 201.21 41.615623 200.44438Q41.615623 199.72563 41.13125 199.25688Q40.6625 198.7725 39.928123 198.7725Q39.63125 198.7725 39.178123 198.8975L39.303123 197.96Q39.4125 197.97563 39.475 197.97563Q40.146873 197.97563 40.678123 197.63188Q41.225 197.2725 41.225 196.53813Q41.225 195.96 40.834373 195.585Q40.44375 195.19438 39.81875 195.19438Q39.209373 195.19438 38.7875 195.585Q38.38125 195.97563 38.271873 196.74126L37.209373 196.55376Q37.396873 195.50688 38.084373 194.92876Q38.771873 194.335 39.7875 194.335Q40.490623 194.335 41.084373 194.6475Q41.678123 194.94438 41.990623 195.46Q42.303123 195.97563 42.303123 196.56938Q42.303123 197.11626 42.00625 197.585Q41.709373 198.03813 41.13125 198.30376Q41.88125 198.47563 42.303123 199.03813Q42.725 199.585 42.725 200.42876Q42.725 201.55376 41.896873 202.335Q41.084373 203.11626 39.834373 203.11626Q38.709373 203.11626 37.959373 202.44438Q37.209373 201.75688 37.1 200.69438Z" fill-rule="nonzero"/><path fill="#000000" d="M40.475 132.81334L40.475 130.75084L36.75625 130.75084L36.75625 129.78209L40.678123 124.21959L41.5375 124.21959L41.5375 129.78209L42.69375 129.78209L42.69375 130.75084L41.5375 130.75084L41.5375 132.81334L40.475 132.81334ZM40.475 129.78209L40.475 125.922714L37.7875 129.78209L40.475 129.78209Z" fill-rule="nonzero"/><path fill="#000000" d="M37.1 60.416668L38.209373 60.322918Q38.334373 61.135418 38.771873 61.541668Q39.225 61.947918 39.865623 61.947918Q40.615623 61.947918 41.146873 61.369793Q41.678123 60.791668 41.678123 59.854168Q41.678123 58.947918 41.1625 58.432293Q40.6625 57.901043 39.834373 57.901043Q39.334373 57.901043 38.9125 58.135418Q38.50625 58.369793 38.271873 58.729168L37.2875 58.604168L38.115623 54.197918L42.396873 54.197918L42.396873 55.197918L38.959373 55.197918L38.50625 57.510418Q39.271873 56.963543 40.115623 56.963543Q41.240623 56.963543 42.00625 57.744793Q42.7875 58.526043 42.7875 59.760418Q42.7875 60.916668 42.115623 61.776043Q41.2875 62.807293 39.865623 62.807293Q38.69375 62.807293 37.94375 62.151043Q37.209373 61.494793 37.1 60.416668Z" fill-rule="nonzero"/><path fill="#000000" d="M635.9 409.16562Q635.9 407.63437 636.2125 406.7125Q636.525 405.775 637.1344 405.275Q637.7594 404.775 638.6969 404.775Q639.3844 404.775 639.9 405.05624Q640.4313 405.3375 640.775 405.86874Q641.1188 406.38437 641.3063 407.13437Q641.4938 407.88437 641.4938 409.16562Q641.4938 410.68124 641.1813 411.60312Q640.8844 412.525 640.2594 413.04062Q639.65 413.54062 638.6969 413.54062Q637.4625 413.54062 636.7438 412.65Q635.9 411.5875 635.9 409.16562ZM636.97815 409.16562Q636.97815 411.275 637.47815 411.97812Q637.97815 412.68124 638.6969 412.68124Q639.4313 412.68124 639.91565 411.97812Q640.41565 411.275 640.41565 409.16562Q640.41565 407.04062 639.91565 406.35312Q639.4313 405.65 638.6813 405.65Q637.9625 405.65 637.525 406.25937Q636.97815 407.04062 636.97815 409.16562ZM643.4625 413.4L643.4625 412.19687L644.66565 412.19687L644.66565 413.4Q644.66565 414.05624 644.4313 414.4625Q644.1969 414.88437 643.6969 415.10312L643.4 414.65Q643.72815 414.50937 643.8844 414.2125Q644.04065 413.93124 644.0719 413.4L643.4625 413.4ZM645.9 409.16562Q645.9 407.63437 646.2125 406.7125Q646.525 405.775 647.1344 405.275Q647.7594 404.775 648.6969 404.775Q649.3844 404.775 649.9 405.05624Q650.4313 405.3375 650.775 405.86874Q651.1188 406.38437 651.3063 407.13437Q651.4938 407.88437 651.4938 409.16562Q651.4938 410.68124 651.1813 411.60312Q650.8844 412.525 650.2594 413.04062Q649.65 413.54062 648.6969 413.54062Q647.4625 413.54062 646.7438 412.65Q645.9 411.5875 645.9 409.16562ZM646.97815 409.16562Q646.97815 411.275 647.47815 411.97812Q647.97815 412.68124 648.6969 412.68124Q649.4313 412.68124 649.91565 411.97812Q650.41565 411.275 650.41565 409.16562Q650.41565 407.04062 649.91565 406.35312Q649.4313 405.65 648.6813 405.65Q647.9625 405.65 647.525 406.25937Q646.97815 407.04062 646.97815 409.16562ZM652.9 409.16562Q652.9 407.63437 653.2125 406.7125Q653.525 405.775 654.1344 405.275Q654.7594 404.775 655.6969 404.775Q656.3844 404.775 656.9 405.05624Q657.4313 405.3375 657.775 405.86874Q658.1188 406.38437 658.3063 407.13437Q658.4938 407.88437 658.4938 409.16562Q658.4938 410.68124 658.1813 411.60312Q657.8844 412.525 657.2594 413.04062Q656.65 413.54062 655.6969 413.54062Q654.4625 413.54062 653.7438 412.65Q652.9 411.5875 652.9 409.16562ZM653.97815 409.16562Q653.97815 411.275 654.47815 411.97812Q654.97815 412.68124 655.6969 412.68124Q656.4313 412.68124 656.91565 411.97812Q657.41565 411.275 657.41565 409.16562Q657.41565 407.04062 656.91565 406.35312Q656.4313 405.65 655.6813 405.65Q654.9625 405.65 654.525 406.25937Q653.97815 407.04062 653.97815 409.16562ZM662.6344 413.4L662.6344 412.54062L666.60315 407.99374Q665.91565 408.025 665.4 408.025L662.8688 408.025L662.8688 407.18124L667.9625 407.18124L667.9625 407.86874L664.5875 411.82187L663.9313 412.54062Q664.65 412.49374 665.2594 412.49374L668.15 412.49374L668.15 413.4L662.6344 413.4ZM668.1813 410.04062L667.41565 410.68124L667.41565 409.75937L668.1813 409.10312L668.1813 404.80624L669.22815 404.80624L669.22815 408.2125L670.025 407.54062L670.025 408.4625L669.22815 409.13437L669.22815 413.4L668.1813 413.4L668.1813 410.04062Z" fill-rule="nonzero"/><path fill="#000000" d="M635.9 341.00333L637.0094 340.90958Q637.1344 341.72208 637.5719 342.12833Q638.025 342.53458 638.66565 342.53458Q639.41565 342.53458 639.9469 341.95645Q640.47815 341.37833 640.47815 340.44083Q640.47815 339.53458 639.9625 339.01895Q639.4625 338.4877 638.6344 338.4877Q638.1344 338.4877 637.7125 338.72208Q637.3063 338.95645 637.0719 339.31583L636.0875 339.19083L636.91565 334.78458L641.1969 334.78458L641.1969 335.78458L637.7594 335.78458L637.3063 338.09708Q638.0719 337.5502 638.91565 337.5502Q640.04065 337.5502 640.8063 338.33145Q641.5875 339.1127 641.5875 340.34708Q641.5875 341.50333 640.91565 342.3627Q640.0875 343.39395 638.66565 343.39395Q637.4938 343.39395 636.7438 342.7377Q636.0094 342.08145 635.9 341.00333ZM642.9 339.01895Q642.9 337.4877 643.2125 336.56583Q643.525 335.62833 644.1344 335.12833Q644.7594 334.62833 645.6969 334.62833Q646.3844 334.62833 646.9 334.90958Q647.4313 335.19083 647.775 335.72208Q648.1188 336.2377 648.3063 336.9877Q648.4938 337.7377 648.4938 339.01895Q648.4938 340.53458 648.1813 341.45645Q647.8844 342.37833 647.2594 342.89395Q646.65 343.39395 645.6969 343.39395Q644.4625 343.39395 643.7438 342.50333Q642.9 341.44083 642.9 339.01895ZM643.97815 339.01895Q643.97815 341.12833 644.47815 341.83145Q644.97815 342.53458 645.6969 342.53458Q646.4313 342.53458 646.91565 341.83145Q647.41565 341.12833 647.41565 339.01895Q647.41565 336.89395 646.91565 336.20645Q646.4313 335.50333 645.6813 335.50333Q644.9625 335.50333 644.525 336.1127Q643.97815 336.89395 643.97815 339.01895ZM652.9 339.01895Q652.9 337.4877 653.2125 336.56583Q653.525 335.62833 654.1344 335.12833Q654.7594 334.62833 655.6969 334.62833Q656.3844 334.62833 656.9 334.90958Q657.4313 335.19083 657.775 335.72208Q658.1188 336.2377 658.3063 336.9877Q658.4938 337.7377 658.4938 339.01895Q658.4938 340.53458 658.1813 341.45645Q657.8844 342.37833 657.2594 342.89395Q656.65 343.39395 655.6969 343.39395Q654.4625 343.39395 653.7438 342.50333Q652.9 341.44083 652.9 339.01895ZM653.97815 339.01895Q653.97815 341.12833 654.47815 341.83145Q654.97815 342.53458 655.6969 342.53458Q656.4313 342.53458 656.91565 341.83145Q657.41565 341.12833 657.41565 339.01895Q657.41565 336.89395 656.91565 336.20645Q656.4313 335.50333 655.6813 335.50333Q654.9625 335.50333 654.525 336.1127Q653.97815 336.89395 653.97815 339.01895ZM659.9 339.01895Q659.9 337.4877 660.2125 336.56583Q660.525 335.62833 661.1344 335.12833Q661.7594 334.62833 662.6969 334.62833Q663.3844 334.62833 663.9 334.90958Q664.4313 335.19083 664.775 335.72208Q665.1188 336.2377 665.3063 336.9877Q665.4938 337.7377 665.4938 339.01895Q665.4938 340.53458 665.1813 341.45645Q664.8844 342.37833 664.2594 342.89395Q663.65 343.39395 662.6969 343.39395Q661.4625 343.39395 660.7438 342.50333Q659.9 341.44083 659.9 339.01895ZM660.97815 339.01895Q660.97815 341.12833 661.47815 341.83145Q661.97815 342.53458 662.6969 342.53458Q663.4313 342.53458 663.91565 341.83145Q664.41565 341.12833 664.41565 339.01895Q664.41565 336.89395 663.91565 336.20645Q663.4313 335.50333 662.6813 335.50333Q661.9625 335.50333 661.525 336.1127Q660.97815 336.89395 660.97815 339.01895ZM666.9 339.01895Q666.9 337.4877 667.2125 336.56583Q667.525 335.62833 668.1344 335.12833Q668.7594 334.62833 669.6969 334.62833Q670.3844 334.62833 670.9 334.90958Q671.4313 335.19083 671.775 335.72208Q672.1188 336.2377 672.3063 336.9877Q672.4938 337.7377 672.4938 339.01895Q672.4938 340.53458 672.1813 341.45645Q671.8844 342.37833 671.2594 342.89395Q670.65 343.39395 669.6969 343.39395Q668.4625 343.39395 667.7438 342.50333Q666.9 341.44083 666.9 339.01895ZM667.97815 339.01895Q667.97815 341.12833 668.47815 341.83145Q668.97815 342.53458 669.6969 342.53458Q670.4313 342.53458 670.91565 341.83145Q671.41565 341.12833 671.41565 339.01895Q671.41565 336.89395 670.91565 336.20645Q670.4313 335.50333 669.6813 335.50333Q668.9625 335.50333 668.525 336.1127Q667.97815 336.89395 667.97815 339.01895ZM674.4625 343.25333L674.4625 342.0502L675.66565 342.0502L675.66565 343.25333Q675.66565 343.90958 675.4313 344.31583Q675.1969 344.7377 674.6969 344.95645L674.4 344.50333Q674.72815 344.3627 674.8844 344.06583Q675.04065 343.78458 675.0719 343.25333L674.4625 343.25333ZM676.9 339.01895Q676.9 337.4877 677.2125 336.56583Q677.525 335.62833 678.1344 335.12833Q678.7594 334.62833 679.6969 334.62833Q680.3844 334.62833 680.9 334.90958Q681.4313 335.19083 681.775 335.72208Q682.1188 336.2377 682.3063 336.9877Q682.4938 337.7377 682.4938 339.01895Q682.4938 340.53458 682.1813 341.45645Q681.8844 342.37833 681.2594 342.89395Q680.65 343.39395 679.6969 343.39395Q678.4625 343.39395 677.7438 342.50333Q676.9 341.44083 676.9 339.01895ZM677.97815 339.01895Q677.97815 341.12833 678.47815 341.83145Q678.97815 342.53458 679.6969 342.53458Q680.4313 342.53458 680.91565 341.83145Q681.41565 341.12833 681.41565 339.01895Q681.41565 336.89395 680.91565 336.20645Q680.4313 335.50333 679.6813 335.50333Q678.9625 335.50333 678.525 336.1127Q677.97815 336.89395 677.97815 339.01895ZM683.9 339.01895Q683.9 337.4877 684.2125 336.56583Q684.525 335.62833 685.1344 335.12833Q685.7594 334.62833 686.6969 334.62833Q687.3844 334.62833 687.9 334.90958Q688.4313 335.19083 688.775 335.72208Q689.1188 336.2377 689.3063 336.9877Q689.4938 337.7377 689.4938 339.01895Q689.4938 340.53458 689.1813 341.45645Q688.8844 342.37833 688.2594 342.89395Q687.65 343.39395 686.6969 343.39395Q685.4625 343.39395 684.7438 342.50333Q683.9 341.44083 683.9 339.01895ZM684.97815 339.01895Q684.97815 341.12833 685.47815 341.83145Q685.97815 342.53458 686.6969 342.53458Q687.4313 342.53458 687.91565 341.83145Q688.41565 341.12833 688.41565 339.01895Q688.41565 336.89395 687.91565 336.20645Q687.4313 335.50333 686.6813 335.50333Q685.9625 335.50333 685.525 336.1127Q684.97815 336.89395 684.97815 339.01895ZM693.6344 343.25333L693.6344 342.39395L697.60315 337.84708Q696.91565 337.87833 696.4 337.87833L693.8688 337.87833L693.8688 337.03458L698.9625 337.03458L698.9625 337.72208L695.5875 341.6752L694.9313 342.39395Q695.65 342.34708 696.2594 342.34708L699.15 342.34708L699.15 343.25333L693.6344 343.25333ZM699.1813 339.89395L698.41565 340.53458L698.41565 339.6127L699.1813 338.95645L699.1813 334.65958L700.22815 334.65958L700.22815 338.06583L701.025 337.39395L701.025 338.31583L700.22815 338.9877L700.22815 343.25333L699.1813 343.25333L699.1813 339.89395Z" fill-rule="nonzero"/><path fill="#000000" d="M639.8688 273.10666L638.8219 273.10666L638.8219 266.3879Q638.4313 266.74728 637.8063 267.12228Q637.1969 267.48166 636.7125 267.65353L636.7125 266.6379Q637.5875 266.21603 638.2438 265.6379Q638.91565 265.04416 639.1969 264.48166L639.8688 264.48166L639.8688 273.10666ZM642.9 268.87228Q642.9 267.34103 643.2125 266.41916Q643.525 265.48166 644.1344 264.98166Q644.7594 264.48166 645.6969 264.48166Q646.3844 264.48166 646.9 264.7629Q647.4313 265.04416 647.775 265.5754Q648.1188 266.09103 648.3063 266.84103Q648.4938 267.59103 648.4938 268.87228Q648.4938 270.3879 648.1813 271.30978Q647.8844 272.23166 647.2594 272.74728Q646.65 273.24728 645.6969 273.24728Q644.4625 273.24728 643.7438 272.35666Q642.9 271.29416 642.9 268.87228ZM643.97815 268.87228Q643.97815 270.98166 644.47815 271.68478Q644.97815 272.3879 645.6969 272.3879Q646.4313 272.3879 646.91565 271.68478Q647.41565 270.98166 647.41565 268.87228Q647.41565 266.74728 646.91565 266.05978Q646.4313 265.35666 645.6813 265.35666Q644.9625 265.35666 644.525 265.96603Q643.97815 266.74728 643.97815 268.87228ZM649.9 268.87228Q649.9 267.34103 650.2125 266.41916Q650.525 265.48166 651.1344 264.98166Q651.7594 264.48166 652.6969 264.48166Q653.3844 264.48166 653.9 264.7629Q654.4313 265.04416 654.775 265.5754Q655.1188 266.09103 655.3063 266.84103Q655.4938 267.59103 655.4938 268.87228Q655.4938 270.3879 655.1813 271.30978Q654.8844 272.23166 654.2594 272.74728Q653.65 273.24728 652.6969 273.24728Q651.4625 273.24728 650.7438 272.35666Q649.9 271.29416 649.9 268.87228ZM650.97815 268.87228Q650.97815 270.98166 651.47815 271.68478Q651.97815 272.3879 652.6969 272.3879Q653.4313 272.3879 653.91565 271.68478Q654.41565 270.98166 654.41565 268.87228Q654.41565 266.74728 653.91565 266.05978Q653.4313 265.35666 652.6813 265.35666Q651.9625 265.35666 651.525 265.96603Q650.97815 266.74728 650.97815 268.87228ZM659.9 268.87228Q659.9 267.34103 660.2125 266.41916Q660.525 265.48166 661.1344 264.98166Q661.7594 264.48166 662.6969 264.48166Q663.3844 264.48166 663.9 264.7629Q664.4313 265.04416 664.775 265.5754Q665.1188 266.09103 665.3063 266.84103Q665.4938 267.59103 665.4938 268.87228Q665.4938 270.3879 665.1813 271.30978Q664.8844 272.23166 664.2594 272.74728Q663.65 273.24728 662.6969 273.24728Q661.4625 273.24728 660.7438 272.35666Q659.9 271.29416 659.9 268.87228ZM660.97815 268.87228Q660.97815 270.98166 661.47815 271.68478Q661.97815 272.3879 662.6969 272.3879Q663.4313 272.3879 663.91565 271.68478Q664.41565 270.98166 664.41565 268.87228Q664.41565 266.74728 663.91565 266.05978Q663.4313 265.35666 662.6813 265.35666Q661.9625 265.35666 661.525 265.96603Q660.97815 266.74728 660.97815 268.87228ZM666.9 268.87228Q666.9 267.34103 667.2125 266.41916Q667.525 265.48166 668.1344 264.98166Q668.7594 264.48166 669.6969 264.48166Q670.3844 264.48166 670.9 264.7629Q671.4313 265.04416 671.775 265.5754Q672.1188 266.09103 672.3063 266.84103Q672.4938 267.59103 672.4938 268.87228Q672.4938 270.3879 672.1813 271.30978Q671.8844 272.23166 671.2594 272.74728Q670.65 273.24728 669.6969 273.24728Q668.4625 273.24728 667.7438 272.35666Q666.9 271.29416 666.9 268.87228ZM667.97815 268.87228Q667.97815 270.98166 668.47815 271.68478Q668.97815 272.3879 669.6969 272.3879Q670.4313 272.3879 670.91565 271.68478Q671.41565 270.98166 671.41565 268.87228Q671.41565 266.74728 670.91565 266.05978Q670.4313 265.35666 669.6813 265.35666Q668.9625 265.35666 668.525 265.96603Q667.97815 266.74728 667.97815 268.87228ZM673.9 268.87228Q673.9 267.34103 674.2125 266.41916Q674.525 265.48166 675.1344 264.98166Q675.7594 264.48166 676.6969 264.48166Q677.3844 264.48166 677.9 264.7629Q678.4313 265.04416 678.775 265.5754Q679.1188 266.09103 679.3063 266.84103Q679.4938 267.59103 679.4938 268.87228Q679.4938 270.3879 679.1813 271.30978Q678.8844 272.23166 678.2594 272.74728Q677.65 273.24728 676.6969 273.24728Q675.4625 273.24728 674.7438 272.35666Q673.9 271.29416 673.9 268.87228ZM674.97815 268.87228Q674.97815 270.98166 675.47815 271.68478Q675.97815 272.3879 676.6969 272.3879Q677.4313 272.3879 677.91565 271.68478Q678.41565 270.98166 678.41565 268.87228Q678.41565 266.74728 677.91565 266.05978Q677.4313 265.35666 676.6813 265.35666Q675.9625 265.35666 675.525 265.96603Q674.97815 266.74728 674.97815 268.87228ZM681.4625 273.10666L681.4625 271.90353L682.66565 271.90353L682.66565 273.10666Q682.66565 273.7629 682.4313 274.16916Q682.1969 274.59103 681.6969 274.80978L681.4 274.35666Q681.72815 274.21603 681.8844 273.91916Q682.04065 273.6379 682.0719 273.10666L681.4625 273.10666ZM683.9 268.87228Q683.9 267.34103 684.2125 266.41916Q684.525 265.48166 685.1344 264.98166Q685.7594 264.48166 686.6969 264.48166Q687.3844 264.48166 687.9 264.7629Q688.4313 265.04416 688.775 265.5754Q689.1188 266.09103 689.3063 266.84103Q689.4938 267.59103 689.4938 268.87228Q689.4938 270.3879 689.1813 271.30978Q688.8844 272.23166 688.2594 272.74728Q687.65 273.24728 686.6969 273.24728Q685.4625 273.24728 684.7438 272.35666Q683.9 271.29416 683.9 268.87228ZM684.97815 268.87228Q684.97815 270.98166 685.47815 271.68478Q685.97815 272.3879 686.6969 272.3879Q687.4313 272.3879 687.91565 271.68478Q688.41565 270.98166 688.41565 268.87228Q688.41565 266.74728 687.91565 266.05978Q687.4313 265.35666 686.6813 265.35666Q685.9625 265.35666 685.525 265.96603Q684.97815 266.74728 684.97815 268.87228ZM690.9 268.87228Q690.9 267.34103 691.2125 266.41916Q691.525 265.48166 692.1344 264.98166Q692.7594 264.48166 693.6969 264.48166Q694.3844 264.48166 694.9 264.7629Q695.4313 265.04416 695.775 265.5754Q696.1188 266.09103 696.3063 266.84103Q696.4938 267.59103 696.4938 268.87228Q696.4938 270.3879 696.1813 271.30978Q695.8844 272.23166 695.2594 272.74728Q694.65 273.24728 693.6969 273.24728Q692.4625 273.24728 691.7438 272.35666Q690.9 271.29416 690.9 268.87228ZM691.97815 268.87228Q691.97815 270.98166 692.47815 271.68478Q692.97815 272.3879 693.6969 272.3879Q694.4313 272.3879 694.91565 271.68478Q695.41565 270.98166 695.41565 268.87228Q695.41565 266.74728 694.91565 266.05978Q694.4313 265.35666 693.6813 265.35666Q692.9625 265.35666 692.525 265.96603Q691.97815 266.74728 691.97815 268.87228ZM700.6344 273.10666L700.6344 272.24728L704.60315 267.7004Q703.91565 267.73166 703.4 267.73166L700.8688 267.73166L700.8688 266.8879L705.9625 266.8879L705.9625 267.5754L702.5875 271.52853L701.9313 272.24728Q702.65 272.2004 703.2594 272.2004L706.15 272.2004L706.15 273.10666L700.6344 273.10666ZM706.1813 269.74728L705.41565 270.3879L705.41565 269.46603L706.1813 268.80978L706.1813 264.5129L707.22815 264.5129L707.22815 267.91916L708.025 267.24728L708.025 268.16916L707.22815 268.84103L707.22815 273.10666L706.1813 273.10666L706.1813 269.74728Z" fill-rule="nonzero"/><path fill="#000000" d="M639.8688 202.96L638.8219 202.96L638.8219 196.24126Q638.4313 196.60063 637.8063 196.97563Q637.1969 197.335 636.7125 197.50688L636.7125 196.49126Q637.5875 196.06938 638.2438 195.49126Q638.91565 194.8975 639.1969 194.335L639.8688 194.335L639.8688 202.96ZM642.9 200.71L644.0094 200.61626Q644.1344 201.42876 644.5719 201.835Q645.025 202.24126 645.66565 202.24126Q646.41565 202.24126 646.9469 201.66313Q647.47815 201.085 647.47815 200.1475Q647.47815 199.24126 646.9625 198.72563Q646.4625 198.19438 645.6344 198.19438Q645.1344 198.19438 644.7125 198.42876Q644.3063 198.66313 644.0719 199.0225L643.0875 198.8975L643.91565 194.49126L648.1969 194.49126L648.1969 195.49126L644.7594 195.49126L644.3063 197.80376Q645.0719 197.25688 645.91565 197.25688Q647.04065 197.25688 647.8063 198.03813Q648.5875 198.81938 648.5875 200.05376Q648.5875 201.21 647.91565 202.06938Q647.0875 203.10063 645.66565 203.10063Q644.4938 203.10063 643.7438 202.44438Q643.0094 201.78813 642.9 200.71ZM649.9 198.72563Q649.9 197.19438 650.2125 196.2725Q650.525 195.335 651.1344 194.835Q651.7594 194.335 652.6969 194.335Q653.3844 194.335 653.9 194.61626Q654.4313 194.8975 654.775 195.42876Q655.1188 195.94438 655.3063 196.69438Q655.4938 197.44438 655.4938 198.72563Q655.4938 200.24126 655.1813 201.16313Q654.8844 202.085 654.2594 202.60063Q653.65 203.10063 652.6969 203.10063Q651.4625 203.10063 650.7438 202.21Q649.9 201.1475 649.9 198.72563ZM650.97815 198.72563Q650.97815 200.835 651.47815 201.53813Q651.97815 202.24126 652.6969 202.24126Q653.4313 202.24126 653.91565 201.53813Q654.41565 200.835 654.41565 198.72563Q654.41565 196.60063 653.91565 195.91313Q653.4313 195.21 652.6813 195.21Q651.9625 195.21 651.525 195.81938Q650.97815 196.60063 650.97815 198.72563ZM659.9 198.72563Q659.9 197.19438 660.2125 196.2725Q660.525 195.335 661.1344 194.835Q661.7594 194.335 662.6969 194.335Q663.3844 194.335 663.9 194.61626Q664.4313 194.8975 664.775 195.42876Q665.1188 195.94438 665.3063 196.69438Q665.4938 197.44438 665.4938 198.72563Q665.4938 200.24126 665.1813 201.16313Q664.8844 202.085 664.2594 202.60063Q663.65 203.10063 662.6969 203.10063Q661.4625 203.10063 660.7438 202.21Q659.9 201.1475 659.9 198.72563ZM660.97815 198.72563Q660.97815 200.835 661.47815 201.53813Q661.97815 202.24126 662.6969 202.24126Q663.4313 202.24126 663.91565 201.53813Q664.41565 200.835 664.41565 198.72563Q664.41565 196.60063 663.91565 195.91313Q663.4313 195.21 662.6813 195.21Q661.9625 195.21 661.525 195.81938Q660.97815 196.60063 660.97815 198.72563ZM666.9 198.72563Q666.9 197.19438 667.2125 196.2725Q667.525 195.335 668.1344 194.835Q668.7594 194.335 669.6969 194.335Q670.3844 194.335 670.9 194.61626Q671.4313 194.8975 671.775 195.42876Q672.1188 195.94438 672.3063 196.69438Q672.4938 197.44438 672.4938 198.72563Q672.4938 200.24126 672.1813 201.16313Q671.8844 202.085 671.2594 202.60063Q670.65 203.10063 669.6969 203.10063Q668.4625 203.10063 667.7438 202.21Q666.9 201.1475 666.9 198.72563ZM667.97815 198.72563Q667.97815 200.835 668.47815 201.53813Q668.97815 202.24126 669.6969 202.24126Q670.4313 202.24126 670.91565 201.53813Q671.41565 200.835 671.41565 198.72563Q671.41565 196.60063 670.91565 195.91313Q670.4313 195.21 669.6813 195.21Q668.9625 195.21 668.525 195.81938Q667.97815 196.60063 667.97815 198.72563ZM673.9 198.72563Q673.9 197.19438 674.2125 196.2725Q674.525 195.335 675.1344 194.835Q675.7594 194.335 676.6969 194.335Q677.3844 194.335 677.9 194.61626Q678.4313 194.8975 678.775 195.42876Q679.1188 195.94438 679.3063 196.69438Q679.4938 197.44438 679.4938 198.72563Q679.4938 200.24126 679.1813 201.16313Q678.8844 202.085 678.2594 202.60063Q677.65 203.10063 676.6969 203.10063Q675.4625 203.10063 674.7438 202.21Q673.9 201.1475 673.9 198.72563ZM674.97815 198.72563Q674.97815 200.835 675.47815 201.53813Q675.97815 202.24126 676.6969 202.24126Q677.4313 202.24126 677.91565 201.53813Q678.41565 200.835 678.41565 198.72563Q678.41565 196.60063 677.91565 195.91313Q677.4313 195.21 676.6813 195.21Q675.9625 195.21 675.525 195.81938Q674.97815 196.60063 674.97815 198.72563ZM681.4625 202.96L681.4625 201.75688L682.66565 201.75688L682.66565 202.96Q682.66565 203.61626 682.4313 204.0225Q682.1969 204.44438 681.6969 204.66313L681.4 204.21Q681.72815 204.06938 681.8844 203.7725Q682.04065 203.49126 682.0719 202.96L681.4625 202.96ZM683.9 198.72563Q683.9 197.19438 684.2125 196.2725Q684.525 195.335 685.1344 194.835Q685.7594 194.335 686.6969 194.335Q687.3844 194.335 687.9 194.61626Q688.4313 194.8975 688.775 195.42876Q689.1188 195.94438 689.3063 196.69438Q689.4938 197.44438 689.4938 198.72563Q689.4938 200.24126 689.1813 201.16313Q688.8844 202.085 688.2594 202.60063Q687.65 203.10063 686.6969 203.10063Q685.4625 203.10063 684.7438 202.21Q683.9 201.1475 683.9 198.72563ZM684.97815 198.72563Q684.97815 200.835 685.47815 201.53813Q685.97815 202.24126 686.6969 202.24126Q687.4313 202.24126 687.91565 201.53813Q688.41565 200.835 688.41565 198.72563Q688.41565 196.60063 687.91565 195.91313Q687.4313 195.21 686.6813 195.21Q685.9625 195.21 685.525 195.81938Q684.97815 196.60063 684.97815 198.72563ZM690.9 198.72563Q690.9 197.19438 691.2125 196.2725Q691.525 195.335 692.1344 194.835Q692.7594 194.335 693.6969 194.335Q694.3844 194.335 694.9 194.61626Q695.4313 194.8975 695.775 195.42876Q696.1188 195.94438 696.3063 196.69438Q696.4938 197.44438 696.4938 198.72563Q696.4938 200.24126 696.1813 201.16313Q695.8844 202.085 695.2594 202.60063Q694.65 203.10063 693.6969 203.10063Q692.4625 203.10063 691.7438 202.21Q690.9 201.1475 690.9 198.72563ZM691.97815 198.72563Q691.97815 200.835 692.47815 201.53813Q692.97815 202.24126 693.6969 202.24126Q694.4313 202.24126 694.91565 201.53813Q695.41565 200.835 695.41565 198.72563Q695.41565 196.60063 694.91565 195.91313Q694.4313 195.21 693.6813 195.21Q692.9625 195.21 692.525 195.81938Q691.97815 196.60063 691.97815 198.72563ZM700.6344 202.96L700.6344 202.10063L704.60315 197.55376Q703.91565 197.585 703.4 197.585L700.8688 197.585L700.8688 196.74126L705.9625 196.74126L705.9625 197.42876L702.5875 201.38188L701.9313 202.10063Q702.65 202.05376 703.2594 202.05376L706.15 202.05376L706.15 202.96L700.6344 202.96ZM706.1813 199.60063L705.41565 200.24126L705.41565 199.31938L706.1813 198.66313L706.1813 194.36626L707.22815 194.36626L707.22815 197.7725L708.025 197.10063L708.025 198.0225L707.22815 198.69438L707.22815 202.96L706.1813 202.96L706.1813 199.60063Z" fill-rule="nonzero"/><path fill="#000000" d="M641.4469 131.79771L641.4469 132.81334L635.7594 132.81334Q635.7594 132.43834 635.8844 132.07896Q636.10315 131.50084 636.5719 130.93834Q637.0563 130.37584 637.9625 129.64146Q639.3688 128.48521 639.85315 127.81334Q640.35315 127.141464 640.35315 126.547714Q640.35315 125.922714 639.9 125.50084Q639.4469 125.06334 638.72815 125.06334Q637.9625 125.06334 637.5094 125.516464Q637.0563 125.96959 637.04065 126.78209L635.9625 126.672714Q636.0719 125.453964 636.79065 124.828964Q637.525 124.18834 638.7594 124.18834Q639.9938 124.18834 640.7125 124.87584Q641.4313 125.56334 641.4313 126.578964Q641.4313 127.09459 641.2125 127.59459Q641.0094 128.07896 640.5094 128.64146Q640.025 129.18834 638.9 130.14146Q637.9469 130.93834 637.66565 131.23521Q637.4 131.51646 637.22815 131.79771L641.4469 131.79771ZM642.9 128.57896Q642.9 127.047714 643.2125 126.12584Q643.525 125.18834 644.1344 124.68834Q644.7594 124.18834 645.6969 124.18834Q646.3844 124.18834 646.9 124.46959Q647.4313 124.75084 647.775 125.28209Q648.1188 125.797714 648.3063 126.547714Q648.4938 127.297714 648.4938 128.57896Q648.4938 130.09459 648.1813 131.01646Q647.8844 131.93834 647.2594 132.45396Q646.65 132.95396 645.6969 132.95396Q644.4625 132.95396 643.7438 132.06334Q642.9 131.00084 642.9 128.57896ZM643.97815 128.57896Q643.97815 130.68834 644.47815 131.39146Q644.97815 132.09459 645.6969 132.09459Q646.4313 132.09459 646.91565 131.39146Q647.41565 130.68834 647.41565 128.57896Q647.41565 126.453964 646.91565 125.766464Q646.4313 125.06334 645.6813 125.06334Q644.9625 125.06334 644.525 125.672714Q643.97815 126.453964 643.97815 128.57896ZM649.9 128.57896Q649.9 127.047714 650.2125 126.12584Q650.525 125.18834 651.1344 124.68834Q651.7594 124.18834 652.6969 124.18834Q653.3844 124.18834 653.9 124.46959Q654.4313 124.75084 654.775 125.28209Q655.1188 125.797714 655.3063 126.547714Q655.4938 127.297714 655.4938 128.57896Q655.4938 130.09459 655.1813 131.01646Q654.8844 131.93834 654.2594 132.45396Q653.65 132.95396 652.6969 132.95396Q651.4625 132.95396 650.7438 132.06334Q649.9 131.00084 649.9 128.57896ZM650.97815 128.57896Q650.97815 130.68834 651.47815 131.39146Q651.97815 132.09459 652.6969 132.09459Q653.4313 132.09459 653.91565 131.39146Q654.41565 130.68834 654.41565 128.57896Q654.41565 126.453964 653.91565 125.766464Q653.4313 125.06334 652.6813 125.06334Q651.9625 125.06334 651.525 125.672714Q650.97815 126.453964 650.97815 128.57896ZM659.9 128.57896Q659.9 127.047714 660.2125 126.12584Q660.525 125.18834 661.1344 124.68834Q661.7594 124.18834 662.6969 124.18834Q663.3844 124.18834 663.9 124.46959Q664.4313 124.75084 664.775 125.28209Q665.1188 125.797714 665.3063 126.547714Q665.4938 127.297714 665.4938 128.57896Q665.4938 130.09459 665.1813 131.01646Q664.8844 131.93834 664.2594 132.45396Q663.65 132.95396 662.6969 132.95396Q661.4625 132.95396 660.7438 132.06334Q659.9 131.00084 659.9 128.57896ZM660.97815 128.57896Q660.97815 130.68834 661.47815 131.39146Q661.97815 132.09459 662.6969 132.09459Q663.4313 132.09459 663.91565 131.39146Q664.41565 130.68834 664.41565 128.57896Q664.41565 126.453964 663.91565 125.766464Q663.4313 125.06334 662.6813 125.06334Q661.9625 125.06334 661.525 125.672714Q660.97815 126.453964 660.97815 128.57896ZM666.9 128.57896Q666.9 127.047714 667.2125 126.12584Q667.525 125.18834 668.1344 124.68834Q668.7594 124.18834 669.6969 124.18834Q670.3844 124.18834 670.9 124.46959Q671.4313 124.75084 671.775 125.28209Q672.1188 125.797714 672.3063 126.547714Q672.4938 127.297714 672.4938 128.57896Q672.4938 130.09459 672.1813 131.01646Q671.8844 131.93834 671.2594 132.45396Q670.65 132.95396 669.6969 132.95396Q668.4625 132.95396 667.7438 132.06334Q666.9 131.00084 666.9 128.57896ZM667.97815 128.57896Q667.97815 130.68834 668.47815 131.39146Q668.97815 132.09459 669.6969 132.09459Q670.4313 132.09459 670.91565 131.39146Q671.41565 130.68834 671.41565 128.57896Q671.41565 126.453964 670.91565 125.766464Q670.4313 125.06334 669.6813 125.06334Q668.9625 125.06334 668.525 125.672714Q667.97815 126.453964 667.97815 128.57896ZM673.9 128.57896Q673.9 127.047714 674.2125 126.12584Q674.525 125.18834 675.1344 124.68834Q675.7594 124.18834 676.6969 124.18834Q677.3844 124.18834 677.9 124.46959Q678.4313 124.75084 678.775 125.28209Q679.1188 125.797714 679.3063 126.547714Q679.4938 127.297714 679.4938 128.57896Q679.4938 130.09459 679.1813 131.01646Q678.8844 131.93834 678.2594 132.45396Q677.65 132.95396 676.6969 132.95396Q675.4625 132.95396 674.7438 132.06334Q673.9 131.00084 673.9 128.57896ZM674.97815 128.57896Q674.97815 130.68834 675.47815 131.39146Q675.97815 132.09459 676.6969 132.09459Q677.4313 132.09459 677.91565 131.39146Q678.41565 130.68834 678.41565 128.57896Q678.41565 126.453964 677.91565 125.766464Q677.4313 125.06334 676.6813 125.06334Q675.9625 125.06334 675.525 125.672714Q674.97815 126.453964 674.97815 128.57896ZM681.4625 132.81334L681.4625 131.61021L682.66565 131.61021L682.66565 132.81334Q682.66565 133.46959 682.4313 133.87584Q682.1969 134.29771 681.6969 134.51646L681.4 134.06334Q681.72815 133.92271 681.8844 133.62584Q682.04065 133.34459 682.0719 132.81334L681.4625 132.81334ZM683.9 128.57896Q683.9 127.047714 684.2125 126.12584Q684.525 125.18834 685.1344 124.68834Q685.7594 124.18834 686.6969 124.18834Q687.3844 124.18834 687.9 124.46959Q688.4313 124.75084 688.775 125.28209Q689.1188 125.797714 689.3063 126.547714Q689.4938 127.297714 689.4938 128.57896Q689.4938 130.09459 689.1813 131.01646Q688.8844 131.93834 688.2594 132.45396Q687.65 132.95396 686.6969 132.95396Q685.4625 132.95396 684.7438 132.06334Q683.9 131.00084 683.9 128.57896ZM684.97815 128.57896Q684.97815 130.68834 685.47815 131.39146Q685.97815 132.09459 686.6969 132.09459Q687.4313 132.09459 687.91565 131.39146Q688.41565 130.68834 688.41565 128.57896Q688.41565 126.453964 687.91565 125.766464Q687.4313 125.06334 686.6813 125.06334Q685.9625 125.06334 685.525 125.672714Q684.97815 126.453964 684.97815 128.57896ZM690.9 128.57896Q690.9 127.047714 691.2125 126.12584Q691.525 125.18834 692.1344 124.68834Q692.7594 124.18834 693.6969 124.18834Q694.3844 124.18834 694.9 124.46959Q695.4313 124.75084 695.775 125.28209Q696.1188 125.797714 696.3063 126.547714Q696.4938 127.297714 696.4938 128.57896Q696.4938 130.09459 696.1813 131.01646Q695.8844 131.93834 695.2594 132.45396Q694.65 132.95396 693.6969 132.95396Q692.4625 132.95396 691.7438 132.06334Q690.9 131.00084 690.9 128.57896ZM691.97815 128.57896Q691.97815 130.68834 692.47815 131.39146Q692.97815 132.09459 693.6969 132.09459Q694.4313 132.09459 694.91565 131.39146Q695.41565 130.68834 695.41565 128.57896Q695.41565 126.453964 694.91565 125.766464Q694.4313 125.06334 693.6813 125.06334Q692.9625 125.06334 692.525 125.672714Q691.97815 126.453964 691.97815 128.57896ZM700.6344 132.81334L700.6344 131.95396L704.60315 127.40709Q703.91565 127.43834 703.4 127.43834L700.8688 127.43834L700.8688 126.59459L705.9625 126.59459L705.9625 127.28209L702.5875 131.23521L701.9313 131.95396Q702.65 131.90709 703.2594 131.90709L706.15 131.90709L706.15 132.81334L700.6344 132.81334ZM706.1813 129.45396L705.41565 130.09459L705.41565 129.17271L706.1813 128.51646L706.1813 124.21959L707.22815 124.21959L707.22815 127.62584L708.025 126.953964L708.025 127.87584L707.22815 128.54771L707.22815 132.81334L706.1813 132.81334L706.1813 129.45396Z" fill-rule="nonzero"/><path fill="#000000" d="M641.4469 61.651043L641.4469 62.666668L635.7594 62.666668Q635.7594 62.291668 635.8844 61.932293Q636.10315 61.354168 636.5719 60.791668Q637.0563 60.229168 637.9625 59.494793Q639.3688 58.338543 639.85315 57.666668Q640.35315 56.994793 640.35315 56.401043Q640.35315 55.776043 639.9 55.354168Q639.4469 54.916668 638.72815 54.916668Q637.9625 54.916668 637.5094 55.369793Q637.0563 55.822918 637.04065 56.635418L635.9625 56.526043Q636.0719 55.307293 636.79065 54.682293Q637.525 54.041668 638.7594 54.041668Q639.9938 54.041668 640.7125 54.729168Q641.4313 55.416668 641.4313 56.432293Q641.4313 56.947918 641.2125 57.447918Q641.0094 57.932293 640.5094 58.494793Q640.025 59.041668 638.9 59.994793Q637.9469 60.791668 637.66565 61.088543Q637.4 61.369793 637.22815 61.651043L641.4469 61.651043ZM642.9 60.416668L644.0094 60.322918Q644.1344 61.135418 644.5719 61.541668Q645.025 61.947918 645.66565 61.947918Q646.41565 61.947918 646.9469 61.369793Q647.47815 60.791668 647.47815 59.854168Q647.47815 58.947918 646.9625 58.432293Q646.4625 57.901043 645.6344 57.901043Q645.1344 57.901043 644.7125 58.135418Q644.3063 58.369793 644.0719 58.729168L643.0875 58.604168L643.91565 54.197918L648.1969 54.197918L648.1969 55.197918L644.7594 55.197918L644.3063 57.510418Q645.0719 56.963543 645.91565 56.963543Q647.04065 56.963543 647.8063 57.744793Q648.5875 58.526043 648.5875 59.760418Q648.5875 60.916668 647.91565 61.776043Q647.0875 62.807293 645.66565 62.807293Q644.4938 62.807293 643.7438 62.151043Q643.0094 61.494793 642.9 60.416668ZM649.9 58.432293Q649.9 56.901043 650.2125 55.979168Q650.525 55.041668 651.1344 54.541668Q651.7594 54.041668 652.6969 54.041668Q653.3844 54.041668 653.9 54.322918Q654.4313 54.604168 654.775 55.135418Q655.1188 55.651043 655.3063 56.401043Q655.4938 57.151043 655.4938 58.432293Q655.4938 59.947918 655.1813 60.869793Q654.8844 61.791668 654.2594 62.307293Q653.65 62.807293 652.6969 62.807293Q651.4625 62.807293 650.7438 61.916668Q649.9 60.854168 649.9 58.432293ZM650.97815 58.432293Q650.97815 60.541668 651.47815 61.244793Q651.97815 61.947918 652.6969 61.947918Q653.4313 61.947918 653.91565 61.244793Q654.41565 60.541668 654.41565 58.432293Q654.41565 56.307293 653.91565 55.619793Q653.4313 54.916668 652.6813 54.916668Q651.9625 54.916668 651.525 55.526043Q650.97815 56.307293 650.97815 58.432293ZM659.9 58.432293Q659.9 56.901043 660.2125 55.979168Q660.525 55.041668 661.1344 54.541668Q661.7594 54.041668 662.6969 54.041668Q663.3844 54.041668 663.9 54.322918Q664.4313 54.604168 664.775 55.135418Q665.1188 55.651043 665.3063 56.401043Q665.4938 57.151043 665.4938 58.432293Q665.4938 59.947918 665.1813 60.869793Q664.8844 61.791668 664.2594 62.307293Q663.65 62.807293 662.6969 62.807293Q661.4625 62.807293 660.7438 61.916668Q659.9 60.854168 659.9 58.432293ZM660.97815 58.432293Q660.97815 60.541668 661.47815 61.244793Q661.97815 61.947918 662.6969 61.947918Q663.4313 61.947918 663.91565 61.244793Q664.41565 60.541668 664.41565 58.432293Q664.41565 56.307293 663.91565 55.619793Q663.4313 54.916668 662.6813 54.916668Q661.9625 54.916668 661.525 55.526043Q660.97815 56.307293 660.97815 58.432293ZM666.9 58.432293Q666.9 56.901043 667.2125 55.979168Q667.525 55.041668 668.1344 54.541668Q668.7594 54.041668 669.6969 54.041668Q670.3844 54.041668 670.9 54.322918Q671.4313 54.604168 671.775 55.135418Q672.1188 55.651043 672.3063 56.401043Q672.4938 57.151043 672.4938 58.432293Q672.4938 59.947918 672.1813 60.869793Q671.8844 61.791668 671.2594 62.307293Q670.65 62.807293 669.6969 62.807293Q668.4625 62.807293 667.7438 61.916668Q666.9 60.854168 666.9 58.432293ZM667.97815 58.432293Q667.97815 60.541668 668.47815 61.244793Q668.97815 61.947918 669.6969 61.947918Q670.4313 61.947918 670.91565 61.244793Q671.41565 60.541668 671.41565 58.432293Q671.41565 56.307293 670.91565 55.619793Q670.4313 54.916668 669.6813 54.916668Q668.9625 54.916668 668.525 55.526043Q667.97815 56.307293 667.97815 58.432293ZM673.9 58.432293Q673.9 56.901043 674.2125 55.979168Q674.525 55.041668 675.1344 54.541668Q675.7594 54.041668 676.6969 54.041668Q677.3844 54.041668 677.9 54.322918Q678.4313 54.604168 678.775 55.135418Q679.1188 55.651043 679.3063 56.401043Q679.4938 57.151043 679.4938 58.432293Q679.4938 59.947918 679.1813 60.869793Q678.8844 61.791668 678.2594 62.307293Q677.65 62.807293 676.6969 62.807293Q675.4625 62.807293 674.7438 61.916668Q673.9 60.854168 673.9 58.432293ZM674.97815 58.432293Q674.97815 60.541668 675.47815 61.244793Q675.97815 61.947918 676.6969 61.947918Q677.4313 61.947918 677.91565 61.244793Q678.41565 60.541668 678.41565 58.432293Q678.41565 56.307293 677.91565 55.619793Q677.4313 54.916668 676.6813 54.916668Q675.9625 54.916668 675.525 55.526043Q674.97815 56.307293 674.97815 58.432293ZM681.4625 62.666668L681.4625 61.463543L682.66565 61.463543L682.66565 62.666668Q682.66565 63.322918 682.4313 63.729168Q682.1969 64.15105 681.6969 64.3698L681.4 63.916668Q681.72815 63.776043 681.8844 63.479168Q682.04065 63.197918 682.0719 62.666668L681.4625 62.666668ZM683.9 58.432293Q683.9 56.901043 684.2125 55.979168Q684.525 55.041668 685.1344 54.541668Q685.7594 54.041668 686.6969 54.041668Q687.3844 54.041668 687.9 54.322918Q688.4313 54.604168 688.775 55.135418Q689.1188 55.651043 689.3063 56.401043Q689.4938 57.151043 689.4938 58.432293Q689.4938 59.947918 689.1813 60.869793Q688.8844 61.791668 688.2594 62.307293Q687.65 62.807293 686.6969 62.807293Q685.4625 62.807293 684.7438 61.916668Q683.9 60.854168 683.9 58.432293ZM684.97815 58.432293Q684.97815 60.541668 685.47815 61.244793Q685.97815 61.947918 686.6969 61.947918Q687.4313 61.947918 687.91565 61.244793Q688.41565 60.541668 688.41565 58.432293Q688.41565 56.307293 687.91565 55.619793Q687.4313 54.916668 686.6813 54.916668Q685.9625 54.916668 685.525 55.526043Q684.97815 56.307293 684.97815 58.432293ZM690.9 58.432293Q690.9 56.901043 691.2125 55.979168Q691.525 55.041668 692.1344 54.541668Q692.7594 54.041668 693.6969 54.041668Q694.3844 54.041668 694.9 54.322918Q695.4313 54.604168 695.775 55.135418Q696.1188 55.651043 696.3063 56.401043Q696.4938 57.151043 696.4938 58.432293Q696.4938 59.947918 696.1813 60.869793Q695.8844 61.791668 695.2594 62.307293Q694.65 62.807293 693.6969 62.807293Q692.4625 62.807293 691.7438 61.916668Q690.9 60.854168 690.9 58.432293ZM691.97815 58.432293Q691.97815 60.541668 692.47815 61.244793Q692.97815 61.947918 693.6969 61.947918Q694.4313 61.947918 694.91565 61.244793Q695.41565 60.541668 695.41565 58.432293Q695.41565 56.307293 694.91565 55.619793Q694.4313 54.916668 693.6813 54.916668Q692.9625 54.916668 692.525 55.526043Q691.97815 56.307293 691.97815 58.432293ZM700.6344 62.666668L700.6344 61.807293L704.60315 57.260418Q703.91565 57.291668 703.4 57.291668L700.8688 57.291668L700.8688 56.447918L705.9625 56.447918L705.9625 57.135418L702.5875 61.088543L701.9313 61.807293Q702.65 61.760418 703.2594 61.760418L706.15 61.760418L706.15 62.666668L700.6344 62.666668ZM706.1813 59.307293L705.41565 59.947918L705.41565 59.026043L706.1813 58.369793L706.1813 54.072918L707.22815 54.072918L707.22815 57.479168L708.025 56.807293L708.025 57.729168L707.22815 58.401043L707.22815 62.666668L706.1813 62.666668L706.1813 59.307293Z" fill-rule="nonzero"/><path fill="#000000" d="M82.258224 426.4L81.21135 426.4L81.21135 419.68124Q80.820724 420.04062 80.195724 420.41562Q79.58635 420.775 79.101974 420.94687L79.101974 419.93124Q79.976974 419.50937 80.633224 418.93124Q81.3051 418.3375 81.58635 417.775L82.258224 417.775L82.258224 426.4Z" fill-rule="nonzero"/><path fill="#000000" d="M130.78372 425.38437L130.78372 426.4L125.096214 426.4Q125.096214 426.025 125.221214 425.66562Q125.439964 425.0875 125.908714 424.525Q126.39309 423.9625 127.29934 423.22812Q128.7056 422.07187 129.18997 421.4Q129.68997 420.72812 129.68997 420.13437Q129.68997 419.50937 129.23685 419.0875Q128.78372 418.65 128.06497 418.65Q127.29934 418.65 126.846214 419.10312Q126.39309 419.55624 126.377464 420.36874L125.29934 420.25937Q125.408714 419.04062 126.127464 418.41562Q126.86184 417.775 128.09622 417.775Q129.3306 417.775 130.04935 418.4625Q130.7681 419.15 130.7681 420.16562Q130.7681 420.68124 130.54935 421.18124Q130.34622 421.66562 129.84622 422.22812Q129.36185 422.775 128.23685 423.72812Q127.283714 424.525 127.002464 424.82187Q126.73684 425.10312 126.564964 425.38437L130.78372 425.38437Z" fill-rule="nonzero"/><path fill="#000000" d="M172.1842 424.13437L173.2467 423.99374Q173.41858 424.88437 173.85608 425.29062Q174.29358 425.68124 174.91858 425.68124Q175.66858 425.68124 176.1842 425.16562Q176.69983 424.65 176.69983 423.88437Q176.69983 423.16562 176.21545 422.69687Q175.7467 422.2125 175.01233 422.2125Q174.71545 422.2125 174.26233 422.3375L174.38733 421.4Q174.4967 421.41562 174.5592 421.41562Q175.23108 421.41562 175.76233 421.07187Q176.3092 420.7125 176.3092 419.97812Q176.3092 419.4 175.91858 419.025Q175.52795 418.63437 174.90295 418.63437Q174.29358 418.63437 173.8717 419.025Q173.46545 419.41562 173.35608 420.18124L172.29358 419.99374Q172.48108 418.94687 173.16858 418.36874Q173.85608 417.775 174.8717 417.775Q175.57483 417.775 176.16858 418.0875Q176.76233 418.38437 177.07483 418.9Q177.38733 419.41562 177.38733 420.00937Q177.38733 420.55624 177.09045 421.025Q176.79358 421.47812 176.21545 421.74374Q176.96545 421.91562 177.38733 422.47812Q177.8092 423.025 177.8092 423.86874Q177.8092 424.99374 176.98108 425.775Q176.16858 426.55624 174.91858 426.55624Q173.79358 426.55624 173.04358 425.88437Q172.29358 425.19687 172.1842 424.13437Z" fill-rule="nonzero"/><path fill="#000000" d="M222.50658 426.4L222.50658 424.3375L218.78783 424.3375L218.78783 423.36874L222.7097 417.80624L223.56908 417.80624L223.56908 423.36874L224.72533 423.36874L224.72533 424.3375L223.56908 424.3375L223.56908 426.4L222.50658 426.4ZM222.50658 423.36874L222.50658 419.50937L219.81908 423.36874L222.50658 423.36874Z" fill-rule="nonzero"/><path fill="#000000" d="M266.07895 424.15L267.18832 424.05624Q267.31332 424.86874 267.75082 425.275Q268.20395 425.68124 268.84457 425.68124Q269.59457 425.68124 270.12582 425.10312Q270.65707 424.525 270.65707 423.5875Q270.65707 422.68124 270.14145 422.16562Q269.64145 421.63437 268.81332 421.63437Q268.31332 421.63437 267.89145 421.86874Q267.4852 422.10312 267.25082 422.4625L266.26645 422.3375L267.09457 417.93124L271.37582 417.93124L271.37582 418.93124L267.93832 418.93124L267.4852 421.24374Q268.25082 420.69687 269.09457 420.69687Q270.21957 420.69687 270.9852 421.47812Q271.76645 422.25937 271.76645 423.49374Q271.76645 424.65 271.09457 425.50937Q270.26645 426.54062 268.84457 426.54062Q267.6727 426.54062 266.9227 425.88437Q266.18832 425.22812 266.07895 424.15Z" fill-rule="nonzero"/><path fill="#000000" d="M318.49506 419.91562L317.44818 419.99374Q317.30756 419.36874 317.05756 419.0875Q316.62006 418.63437 315.99506 418.63437Q315.49506 418.63437 315.10443 418.91562Q314.62006 419.29062 314.32318 419.99374Q314.04193 420.68124 314.0263 421.9625Q314.4013 421.38437 314.94818 421.10312Q315.51068 420.82187 316.12006 420.82187Q317.16693 420.82187 317.9013 421.60312Q318.6513 422.38437 318.6513 423.60312Q318.6513 424.41562 318.29193 425.11874Q317.94818 425.80624 317.3388 426.18124Q316.72943 426.54062 315.9638 426.54062Q314.63568 426.54062 313.80756 425.57187Q312.97943 424.60312 312.97943 422.38437Q312.97943 419.88437 313.9013 418.75937Q314.69818 417.775 316.05756 417.775Q317.07318 417.775 317.7138 418.35312Q318.37006 418.91562 318.49506 419.91562ZM314.19818 423.61874Q314.19818 424.16562 314.41693 424.66562Q314.6513 425.15 315.05756 425.41562Q315.47943 425.68124 315.94818 425.68124Q316.60443 425.68124 317.0888 425.15Q317.57318 424.60312 317.57318 423.68124Q317.57318 422.79062 317.0888 422.275Q316.62006 421.75937 315.9013 421.75937Q315.18256 421.75937 314.68256 422.275Q314.19818 422.79062 314.19818 423.61874Z" fill-rule="nonzero"/><path fill="#000000" d="M360.0362 418.93124L360.0362 417.91562L365.5987 417.91562L365.5987 418.74374Q364.7862 419.61874 363.9737 421.07187Q363.17682 422.50937 362.73932 424.04062Q362.4112 425.11874 362.33307 426.4L361.23932 426.4Q361.25494 425.38437 361.62994 423.94687Q362.02057 422.50937 362.7237 421.18124Q363.44244 419.85312 364.25494 418.93124L360.0362 418.93124Z" fill-rule="nonzero"/><path fill="#000000" d="M408.54605 421.74374Q407.8898 421.49374 407.56168 421.05624Q407.24918 420.60312 407.24918 419.99374Q407.24918 419.05624 407.92105 418.41562Q408.60855 417.775 409.71793 417.775Q410.84293 417.775 411.53043 418.43124Q412.21793 419.0875 412.21793 420.025Q412.21793 420.61874 411.90543 421.05624Q411.59293 421.49374 410.9523 421.74374Q411.74918 421.99374 412.15543 422.57187Q412.56168 423.15 412.56168 423.94687Q412.56168 425.04062 411.78043 425.79062Q411.0148 426.54062 409.73355 426.54062Q408.46793 426.54062 407.68668 425.79062Q406.90543 425.04062 406.90543 423.91562Q406.90543 423.07187 407.3273 422.50937Q407.7648 421.94687 408.54605 421.74374ZM408.3273 419.94687Q408.3273 420.55624 408.71793 420.94687Q409.12418 421.3375 409.74918 421.3375Q410.35855 421.3375 410.74918 420.9625Q411.1398 420.57187 411.1398 420.00937Q411.1398 419.43124 410.73355 419.04062Q410.3273 418.63437 409.73355 418.63437Q409.12418 418.63437 408.71793 419.025Q408.3273 419.41562 408.3273 419.94687ZM407.99918 423.91562Q407.99918 424.36874 408.2023 424.79062Q408.42105 425.2125 408.84293 425.44687Q409.2648 425.68124 409.74918 425.68124Q410.49918 425.68124 410.98355 425.19687Q411.48355 424.7125 411.48355 423.9625Q411.48355 423.19687 410.98355 422.69687Q410.48355 422.19687 409.71793 422.19687Q408.96793 422.19687 408.48355 422.69687Q407.99918 423.18124 407.99918 423.91562Z" fill-rule="nonzero"/><path fill="#000000" d="M454.02466 424.41562L455.04028 424.32187Q455.16528 425.04062 455.52466 425.36874Q455.89966 425.68124 456.46216 425.68124Q456.94653 425.68124 457.3059 425.4625Q457.6809 425.22812 457.91528 424.86874Q458.14966 424.49374 458.3059 423.86874Q458.46216 423.22812 458.46216 422.57187Q458.46216 422.49374 458.46216 422.35312Q458.14966 422.85312 457.60278 423.18124Q457.0559 423.49374 456.41528 423.49374Q455.33716 423.49374 454.60278 422.72812Q453.8684 421.94687 453.8684 420.68124Q453.8684 419.36874 454.63403 418.57187Q455.41528 417.775 456.57153 417.775Q457.39966 417.775 458.08716 418.22812Q458.79028 418.68124 459.14966 419.525Q459.50903 420.35312 459.50903 421.93124Q459.50903 423.57187 459.14966 424.55624Q458.8059 425.525 458.08716 426.04062Q457.38403 426.54062 456.44653 426.54062Q455.4309 426.54062 454.79028 425.99374Q454.14966 425.43124 454.02466 424.41562ZM458.33716 420.61874Q458.33716 419.7125 457.85278 419.18124Q457.38403 418.65 456.69653 418.65Q455.9934 418.65 455.46216 419.22812Q454.94653 419.79062 454.94653 420.7125Q454.94653 421.525 455.44653 422.04062Q455.94653 422.55624 456.66528 422.55624Q457.39966 422.55624 457.8684 422.04062Q458.33716 421.525 458.33716 420.61874Z" fill-rule="nonzero"/><path fill="#000000" d="M501.28455 426.4L500.23767 426.4L500.23767 419.68124Q499.84705 420.04062 499.22205 420.41562Q498.61267 420.775 498.1283 420.94687L498.1283 419.93124Q499.0033 419.50937 499.65955 418.93124Q500.33142 418.3375 500.61267 417.775L501.28455 417.775L501.28455 426.4ZM504.3158 422.16562Q504.3158 420.63437 504.6283 419.7125Q504.9408 418.775 505.55017 418.275Q506.17517 417.775 507.11267 417.775Q507.80017 417.775 508.3158 418.05624Q508.84705 418.3375 509.1908 418.86874Q509.53455 419.38437 509.72205 420.13437Q509.90955 420.88437 509.90955 422.16562Q509.90955 423.68124 509.59705 424.60312Q509.30017 425.525 508.67517 426.04062Q508.0658 426.54062 507.11267 426.54062Q505.8783 426.54062 505.15955 425.65Q504.3158 424.5875 504.3158 422.16562ZM505.39392 422.16562Q505.39392 424.275 505.89392 424.97812Q506.39392 425.68124 507.11267 425.68124Q507.84705 425.68124 508.33142 424.97812Q508.83142 424.275 508.83142 422.16562Q508.83142 420.04062 508.33142 419.35312Q507.84705 418.65 507.09705 418.65Q506.3783 418.65 505.9408 419.25937Q505.39392 420.04062 505.39392 422.16562Z" fill-rule="nonzero"/><path fill="#000000" d="M548.23193 426.4L547.18506 426.4L547.18506 419.68124Q546.79443 420.04062 546.16943 420.41562Q545.56006 420.775 545.0757 420.94687L545.0757 419.93124Q545.9507 419.50937 546.60693 418.93124Q547.2788 418.3375 547.56006 417.775L548.23193 417.775L548.23193 426.4ZM555.23193 426.4L554.18506 426.4L554.18506 419.68124Q553.79443 420.04062 553.16943 420.41562Q552.56006 420.775 552.0757 420.94687L552.0757 419.93124Q552.9507 419.50937 553.60693 418.93124Q554.2788 418.3375 554.56006 417.775L555.23193 417.775L555.23193 426.4Z" fill-rule="nonzero"/><path fill="#000000" d="M595.17926 426.4L594.1324 426.4L594.1324 419.68124Q593.74176 420.04062 593.11676 420.41562Q592.5074 420.775 592.023 420.94687L592.023 419.93124Q592.898 419.50937 593.55426 418.93124Q594.22614 418.3375 594.5074 417.775L595.17926 417.775L595.17926 426.4ZM603.7574 425.38437L603.7574 426.4L598.0699 426.4Q598.0699 426.025 598.1949 425.66562Q598.41364 425.0875 598.8824 424.525Q599.36676 423.9625 600.273 423.22812Q601.67926 422.07187 602.16364 421.4Q602.66364 420.72812 602.66364 420.13437Q602.66364 419.50937 602.2105 419.0875Q601.7574 418.65 601.03864 418.65Q600.273 418.65 599.8199 419.10312Q599.36676 419.55624 599.35114 420.36874L598.273 420.25937Q598.3824 419.04062 599.10114 418.41562Q599.8355 417.775 601.0699 417.775Q602.30426 417.775 603.023 418.4625Q603.74176 419.15 603.74176 420.16562Q603.74176 420.68124 603.523 421.18124Q603.3199 421.66562 602.8199 422.22812Q602.3355 422.775 601.2105 423.72812Q600.2574 424.525 599.97614 424.82187Q599.7105 425.10312 599.53864 425.38437L603.7574 425.38437Z" fill-rule="nonzero"/><path fill="#4285f4" d="M144.0 24.6C144.0 24.047716 144.44771 23.6 145.0 23.6L155.0 23.6C155.55229 23.6 156.0 24.047716 156.0 24.6L156.0 34.6C156.0 35.152287 155.55229 35.6 155.0 35.6L145.0 35.6C144.44771 35.6 144.0 35.152287 144.0 34.6Z" fill-rule="nonzero"/><path fill="#1a1a1a" d="M168.95312 30.224998L168.95312 29.224998L172.57812 29.209373L172.57812 32.396873Q171.75 33.06875 170.85938 33.4125Q169.96875 33.740623 169.03125 33.740623Q167.76562 33.740623 166.71875 33.209373Q165.6875 32.6625 165.15625 31.646873Q164.64062 30.615623 164.64062 29.349998Q164.64062 28.084373 165.15625 27.006248Q165.6875 25.912498 166.67188 25.396873Q167.65625 24.865623 168.9375 24.865623Q169.875 24.865623 170.625 25.162498Q171.375 25.459373 171.79688 26.006248Q172.23438 26.537498 172.45312 27.412498L171.4375 27.693748Q171.23438 27.037498 170.9375 26.662498Q170.65625 26.287498 170.125 26.068748Q169.59375 25.834373 168.95312 25.834373Q168.17188 25.834373 167.59375 26.068748Q167.03125 26.303123 166.67188 26.693748Q166.32812 27.084373 166.14062 27.553123Q165.8125 28.349998 165.8125 29.271873Q165.8125 30.428123 166.20312 31.209373Q166.60938 31.974998 167.35938 32.35Q168.10938 32.725 168.96875 32.725Q169.70312 32.725 170.40625 32.44375Q171.10938 32.146873 171.46875 31.834373L171.46875 30.224998L168.95312 30.224998ZM173.89062 33.6L173.89062 25.006248L175.60938 25.006248L177.64062 31.084373Q177.92188 31.943748 178.04688 32.365623Q178.1875 31.896873 178.5 30.990623L180.5625 25.006248L182.09375 25.006248L182.09375 33.6L181.0 33.6L181.0 26.412498L178.5 33.6L177.46875 33.6L174.98438 26.287498L174.98438 33.6L173.89062 33.6ZM185.375 33.6L182.04688 25.006248L183.28125 25.006248L185.51562 31.256248Q185.78125 32.00625 185.96875 32.6625Q186.17188 31.959373 186.4375 31.256248L188.75 25.006248L189.90625 25.006248L186.54688 33.6L185.375 33.6ZM194.8125 36.13125Q193.9375 35.021873 193.32812 33.553123Q192.73438 32.06875 192.73438 30.490623Q192.73438 29.099998 193.17188 27.818748Q193.70312 26.334373 194.8125 24.865623L195.5625 24.865623Q194.85938 26.084373 194.625 26.599998Q194.26562 27.412498 194.0625 28.287498Q193.8125 29.381248 193.8125 30.490623Q193.8125 33.31875 195.5625 36.13125L194.8125 36.13125ZM200.95312 30.224998L200.95312 29.224998L204.57812 29.209373L204.57812 32.396873Q203.75 33.06875 202.85938 33.4125Q201.96875 33.740623 201.03125 33.740623Q199.76562 33.740623 198.71875 33.209373Q197.6875 32.6625 197.15625 31.646873Q196.64062 30.615623 196.64062 29.349998Q196.64062 28.084373 197.15625 27.006248Q197.6875 25.912498 198.67188 25.396873Q199.65625 24.865623 200.9375 24.865623Q201.875 24.865623 202.625 25.162498Q203.375 25.459373 203.79688 26.006248Q204.23438 26.537498 204.45312 27.412498L203.4375 27.693748Q203.23438 27.037498 202.9375 26.662498Q202.65625 26.287498 202.125 26.068748Q201.59375 25.834373 200.95312 25.834373Q200.17188 25.834373 199.59375 26.068748Q199.03125 26.303123 198.67188 26.693748Q198.32812 27.084373 198.14062 27.553123Q197.8125 28.349998 197.8125 29.271873Q197.8125 30.428123 198.20312 31.209373Q198.60938 31.974998 199.35938 32.35Q200.10938 32.725 200.96875 32.725Q201.70312 32.725 202.40625 32.44375Q203.10938 32.146873 203.46875 31.834373L203.46875 30.224998L200.95312 30.224998ZM205.78125 33.6L205.78125 27.381248L206.73438 27.381248L206.73438 28.318748Q207.09375 27.662498 207.39062 27.459373Q207.70312 27.240623 208.07812 27.240623Q208.60938 27.240623 209.15625 27.568748L208.79688 28.553123Q208.40625 28.318748 208.03125 28.318748Q207.67188 28.318748 207.39062 28.537498Q207.125 28.740623 207.01562 29.115623Q206.82812 29.678123 206.82812 30.334373L206.82812 33.6L205.78125 33.6ZM209.40625 30.490623Q209.40625 28.756248 210.35938 27.928123Q211.15625 27.240623 212.3125 27.240623Q213.59375 27.240623 214.40625 28.084373Q215.23438 28.912498 215.23438 30.396873Q215.23438 31.599998 214.875 32.2875Q214.51562 32.975 213.8125 33.365623Q213.125 33.740623 212.3125 33.740623Q211.01562 33.740623 210.20312 32.9125Q209.40625 32.06875 209.40625 30.490623ZM210.48438 30.490623Q210.48438 31.678123 211.0 32.271873Q211.53125 32.865623 212.3125 32.865623Q213.10938 32.865623 213.625 32.271873Q214.14062 31.678123 214.14062 30.459373Q214.14062 29.303123 213.60938 28.709373Q213.09375 28.115623 212.3125 28.115623Q211.53125 28.115623 211.0 28.709373Q210.48438 29.287498 210.48438 30.490623ZM216.375 31.740623L217.40625 31.584373Q217.5 32.209373 217.89062 32.5375Q218.29688 32.865623 219.03125 32.865623Q219.75 32.865623 220.09375 32.584373Q220.45312 32.2875 220.45312 31.881248Q220.45312 31.521873 220.14062 31.318748Q219.92188 31.178123 219.0625 30.959373Q217.90625 30.662498 217.45312 30.459373Q217.01562 30.240623 216.78125 29.865623Q216.54688 29.490623 216.54688 29.021873Q216.54688 28.615623 216.73438 28.256248Q216.92188 27.896873 217.25 27.662498Q217.5 27.490623 217.92188 27.365623Q218.34375 27.240623 218.84375 27.240623Q219.5625 27.240623 220.10938 27.459373Q220.67188 27.662498 220.9375 28.021873Q221.20312 28.381248 221.29688 28.974998L220.26562 29.115623Q220.20312 28.646873 219.85938 28.381248Q219.53125 28.099998 218.90625 28.099998Q218.1875 28.099998 217.875 28.349998Q217.5625 28.584373 217.5625 28.912498Q217.5625 29.115623 217.6875 29.271873Q217.82812 29.443748 218.09375 29.553123Q218.25 29.615623 219.03125 29.818748Q220.15625 30.131248 220.59375 30.318748Q221.03125 30.506248 221.28125 30.865623Q221.53125 31.224998 221.53125 31.771873Q221.53125 32.303123 221.21875 32.771873Q220.92188 33.225 220.34375 33.490623Q219.76562 33.740623 219.03125 33.740623Q217.8125 33.740623 217.17188 33.240623Q216.54688 32.725 216.375 31.740623ZM223.375 31.740623L224.40625 31.584373Q224.5 32.209373 224.89062 32.5375Q225.29688 32.865623 226.03125 32.865623Q226.75 32.865623 227.09375 32.584373Q227.45312 32.2875 227.45312 31.881248Q227.45312 31.521873 227.14062 31.318748Q226.92188 31.178123 226.0625 30.959373Q224.90625 30.662498 224.45312 30.459373Q224.01562 30.240623 223.78125 29.865623Q223.54688 29.490623 223.54688 29.021873Q223.54688 28.615623 223.73438 28.256248Q223.92188 27.896873 224.25 27.662498Q224.5 27.490623 224.92188 27.365623Q225.34375 27.240623 225.84375 27.240623Q226.5625 27.240623 227.10938 27.459373Q227.67188 27.662498 227.9375 28.021873Q228.20312 28.381248 228.29688 28.974998L227.26562 29.115623Q227.20312 28.646873 226.85938 28.381248Q226.53125 28.099998 225.90625 28.099998Q225.1875 28.099998 224.875 28.349998Q224.5625 28.584373 224.5625 28.912498Q224.5625 29.115623 224.6875 29.271873Q224.82812 29.443748 225.09375 29.553123Q225.25 29.615623 226.03125 29.818748Q227.15625 30.131248 227.59375 30.318748Q228.03125 30.506248 228.28125 30.865623Q228.53125 31.224998 228.53125 31.771873Q228.53125 32.303123 228.21875 32.771873Q227.92188 33.225 227.34375 33.490623Q226.76562 33.740623 226.03125 33.740623Q224.8125 33.740623 224.17188 33.240623Q223.54688 32.725 223.375 31.740623ZM233.89062 33.6L233.89062 25.006248L235.60938 25.006248L237.64062 31.084373Q237.92188 31.943748 238.04688 32.365623Q238.1875 31.896873 238.5 30.990623L240.5625 25.006248L242.09375 25.006248L242.09375 33.6L241.0 33.6L241.0 26.412498L238.5 33.6L237.46875 33.6L234.98438 26.287498L234.98438 33.6L233.89062 33.6ZM247.04688 31.599998L248.14062 31.724998Q247.89062 32.678123 247.1875 33.209373Q246.48438 33.740623 245.40625 33.740623Q244.04688 33.740623 243.23438 32.896873Q242.4375 32.053123 242.4375 30.537498Q242.4375 28.974998 243.25 28.115623Q244.0625 27.240623 245.34375 27.240623Q246.59375 27.240623 247.375 28.084373Q248.17188 28.928123 248.17188 30.474998Q248.17188 30.568748 248.17188 30.756248L243.53125 30.756248Q243.59375 31.787498 244.10938 32.334373Q244.625 32.865623 245.40625 32.865623Q245.98438 32.865623 246.39062 32.56875Q246.8125 32.25625 247.04688 31.599998ZM243.59375 29.896873L247.0625 29.896873Q247.0 29.099998 246.67188 28.709373Q246.15625 28.099998 245.35938 28.099998Q244.625 28.099998 244.125 28.584373Q243.64062 29.068748 243.59375 29.896873ZM249.78125 33.6L249.78125 27.381248L250.73438 27.381248L250.73438 28.318748Q251.09375 27.662498 251.39062 27.459373Q251.70312 27.240623 252.07812 27.240623Q252.60938 27.240623 253.15625 27.568748L252.79688 28.553123Q252.40625 28.318748 252.03125 28.318748Q251.67188 28.318748 251.39062 28.537498Q251.125 28.740623 251.01562 29.115623Q250.82812 29.678123 250.82812 30.334373L250.82812 33.6L249.78125 33.6ZM257.85938 31.318748L258.89062 31.459373Q258.71875 32.521873 258.01562 33.13125Q257.3125 33.740623 256.29688 33.740623Q255.01562 33.740623 254.23438 32.9125Q253.46875 32.06875 253.46875 30.506248Q253.46875 29.506248 253.79688 28.756248Q254.14062 27.990623 254.8125 27.615623Q255.5 27.240623 256.3125 27.240623Q257.3125 27.240623 257.95312 27.756248Q258.60938 28.256248 258.79688 29.209373L257.76562 29.365623Q257.625 28.740623 257.25 28.428123Q256.875 28.099998 256.34375 28.099998Q255.54688 28.099998 255.04688 28.678123Q254.54688 29.240623 254.54688 30.474998Q254.54688 31.740623 255.03125 32.303123Q255.51562 32.865623 256.28125 32.865623Q256.90625 32.865623 257.3125 32.490623Q257.73438 32.115623 257.85938 31.318748ZM259.79688 33.6L259.79688 25.006248L260.84375 25.006248L260.84375 28.084373Q261.57812 27.240623 262.70312 27.240623Q263.40625 27.240623 263.90625 27.521873Q264.42188 27.787498 264.64062 28.271873Q264.85938 28.740623 264.85938 29.662498L264.85938 33.6L263.8125 33.6L263.8125 29.662498Q263.8125 28.865623 263.46875 28.506248Q263.125 28.146873 262.5 28.146873Q262.03125 28.146873 261.60938 28.396873Q261.20312 28.631248 261.01562 29.053123Q260.84375 29.459373 260.84375 30.193748L260.84375 33.6L259.79688 33.6ZM270.85938 32.834373Q270.26562 33.334373 269.71875 33.5375Q269.1875 33.740623 268.5625 33.740623Q267.53125 33.740623 266.98438 33.240623Q266.4375 32.740623 266.4375 31.959373Q266.4375 31.506248 266.64062 31.131248Q266.84375 30.740623 267.1875 30.521873Q267.53125 30.287498 267.95312 30.178123Q268.25 30.084373 268.89062 30.006248Q270.15625 29.865623 270.76562 29.646873Q270.76562 29.428123 270.76562 29.381248Q270.76562 28.724998 270.46875 28.459373Q270.0625 28.115623 269.26562 28.115623Q268.53125 28.115623 268.17188 28.381248Q267.8125 28.631248 267.64062 29.287498L266.60938 29.146873Q266.75 28.490623 267.07812 28.084373Q267.40625 27.678123 268.01562 27.459373Q268.625 27.240623 269.42188 27.240623Q270.21875 27.240623 270.71875 27.428123Q271.21875 27.615623 271.45312 27.896873Q271.6875 28.178123 271.78125 28.615623Q271.82812 28.881248 271.82812 29.584373L271.82812 30.990623Q271.82812 32.459373 271.89062 32.85Q271.96875 33.240623 272.17188 33.6L271.0625 33.6Q270.90625 33.271873 270.85938 32.834373ZM270.76562 30.474998Q270.1875 30.709373 269.04688 30.881248Q268.39062 30.974998 268.125 31.099998Q267.85938 31.209373 267.70312 31.428123Q267.5625 31.646873 267.5625 31.928123Q267.5625 32.35 267.875 32.63125Q268.20312 32.9125 268.8125 32.9125Q269.42188 32.9125 269.89062 32.646873Q270.375 32.38125 270.59375 31.912498Q270.76562 31.553123 270.76562 30.865623L270.76562 30.474998ZM273.79688 33.6L273.79688 27.381248L274.73438 27.381248L274.73438 28.256248Q275.42188 27.240623 276.71875 27.240623Q277.28125 27.240623 277.75 27.443748Q278.23438 27.646873 278.46875 27.974998Q278.70312 28.303123 278.79688 28.740623Q278.84375 29.037498 278.84375 29.771873L278.84375 33.6L277.79688 33.6L277.79688 29.818748Q277.79688 29.162498 277.67188 28.849998Q277.54688 28.537498 277.23438 28.349998Q276.92188 28.146873 276.5 28.146873Q275.82812 28.146873 275.32812 28.584373Q274.84375 29.006248 274.84375 30.193748L274.84375 33.6L273.79688 33.6ZM284.82812 33.6L284.82812 32.81875Q284.23438 33.740623 283.09375 33.740623Q282.34375 33.740623 281.71875 33.334373Q281.09375 32.9125 280.75 32.178123Q280.40625 31.443748 280.40625 30.490623Q280.40625 29.568748 280.71875 28.803123Q281.03125 28.037498 281.65625 27.646873Q282.28125 27.240623 283.04688 27.240623Q283.60938 27.240623 284.04688 27.474998Q284.48438 27.709373 284.76562 28.084373L284.76562 25.006248L285.8125 25.006248L285.8125 33.6L284.82812 33.6ZM281.5 30.490623Q281.5 31.693748 282.0 32.2875Q282.5 32.865623 283.1875 32.865623Q283.875 32.865623 284.35938 32.303123Q284.84375 31.740623 284.84375 30.584373Q284.84375 29.303123 284.34375 28.709373Q283.85938 28.115623 283.14062 28.115623Q282.4375 28.115623 281.96875 28.693748Q281.5 29.256248 281.5 30.490623ZM287.79688 26.224998L287.79688 25.006248L288.85938 25.006248L288.85938 26.224998L287.79688 26.224998ZM287.79688 33.6L287.79688 27.381248L288.85938 27.381248L288.85938 33.6L287.79688 33.6ZM290.375 31.740623L291.40625 31.584373Q291.5 32.209373 291.89062 32.5375Q292.29688 32.865623 293.03125 32.865623Q293.75 32.865623 294.09375 32.584373Q294.45312 32.2875 294.45312 31.881248Q294.45312 31.521873 294.14062 31.318748Q293.92188 31.178123 293.0625 30.959373Q291.90625 30.662498 291.45312 30.459373Q291.01562 30.240623 290.78125 29.865623Q290.54688 29.490623 290.54688 29.021873Q290.54688 28.615623 290.73438 28.256248Q290.92188 27.896873 291.25 27.662498Q291.5 27.490623 291.92188 27.365623Q292.34375 27.240623 292.84375 27.240623Q293.5625 27.240623 294.10938 27.459373Q294.67188 27.662498 294.9375 28.021873Q295.20312 28.381248 295.29688 28.974998L294.26562 29.115623Q294.20312 28.646873 293.85938 28.381248Q293.53125 28.099998 292.90625 28.099998Q292.1875 28.099998 291.875 28.349998Q291.5625 28.584373 291.5625 28.912498Q291.5625 29.115623 291.6875 29.271873Q291.82812 29.443748 292.09375 29.553123Q292.25 29.615623 293.03125 29.818748Q294.15625 30.131248 294.59375 30.318748Q295.03125 30.506248 295.28125 30.865623Q295.53125 31.224998 295.53125 31.771873Q295.53125 32.303123 295.21875 32.771873Q294.92188 33.225 294.34375 33.490623Q293.76562 33.740623 293.03125 33.740623Q291.8125 33.740623 291.17188 33.240623Q290.54688 32.725 290.375 31.740623ZM302.04688 31.599998L303.14062 31.724998Q302.89062 32.678123 302.1875 33.209373Q301.48438 33.740623 300.40625 33.740623Q299.04688 33.740623 298.23438 32.896873Q297.4375 32.053123 297.4375 30.537498Q297.4375 28.974998 298.25 28.115623Q299.0625 27.240623 300.34375 27.240623Q301.59375 27.240623 302.375 28.084373Q303.17188 28.928123 303.17188 30.474998Q303.17188 30.568748 303.17188 30.756248L298.53125 30.756248Q298.59375 31.787498 299.10938 32.334373Q299.625 32.865623 300.40625 32.865623Q300.98438 32.865623 301.39062 32.56875Q301.8125 32.25625 302.04688 31.599998ZM298.59375 29.896873L302.0625 29.896873Q302.0 29.099998 301.67188 28.709373Q301.15625 28.099998 300.35938 28.099998Q299.625 28.099998 299.125 28.584373Q298.64062 29.068748 298.59375 29.896873ZM310.375 33.6L307.04688 25.006248L308.28125 25.006248L310.51562 31.256248Q310.78125 32.00625 310.96875 32.6625Q311.17188 31.959373 311.4375 31.256248L313.75 25.006248L314.90625 25.006248L311.54688 33.6L310.375 33.6ZM318.85938 32.834373Q318.26562 33.334373 317.71875 33.5375Q317.1875 33.740623 316.5625 33.740623Q315.53125 33.740623 314.98438 33.240623Q314.4375 32.740623 314.4375 31.959373Q314.4375 31.506248 314.64062 31.131248Q314.84375 30.740623 315.1875 30.521873Q315.53125 30.287498 315.95312 30.178123Q316.25 30.084373 316.89062 30.006248Q318.15625 29.865623 318.76562 29.646873Q318.76562 29.428123 318.76562 29.381248Q318.76562 28.724998 318.46875 28.459373Q318.0625 28.115623 317.26562 28.115623Q316.53125 28.115623 316.17188 28.381248Q315.8125 28.631248 315.64062 29.287498L314.60938 29.146873Q314.75 28.490623 315.07812 28.084373Q315.40625 27.678123 316.01562 27.459373Q316.625 27.240623 317.42188 27.240623Q318.21875 27.240623 318.71875 27.428123Q319.21875 27.615623 319.45312 27.896873Q319.6875 28.178123 319.78125 28.615623Q319.82812 28.881248 319.82812 29.584373L319.82812 30.990623Q319.82812 32.459373 319.89062 32.85Q319.96875 33.240623 320.17188 33.6L319.0625 33.6Q318.90625 33.271873 318.85938 32.834373ZM318.76562 30.474998Q318.1875 30.709373 317.04688 30.881248Q316.39062 30.974998 316.125 31.099998Q315.85938 31.209373 315.70312 31.428123Q315.5625 31.646873 315.5625 31.928123Q315.5625 32.35 315.875 32.63125Q316.20312 32.9125 316.8125 32.9125Q317.42188 32.9125 317.89062 32.646873Q318.375 32.38125 318.59375 31.912498Q318.76562 31.553123 318.76562 30.865623L318.76562 30.474998ZM321.76562 33.6L321.76562 25.006248L322.82812 25.006248L322.82812 33.6L321.76562 33.6ZM328.875 33.6L328.875 32.678123Q328.14062 33.740623 326.89062 33.740623Q326.34375 33.740623 325.85938 33.5375Q325.39062 33.31875 325.15625 33.00625Q324.92188 32.678123 324.82812 32.209373Q324.76562 31.912498 324.76562 31.224998L324.76562 27.381248L325.82812 27.381248L325.82812 30.834373Q325.82812 31.646873 325.89062 31.943748Q325.98438 32.35 326.29688 32.6Q326.625 32.834373 327.10938 32.834373Q327.57812 32.834373 327.98438 32.6Q328.40625 32.35 328.57812 31.928123Q328.76562 31.506248 328.76562 30.709373L328.76562 27.381248L329.8125 27.381248L329.8125 33.6L328.875 33.6ZM336.04688 31.599998L337.14062 31.724998Q336.89062 32.678123 336.1875 33.209373Q335.48438 33.740623 334.40625 33.740623Q333.04688 33.740623 332.23438 32.896873Q331.4375 32.053123 331.4375 30.537498Q331.4375 28.974998 332.25 28.115623Q333.0625 27.240623 334.34375 27.240623Q335.59375 27.240623 336.375 28.084373Q337.17188 28.928123 337.17188 30.474998Q337.17188 30.568748 337.17188 30.756248L332.53125 30.756248Q332.59375 31.787498 333.10938 32.334373Q333.625 32.865623 334.40625 32.865623Q334.98438 32.865623 335.39062 32.56875Q335.8125 32.25625 336.04688 31.599998ZM332.59375 29.896873L336.0625 29.896873Q336.0 29.099998 335.67188 28.709373Q335.15625 28.099998 334.35938 28.099998Q333.625 28.099998 333.125 28.584373Q332.64062 29.068748 332.59375 29.896873ZM339.48438 36.13125L338.73438 36.13125Q340.48438 33.31875 340.48438 30.490623Q340.48438 29.396873 340.23438 28.303123Q340.03125 27.428123 339.67188 26.615623Q339.4375 26.099998 338.73438 24.865623L339.48438 24.865623Q340.57812 26.334373 341.10938 27.818748Q341.5625 29.099998 341.5625 30.490623Q341.5625 32.06875 340.95312 33.553123Q340.34375 35.021873 339.48438 36.13125Z" fill-rule="nonzero"/><path stroke="#00ff00" stroke-width="4.0" stroke-linecap="butt" d="M358.0 29.6L370.0 29.6" fill-rule="nonzero"/><path fill="#1a1a1a" d="M378.875 33.6L378.875 25.006248L380.01562 25.006248L380.01562 32.584373L384.25 32.584373L384.25 33.6L378.875 33.6ZM388.10938 33.6L388.10938 26.021873L385.28125 26.021873L385.28125 25.006248L392.09375 25.006248L392.09375 26.021873L389.25 26.021873L389.25 33.6L388.10938 33.6ZM395.375 33.6L392.04688 25.006248L393.28125 25.006248L395.51562 31.256248Q395.78125 32.00625 395.96875 32.6625Q396.17188 31.959373 396.4375 31.256248L398.75 25.006248L399.90625 25.006248L396.54688 33.6L395.375 33.6ZM402.0 33.740623L404.48438 24.865623L405.32812 24.865623L402.84375 33.740623L402.0 33.740623ZM415.0625 30.584373L416.1875 30.881248Q415.82812 32.271873 414.90625 33.00625Q413.98438 33.740623 412.64062 33.740623Q411.25 33.740623 410.375 33.178123Q409.5 32.615623 409.04688 31.553123Q408.59375 30.474998 408.59375 29.240623Q408.59375 27.896873 409.10938 26.896873Q409.625 25.896873 410.5625 25.381248Q411.51562 24.865623 412.65625 24.865623Q413.9375 24.865623 414.8125 25.521873Q415.70312 26.178123 416.04688 27.365623L414.92188 27.631248Q414.625 26.693748 414.04688 26.271873Q413.48438 25.834373 412.625 25.834373Q411.64062 25.834373 410.96875 26.318748Q410.3125 26.787498 410.03125 27.584373Q409.76562 28.381248 409.76562 29.240623Q409.76562 30.334373 410.07812 31.146873Q410.40625 31.959373 411.07812 32.365623Q411.75 32.771873 412.54688 32.771873Q413.5 32.771873 414.15625 32.225Q414.82812 31.678123 415.0625 30.584373ZM416.98438 33.6L420.28125 25.006248L421.5 25.006248L425.01562 33.6L423.73438 33.6L422.71875 30.990623L419.14062 30.990623L418.1875 33.6L416.98438 33.6ZM419.46875 30.068748L422.375 30.068748L421.48438 27.693748Q421.0625 26.615623 420.875 25.912498Q420.70312 26.740623 420.40625 27.553123L419.46875 30.068748ZM431.0625 30.584373L432.1875 30.881248Q431.82812 32.271873 430.90625 33.00625Q429.98438 33.740623 428.64062 33.740623Q427.25 33.740623 426.375 33.178123Q425.5 32.615623 425.04688 31.553123Q424.59375 30.474998 424.59375 29.240623Q424.59375 27.896873 425.10938 26.896873Q425.625 25.896873 426.5625 25.381248Q427.51562 24.865623 428.65625 24.865623Q429.9375 24.865623 430.8125 25.521873Q431.70312 26.178123 432.04688 27.365623L430.92188 27.631248Q430.625 26.693748 430.04688 26.271873Q429.48438 25.834373 428.625 25.834373Q427.64062 25.834373 426.96875 26.318748Q426.3125 26.787498 426.03125 27.584373Q425.76562 28.381248 425.76562 29.240623Q425.76562 30.334373 426.07812 31.146873Q426.40625 31.959373 427.07812 32.365623Q427.75 32.771873 428.54688 32.771873Q429.5 32.771873 430.15625 32.225Q430.82812 31.678123 431.0625 30.584373ZM436.9375 33.6L436.9375 25.006248L440.75 25.006248Q441.90625 25.006248 442.5 25.240623Q443.09375 25.474998 443.45312 26.068748Q443.8125 26.646873 443.8125 27.349998Q443.8125 28.271873 443.21875 28.896873Q442.625 29.521873 441.39062 29.693748Q441.84375 29.912498 442.07812 30.115623Q442.57812 30.568748 443.01562 31.256248L444.51562 33.6L443.07812 33.6L441.95312 31.818748Q441.45312 31.037498 441.125 30.631248Q440.8125 30.224998 440.54688 30.068748Q440.29688 29.896873 440.03125 29.818748Q439.84375 29.787498 439.40625 29.787498L438.07812 29.787498L438.07812 33.6L436.9375 33.6ZM438.07812 28.803123L440.53125 28.803123Q441.29688 28.803123 441.73438 28.646873Q442.1875 28.474998 442.40625 28.131248Q442.64062 27.771873 442.64062 27.349998Q442.64062 26.740623 442.1875 26.349998Q441.75 25.959373 440.79688 25.959373L438.07812 25.959373L438.07812 28.803123ZM449.85938 32.834373Q449.26562 33.334373 448.71875 33.5375Q448.1875 33.740623 447.5625 33.740623Q446.53125 33.740623 445.98438 33.240623Q445.4375 32.740623 445.4375 31.959373Q445.4375 31.506248 445.64062 31.131248Q445.84375 30.740623 446.1875 30.521873Q446.53125 30.287498 446.95312 30.178123Q447.25 30.084373 447.89062 30.006248Q449.15625 29.865623 449.76562 29.646873Q449.76562 29.428123 449.76562 29.381248Q449.76562 28.724998 449.46875 28.459373Q449.0625 28.115623 448.26562 28.115623Q447.53125 28.115623 447.17188 28.381248Q446.8125 28.631248 446.64062 29.287498L445.60938 29.146873Q445.75 28.490623 446.07812 28.084373Q446.40625 27.678123 447.01562 27.459373Q447.625 27.240623 448.42188 27.240623Q449.21875 27.240623 449.71875 27.428123Q450.21875 27.615623 450.45312 27.896873Q450.6875 28.178123 450.78125 28.615623Q450.82812 28.881248 450.82812 29.584373L450.82812 30.990623Q450.82812 32.459373 450.89062 32.85Q450.96875 33.240623 451.17188 33.6L450.0625 33.6Q449.90625 33.271873 449.85938 32.834373ZM449.76562 30.474998Q449.1875 30.709373 448.04688 30.881248Q447.39062 30.974998 447.125 31.099998Q446.85938 31.209373 446.70312 31.428123Q446.5625 31.646873 446.5625 31.928123Q446.5625 32.35 446.875 32.63125Q447.20312 32.9125 447.8125 32.9125Q448.42188 32.9125 448.89062 32.646873Q449.375 32.38125 449.59375 31.912498Q449.76562 31.553123 449.76562 30.865623L449.76562 30.474998ZM455.09375 32.6625L455.25 33.584373Q454.79688 33.678123 454.45312 33.678123Q453.875 33.678123 453.5625 33.50625Q453.25 33.31875 453.10938 33.021873Q452.98438 32.725 452.98438 31.771873L452.98438 28.193748L452.21875 28.193748L452.21875 27.381248L452.98438 27.381248L452.98438 25.834373L454.03125 25.209373L454.03125 27.381248L455.09375 27.381248L455.09375 28.193748L454.03125 28.193748L454.03125 31.834373Q454.03125 32.2875 454.07812 32.4125Q454.14062 32.5375 454.26562 32.615623Q454.39062 32.69375 454.625 32.69375Q454.8125 32.69375 455.09375 32.6625ZM455.79688 26.224998L455.79688 25.006248L456.85938 25.006248L456.85938 26.224998L455.79688 26.224998ZM455.79688 33.6L455.79688 27.381248L456.85938 27.381248L456.85938 33.6L455.79688 33.6ZM458.40625 30.490623Q458.40625 28.756248 459.35938 27.928123Q460.15625 27.240623 461.3125 27.240623Q462.59375 27.240623 463.40625 28.084373Q464.23438 28.912498 464.23438 30.396873Q464.23438 31.599998 463.875 32.2875Q463.51562 32.975 462.8125 33.365623Q462.125 33.740623 461.3125 33.740623Q460.01562 33.740623 459.20312 32.9125Q458.40625 32.06875 458.40625 30.490623ZM459.48438 30.490623Q459.48438 31.678123 460.0 32.271873Q460.53125 32.865623 461.3125 32.865623Q462.10938 32.865623 462.625 32.271873Q463.14062 31.678123 463.14062 30.459373Q463.14062 29.303123 462.60938 28.709373Q462.09375 28.115623 461.3125 28.115623Q460.53125 28.115623 460.0 28.709373Q459.48438 29.287498 459.48438 30.490623Z" fill-rule="nonzero"/><path stroke="#ff0000" stroke-width="4.0" stroke-linecap="butt" stroke-opacity="0.5019608" stroke-dasharray="13.0,9.0" d="M481.0 29.6L516.0 29.6" fill-rule="nonzero"/><path fill="#1a1a1a" d="M524.875 33.6L524.875 25.006248L528.1094 25.006248Q529.09375 25.006248 529.6875 25.271873Q530.28125 25.537498 530.6094 26.084373Q530.9531 26.615623 530.9531 27.209373Q530.9531 27.756248 530.65625 28.240623Q530.3594 28.724998 529.75 29.021873Q530.53125 29.256248 530.9375 29.818748Q531.3594 30.365623 531.3594 31.115623Q531.3594 31.709373 531.1094 32.240623Q530.8594 32.75625 530.4844 33.0375Q530.1094 33.31875 529.53125 33.459373Q528.96875 33.6 528.15625 33.6L524.875 33.6ZM526.0156 28.615623L527.875 28.615623Q528.625 28.615623 528.9531 28.521873Q529.3906 28.396873 529.6094 28.099998Q529.8281 27.787498 529.8281 27.334373Q529.8281 26.912498 529.625 26.584373Q529.4219 26.256248 529.03125 26.146873Q528.65625 26.021873 527.7344 26.021873L526.0156 26.021873L526.0156 28.615623ZM526.0156 32.584373L528.15625 32.584373Q528.7031 32.584373 528.9219 32.5375Q529.3281 32.475 529.5781 32.31875Q529.84375 32.146873 530.0156 31.834373Q530.1875 31.521873 530.1875 31.115623Q530.1875 30.631248 529.9375 30.271873Q529.7031 29.912498 529.2656 29.771873Q528.8281 29.631248 528.0 29.631248L526.0156 29.631248L526.0156 32.584373ZM537.0469 31.599998L538.1406 31.724998Q537.8906 32.678123 537.1875 33.209373Q536.4844 33.740623 535.40625 33.740623Q534.0469 33.740623 533.2344 32.896873Q532.4375 32.053123 532.4375 30.537498Q532.4375 28.974998 533.25 28.115623Q534.0625 27.240623 535.34375 27.240623Q536.59375 27.240623 537.375 28.084373Q538.1719 28.928123 538.1719 30.474998Q538.1719 30.568748 538.1719 30.756248L533.53125 30.756248Q533.59375 31.787498 534.1094 32.334373Q534.625 32.865623 535.40625 32.865623Q535.9844 32.865623 536.3906 32.56875Q536.8125 32.25625 537.0469 31.599998ZM533.59375 29.896873L537.0625 29.896873Q537.0 29.099998 536.6719 28.709373Q536.15625 28.099998 535.3594 28.099998Q534.625 28.099998 534.125 28.584373Q533.6406 29.068748 533.59375 29.896873ZM539.7969 33.6L539.7969 27.381248L540.7344 27.381248L540.7344 28.256248Q541.4219 27.240623 542.71875 27.240623Q543.28125 27.240623 543.75 27.443748Q544.2344 27.646873 544.46875 27.974998Q544.7031 28.303123 544.7969 28.740623Q544.84375 29.037498 544.84375 29.771873L544.84375 33.6L543.7969 33.6L543.7969 29.818748Q543.7969 29.162498 543.6719 28.849998Q543.5469 28.537498 543.2344 28.349998Q542.9219 28.146873 542.5 28.146873Q541.8281 28.146873 541.3281 28.584373Q540.84375 29.006248 540.84375 30.193748L540.84375 33.6L539.7969 33.6ZM550.8594 31.318748L551.8906 31.459373Q551.71875 32.521873 551.0156 33.13125Q550.3125 33.740623 549.2969 33.740623Q548.0156 33.740623 547.2344 32.9125Q546.46875 32.06875 546.46875 30.506248Q546.46875 29.506248 546.7969 28.756248Q547.1406 27.990623 547.8125 27.615623Q548.5 27.240623 549.3125 27.240623Q550.3125 27.240623 550.9531 27.756248Q551.6094 28.256248 551.7969 29.209373L550.7656 29.365623Q550.625 28.740623 550.25 28.428123Q549.875 28.099998 549.34375 28.099998Q548.5469 28.099998 548.0469 28.678123Q547.5469 29.240623 547.5469 30.474998Q547.5469 31.740623 548.03125 32.303123Q548.5156 32.865623 549.28125 32.865623Q549.90625 32.865623 550.3125 32.490623Q550.7344 32.115623 550.8594 31.318748ZM552.7969 33.6L552.7969 25.006248L553.84375 25.006248L553.84375 28.084373Q554.5781 27.240623 555.7031 27.240623Q556.40625 27.240623 556.90625 27.521873Q557.4219 27.787498 557.6406 28.271873Q557.8594 28.740623 557.8594 29.662498L557.8594 33.6L556.8125 33.6L556.8125 29.662498Q556.8125 28.865623 556.46875 28.506248Q556.125 28.146873 555.5 28.146873Q555.03125 28.146873 554.6094 28.396873Q554.2031 28.631248 554.0156 29.053123Q553.84375 29.459373 553.84375 30.193748L553.84375 33.6L552.7969 33.6ZM559.7969 33.6L559.7969 27.381248L560.7344 27.381248L560.7344 28.256248Q561.03125 27.787498 561.5156 27.521873Q562.0 27.240623 562.625 27.240623Q563.3125 27.240623 563.75 27.521873Q564.2031 27.803123 564.375 28.318748Q565.125 27.240623 566.2969 27.240623Q567.2344 27.240623 567.71875 27.756248Q568.21875 28.256248 568.21875 29.334373L568.21875 33.6L567.1719 33.6L567.1719 29.678123Q567.1719 29.053123 567.0625 28.771873Q566.96875 28.490623 566.7031 28.318748Q566.4375 28.146873 566.0625 28.146873Q565.40625 28.146873 564.96875 28.584373Q564.5469 29.021873 564.5469 29.990623L564.5469 33.6L563.4844 33.6L563.4844 29.553123Q563.4844 28.849998 563.21875 28.506248Q562.96875 28.146873 562.3906 28.146873Q561.9375 28.146873 561.5625 28.381248Q561.1875 28.615623 561.0156 29.068748Q560.84375 29.521873 560.84375 30.365623L560.84375 33.6L559.7969 33.6ZM574.8594 32.834373Q574.2656 33.334373 573.71875 33.5375Q573.1875 33.740623 572.5625 33.740623Q571.53125 33.740623 570.9844 33.240623Q570.4375 32.740623 570.4375 31.959373Q570.4375 31.506248 570.6406 31.131248Q570.84375 30.740623 571.1875 30.521873Q571.53125 30.287498 571.9531 30.178123Q572.25 30.084373 572.8906 30.006248Q574.15625 29.865623 574.7656 29.646873Q574.7656 29.428123 574.7656 29.381248Q574.7656 28.724998 574.46875 28.459373Q574.0625 28.115623 573.2656 28.115623Q572.53125 28.115623 572.1719 28.381248Q571.8125 28.631248 571.6406 29.287498L570.6094 29.146873Q570.75 28.490623 571.0781 28.084373Q571.40625 27.678123 572.0156 27.459373Q572.625 27.240623 573.4219 27.240623Q574.21875 27.240623 574.71875 27.428123Q575.21875 27.615623 575.4531 27.896873Q575.6875 28.178123 575.78125 28.615623Q575.8281 28.881248 575.8281 29.584373L575.8281 30.990623Q575.8281 32.459373 575.8906 32.85Q575.96875 33.240623 576.1719 33.6L575.0625 33.6Q574.90625 33.271873 574.8594 32.834373ZM574.7656 30.474998Q574.1875 30.709373 573.0469 30.881248Q572.3906 30.974998 572.125 31.099998Q571.8594 31.209373 571.7031 31.428123Q571.5625 31.646873 571.5625 31.928123Q571.5625 32.35 571.875 32.63125Q572.2031 32.9125 572.8125 32.9125Q573.4219 32.9125 573.8906 32.646873Q574.375 32.38125 574.59375 31.912498Q574.7656 31.553123 574.7656 30.865623L574.7656 30.474998ZM577.78125 33.6L577.78125 27.381248L578.7344 27.381248L578.7344 28.318748Q579.09375 27.662498 579.3906 27.459373Q579.7031 27.240623 580.0781 27.240623Q580.6094 27.240623 581.15625 27.568748L580.7969 28.553123Q580.40625 28.318748 580.03125 28.318748Q579.6719 28.318748 579.3906 28.537498Q579.125 28.740623 579.0156 29.115623Q578.8281 29.678123 578.8281 30.334373L578.8281 33.6L577.78125 33.6ZM581.7969 33.6L581.7969 25.006248L582.8594 25.006248L582.8594 29.912498L585.34375 27.381248L586.71875 27.381248L584.3281 29.678123L586.9531 33.6L585.65625 33.6L583.59375 30.412498L582.8594 31.131248L582.8594 33.6L581.7969 33.6Z" fill-rule="nonzero"/></svg>