<svg version="1.1" viewBox="0.0 0.0 600.0 371.0" fill="none" stroke="none" stroke-linecap="square" stroke-miterlimit="10" width="600" height="371" xmlns:xlink="http://www.w3.org/1999/xlink" xmlns="http://www.w3.org/2000/svg"><path fill="#ffffff" d="M0 0L600.0 0L600.0 371.0L0 371.0L0 0Z" fill-rule="nonzero"/><clipPath id="id_0"><path d="M77.55 51.916668L533.45 51.916668L533.45 300.45L77.55 300.45L77.55 51.916668Z" clip-rule="nonzero"/></clipPath><path stroke="#000000" stroke-width="2.0" stroke-linecap="butt" stroke-opacity="0.0" clip-path="url(#id_0)" d="M114.0 300.0L90.0 300.0L90.0 288.0C90.0 286.89542 90.89543 286.0 92.0 286.0L112.0 286.0C113.10457 286.0 114.0 286.89542 114.0 288.0Z" fill-rule="nonzero"/><path fill="#3d85c6" clip-path="url(#id_0)" d="M114.0 300.0L90.0 300.0L90.0 288.0C90.0 286.89542 90.89543 286.0 92.0 286.0L112.0 286.0C113.10457 286.0 114.0 286.89542 114.0 288.0Z" fill-rule="nonzero"/><path stroke="#000000" stroke-width="2.0" stroke-linecap="butt" stroke-opacity="0.0" clip-path="url(#id_0)" d="M151.0 300.0L127.0 300.0L127.0 281.0C127.0 279.89542 127.89543 279.0 129.0 279.0L149.0 279.0C150.10457 279.0 151.0 279.89542 151.0 281.0Z" fill-rule="nonzero"/><path fill="#3d85c6" clip-path="url(#id_0)" d="M151.0 300.0L127.0 300.0L127.0 281.0C127.0 279.89542 127.89543 279.0 129.0 279.0L149.0 279.0C150.10457 279.0 151.0 279.89542 151.0 281.0Z" fill-rule="nonzero"/><path stroke="#000000" stroke-width="2.0" stroke-linecap="butt" stroke-opacity="0.0" clip-path="url(#id_0)" d="M188.0 300.0L164.0 300.0L164.0 272.0C164.0 270.89542 164.89543 270.0 166.0 270.0L186.0 270.0C187.10457 270.0 188.0 270.89542 188.0 272.0Z" fill-rule="nonzero"/><path fill="#3d85c6" clip-path="url(#id_0)" d="M188.0 300.0L164.0 300.0L164.0 272.0C164.0 270.89542 164.89543 270.0 166.0 270.0L186.0 270.0C187.10457 270.0 188.0 270.89542 188.0 272.0Z" fill-rule="nonzero"/><path stroke="#000000" stroke-width="2.0" stroke-linecap="butt" stroke-opacity="0.0" clip-path="url(#id_0)" d="M225.0 300.0L201.0 300.0L201.0 261.0C201.0 259.89542 201.89543 259.0 203.0 259.0L223.0 259.0C224.10457 259.0 225.0 259.89542 225.0 261.0Z" fill-rule="nonzero"/><path fill="#3d85c6" clip-path="url(#id_0)" d="M225.0 300.0L201.0 300.0L201.0 261.0C201.0 259.89542 201.89543 259.0 203.0 259.0L223.0 259.0C224.10457 259.0 225.0 259.89542 225.0 261.0Z" fill-rule="nonzero"/><path stroke="#000000" stroke-width="2.0" stroke-linecap="butt" stroke-opacity="0.0" clip-path="url(#id_0)" d="M262.0 300.0L238.0 300.0L238.0 248.0C238.0 246.89543 238.89543 246.0 240.0 246.0L260.0 246.0C261.10458 246.0 262.0 246.89543 262.0 248.0Z" fill-rule="nonzero"/><path fill="#3d85c6" clip-path="url(#id_0)" d="M262.0 300.0L238.0 300.0L238.0 248.0C238.0 246.89543 238.89543 246.0 240.0 246.0L260.0 246.0C261.10458 246.0 262.0 246.89543 262.0 248.0Z" fill-rule="nonzero"/><path stroke="#000000" stroke-width="2.0" stroke-linecap="butt" stroke-opacity="0.0" clip-path="url(#id_0)" d="M299.0 300.0L275.0 300.0L275.0 234.0C275.0 232.89543 275.89542 232.0 277.0 232.0L297.0 232.0C298.10458 232.0 299.0 232.89543 299.0 234.0Z" fill-rule="nonzero"/><path fill="#3d85c6" clip-path="url(#id_0)" d="M299.0 300.0L275.0 300.0L275.0 234.0C275.0 232.89543 275.89542 232.0 277.0 232.0L297.0 232.0C298.10458 232.0 299.0 232.89543 299.0 234.0Z" fill-rule="nonzero"/><path stroke="#000000" stroke-width="2.0" stroke-linecap="butt" stroke-opacity="0.0" clip-path="url(#id_0)" d="M336.0 300.0L312.0 300.0L312.0 217.0C312.0 215.89543 312.89542 215.0 314.0 215.0L334.0 215.0C335.10458 215.0 336.0 215.89543 336.0 217.0Z" fill-rule="nonzero"/><path fill="#3d85c6" clip-path="url(#id_0)" d="M336.0 300.0L312.0 300.0L312.0 217.0C312.0 215.89543 312.89542 215.0 314.0 215.0L334.0 215.0C335.10458 215.0 336.0 215.89543 336.0 217.0Z" fill-rule="nonzero"/><path stroke="#000000" stroke-width="2.0" stroke-linecap="butt" stroke-opacity="0.0" clip-path="url(#id_0)" d="M373.0 300.0L349.0 300.0L349.0 199.0C349.0 197.89543 349.89542 197.0 351.0 197.0L371.0 197.0C372.10458 197.0 373.0 197.89543 373.0 199.0Z" fill-rule="nonzero"/><path fill="#3d85c6" clip-path="url(#id_0)" d="M373.0 300.0L349.0 300.0L349.0 199.0C349.0 197.89543 349.89542 197.0 351.0 197.0L371.0 197.0C372.10458 197.0 373.0 197.89543 373.0 199.0Z" fill-rule="nonzero"/><path stroke="#000000" stroke-width="2.0" stroke-linecap="butt" stroke-opacity="0.0" clip-path="url(#id_0)" d="M410.0 300.0L386.0 300.0L386.0 179.0C386.0 177.89543 386.89542 177.0 388.0 177.0L408.0 177.0C409.10458 177.0 410.0 177.89543 410.0 179.0Z" fill-rule="nonzero"/><path fill="#3d85c6" clip-path="url(#id_0)" d="M410.0 300.0L386.0 300.0L386.0 179.0C386.0 177.89543 386.89542 177.0 388.0 177.0L408.0 177.0C409.10458 177.0 410.0 177.89543 410.0 179.0Z" fill-rule="nonzero"/><path stroke="#000000" stroke-width="2.0" stroke-linecap="butt" stroke-opacity="0.0" clip-path="url(#id_0)" d="M447.0 300.0L423.0 300.0L423.0 157.0C423.0 155.89543 423.89542 155.0 425.0 155.0L445.0 155.0C446.10458 155.0 447.0 155.89543 447.0 157.0Z" fill-rule="nonzero"/><path fill="#3d85c6" clip-path="url(#id_0)" d="M447.0 300.0L423.0 300.0L423.0 157.0C423.0 155.89543 423.89542 155.0 425.0 155.0L445.0 155.0C446.10458 155.0 447.0 155.89543 447.0 157.0Z" fill-rule="nonzero"/><path stroke="#000000" stroke-width="2.0" stroke-linecap="butt" stroke-opacity="0.0" clip-path="url(#id_0)" d="M484.0 300.0L460.0 300.0L460.0 133.0C460.0 131.89543 460.89542 131.0 462.0 131.0L482.0 131.0C483.10458 131.0 484.0 131.89543 484.0 133.0Z" fill-rule="nonzero"/><path fill="#3d85c6" clip-path="url(#id_0)" d="M484.0 300.0L460.0 300.0L460.0 133.0C460.0 131.89543 460.89542 131.0 462.0 131.0L482.0 131.0C483.10458 131.0 484.0 131.89543 484.0 133.0Z" fill-rule="nonzero"/><path stroke="#000000" stroke-width="2.0" stroke-linecap="butt" stroke-opacity="0.0" clip-path="url(#id_0)" d="M521.0 300.0L497.0 300.0L497.0 107.0C497.0 105.89543 497.89542 105.0 499.0 105.0L519.0 105.0C520.10455 105.0 521.0 105.89543 521.0 107.0Z" fill-rule="nonzero"/><path fill="#3d85c6" clip-path="url(#id_0)" d="M521.0 300.0L497.0 300.0L497.0 107.0C497.0 105.89543 497.89542 105.0 499.0 105.0L519.0 105.0C520.10455 105.0 521.0 105.89543 521.0 107.0Z" fill-rule="nonzero"/><path stroke="#cc0000" stroke-width="2.0" stroke-linecap="butt" clip-path="url(#id_0)" d="M102.46761 261.31226L139.38258 248.78818L176.29758 233.48097L213.21255 218.4471L250.12753 201.10033L287.0425 184.09453L323.9575 165.14522L360.87247 148.50345L397.78745 130.85309L434.70242 112.09959L471.6174 92.136185L508.53238 70.84188" fill-rule="nonzero"/><path stroke="#666666" stroke-width="4.0" stroke-linecap="butt" stroke-dasharray="4.0,5.0" clip-path="url(#id_0)" d="M102.46761 176.18333L139.38258 176.18333L176.29758 176.18333L213.21255 176.18333L250.12753 176.18333L287.0425 176.18333L323.9575 176.18333L360.87247 176.18333L397.78745 176.18333L434.70242 176.18333L471.6174 176.18333L508.53238 176.18333" fill-rule="nonzero"/><path fill="#000000" fill-opacity="0.0" clip-path="url(#id_0)" d="M105.46761 261.31226C105.46761 262.96912 104.124466 264.31226 102.46761 264.31226C100.81076 264.31226 99.46761 262.96912 99.46761 261.31226C99.46761 259.6554 100.81076 258.31226 102.46761 258.31226C104.124466 258.31226 105.46761 259.6554 105.46761 261.31226Z" fill-rule="nonzero"/><path fill="#000000" fill-opacity="0.0" clip-path="url(#id_0)" d="M142.38258 248.78818C142.38258 250.44502 141.03944 251.78818 139.38258 251.78818C137.72574 251.78818 136.38258 250.44502 136.38258 248.78818C136.38258 247.13132 137.72574 245.78818 139.38258 245.78818C141.03944 245.78818 142.38258 247.13132 142.38258 248.78818Z" fill-rule="nonzero"/><path fill="#000000" fill-opacity="0.0" clip-path="url(#id_0)" d="M179.29758 233.48097C179.29758 235.13782 177.95442 236.48097 176.29758 236.48097C174.64072 236.48097 173.29758 235.13782 173.29758 233.48097C173.29758 231.82411 174.64072 230.48097 176.29758 230.48097C177.95442 230.48097 179.29758 231.82411 179.29758 233.48097Z" fill-rule="nonzero"/><path fill="#000000" fill-opacity="0.0" clip-path="url(#id_0)" d="M216.21255 218.4471C216.21255 220.10396 214.8694 221.4471 213.21255 221.4471C211.5557 221.4471 210.21255 220.10396 210.21255 218.4471C210.21255 216.79025 211.5557 215.4471 213.21255 215.4471C214.8694 215.4471 216.21255 216.79025 216.21255 218.4471Z" fill-rule="nonzero"/><path fill="#000000" fill-opacity="0.0" clip-path="url(#id_0)" d="M253.12753 201.10033C253.12753 202.75719 251.78438 204.10033 250.12753 204.10033C248.47067 204.10033 247.12753 202.75719 247.12753 201.10033C247.12753 199.44348 248.47067 198.10033 250.12753 198.10033C251.78438 198.10033 253.12753 199.44348 253.12753 201.10033Z" fill-rule="nonzero"/><path fill="#000000" fill-opacity="0.0" clip-path="url(#id_0)" d="M290.0425 184.09453C290.0425 185.75139 288.69937 187.09453 287.0425 187.09453C285.38565 187.09453 284.0425 185.75139 284.0425 184.09453C284.0425 182.43768 285.38565 181.09453 287.0425 181.09453C288.69937 181.09453 290.0425 182.43768 290.0425 184.09453Z" fill-rule="nonzero"/><path fill="#000000" fill-opacity="0.0" clip-path="url(#id_0)" d="M326.9575 165.14522C326.9575 166.80206 325.61435 168.14522 323.9575 168.14522C322.30063 168.14522 320.9575 166.80206 320.9575 165.14522C320.9575 163.48836 322.30063 162.14522 323.9575 162.14522C325.61435 162.14522 326.9575 163.48836 326.9575 165.14522Z" fill-rule="nonzero"/><path fill="#000000" fill-opacity="0.0" clip-path="url(#id_0)" d="M363.87247 148.50345C363.87247 150.16031 362.52933 151.50345 360.87247 151.50345C359.2156 151.50345 357.87247 150.16031 357.87247 148.50345C357.87247 146.84659 359.2156 145.50345 360.87247 145.50345C362.52933 145.50345 363.87247 146.84659 363.87247 148.50345Z" fill-rule="nonzero"/><path fill="#000000" fill-opacity="0.0" clip-path="url(#id_0)" d="M400.78745 130.85309C400.78745 132.50995 399.4443 133.85309 397.78745 133.85309C396.13058 133.85309 394.78745 132.50995 394.78745 130.85309C394.78745 129.19624 396.13058 127.853096 397.78745 127.853096C399.4443 127.853096 400.78745 129.19624 400.78745 130.85309Z" fill-rule="nonzero"/><path fill="#000000" fill-opacity="0.0" clip-path="url(#id_0)" d="M437.70242 112.09959C437.70242 113.75644 436.35928 115.09959 434.70242 115.09959C433.04556 115.09959 431.70242 113.75644 431.70242 112.09959C431.70242 110.44273 433.04556 109.09959 434.70242 109.09959C436.35928 109.09959 437.70242 110.44273 437.70242 112.09959Z" fill-rule="nonzero"/><path fill="#000000" fill-opacity="0.0" clip-path="url(#id_0)" d="M474.6174 92.136185C474.6174 93.79304 473.27426 95.136185 471.6174 95.136185C469.96054 95.136185 468.6174 93.79304 468.6174 92.136185C468.6174 90.479324 469.96054 89.136185 471.6174 89.136185C473.27426 89.136185 474.6174 90.479324 474.6174 92.136185Z" fill-rule="nonzero"/><path fill="#000000" fill-opacity="0.0" clip-path="url(#id_0)" d="M511.53238 70.84188C511.53238 72.49873 510.18924 73.84188 508.53238 73.84188C506.87555 73.84188 505.53238 72.49873 505.53238 70.84188C505.53238 69.18503 506.87555 67.84188 508.53238 67.84188C510.18924 67.84188 511.53238 69.18503 511.53238 70.84188Z" fill-rule="nonzero"/><path fill="#000000" fill-opacity="0.0" clip-path="url(#id_0)" d="M105.46761 176.18333C105.46761 177.8402 104.124466 179.18333 102.46761 179.18333C100.81076 179.18333 99.46761 177.8402 99.46761 176.18333C99.46761 174.52647 100.81076 173.18333 102.46761 173.18333C104.124466 173.18333 105.46761 174.52647 105.46761 176.18333Z" fill-rule="nonzero"/><path fill="#000000" fill-opacity="0.0" clip-path="url(#id_0)" d="M142.38258 176.18333C142.38258 177.8402 141.03944 179.18333 139.38258 179.18333C137.72574 179.18333 136.38258 177.8402 136.38258 176.18333C136.38258 174.52647 137.72574 173.18333 139.38258 173.18333C141.03944 173.18333 142.38258 174.52647 142.38258 176.18333Z" fill-rule="nonzero"/><path fill="#000000" fill-opacity="0.0" clip-path="url(#id_0)" d="M179.29758 176.18333C179.29758 177.8402 177.95442 179.18333 176.29758 179.18333C174.64072 179.18333 173.29758 177.8402 173.29758 176.18333C173.29758 174.52647 174.64072 173.18333 176.29758 173.18333C177.95442 173.18333 179.29758 174.52647 179.29758 176.18333Z" fill-rule="nonzero"/><path fill="#000000" fill-opacity="0.0" clip-path="url(#id_0)" d="M216.21255 176.18333C216.21255 177.8402 214.8694 179.18333 213.21255 179.18333C211.5557 179.18333 210.21255 177.8402 210.21255 176.18333C210.21255 174.52647 211.5557 173.18333 213.21255 173.18333C214.8694 173.18333 216.21255 174.52647 216.21255 176.18333Z" fill-rule="nonzero"/><path fill="#000000" fill-opacity="0.0" clip-path="url(#id_0)" d="M253.12753 176.18333C253.12753 177.8402 251.78438 179.18333 250.12753 179.18333C248.47067 179.18333 247.12753 177.8402 247.12753 176.18333C247.12753 174.52647 248.47067 173.18333 250.12753 173.18333C251.78438 173.18333 253.12753 174.52647 253.12753 176.18333Z" fill-rule="nonzero"/><path fill="#000000" fill-opacity="0.0" clip-path="url(#id_0)" d="M290.0425 176.18333C290.0425 177.8402 288.69937 179.18333 287.0425 179.18333C285.38565 179.18333 284.0425 177.8402 284.0425 176.18333C284.0425 174.52647 285.38565 173.18333 287.0425 173.18333C288.69937 173.18333 290.0425 174.52647 290.0425 176.18333Z" fill-rule="nonzero"/><path fill="#000000" fill-opacity="0.0" clip-path="url(#id_0)" d="M326.9575 176.18333C326.9575 177.8402 325.61435 179.18333 323.9575 179.18333C322.30063 179.18333 320.9575 177.8402 320.9575 176.18333C320.9575 174.52647 322.30063 173.18333 323.9575 173.18333C325.61435 173.18333 326.9575 174.52647 326.9575 176.18333Z" fill-rule="nonzero"/><path fill="#000000" fill-opacity="0.0" clip-path="url(#id_0)" d="M363.87247 176.18333C363.87247 177.8402 362.52933 179.18333 360.87247 179.18333C359.2156 179.18333 357.87247 177.8402 357.87247 176.18333C357.87247 174.52647 359.2156 173.18333 360.87247 173.18333C362.52933 173.18333 363.87247 174.52647 363.87247 176.18333Z" fill-rule="nonzero"/><path fill="#000000" fill-opacity="0.0" clip-path="url(#id_0)" d="M400.78745 176.18333C400.78745 177.8402 399.4443 179.18333 397.78745 179.18333C396.13058 179.18333 394.78745 177.8402 394.78745 176.18333C394.78745 174.52647 396.13058 173.18333 397.78745 173.18333C399.4443 173.18333 400.78745 174.52647 400.78745 176.18333Z" fill-rule="nonzero"/><path fill="#000000" fill-opacity="0.0" clip-path="url(#id_0)" d="M437.70242 176.18333C437.70242 177.8402 436.35928 179.18333 434.70242 179.18333C433.04556 179.18333 431.70242 177.8402 431.70242 176.18333C431.70242 174.52647 433.04556 173.18333 434.70242 173.18333C436.35928 173.18333 437.70242 174.52647 437.70242 176.18333Z" fill-rule="nonzero"/><path fill="#000000" fill-opacity="0.0" clip-path="url(#id_0)" d="M474.6174 176.18333C474.6174 177.8402 473.27426 179.18333 471.6174 179.18333C469.96054 179.18333 468.6174 177.8402 468.6174 176.18333C468.6174 174.52647 469.96054 173.18333 471.6174 173.18333C473.27426 173.18333 474.6174 174.52647 474.6174 176.18333Z" fill-rule="nonzero"/><path fill="#000000" fill-opacity="0.0" clip-path="url(#id_0)" d="M511.53238 176.18333C511.53238 177.8402 510.18924 179.18333 508.53238 179.18333C506.87555 179.18333 505.53238 177.8402 505.53238 176.18333C505.53238 174.52647 506.87555 173.18333 508.53238 173.18333C510.18924 173.18333 511.53238 174.52647 511.53238 176.18333Z" fill-rule="nonzero"/><path fill="#000000" d="M281.89062 349.45L281.89062 340.85626L283.60938 340.85626L285.64062 346.9344Q285.92188 347.79376 286.04688 348.21564Q286.1875 347.7469 286.5 346.84064L288.5625 340.85626L290.09375 340.85626L290.09375 349.45L289.0 349.45L289.0 342.2625L286.5 349.45L285.46875 349.45L282.98438 342.1375L282.98438 349.45L281.89062 349.45ZM290.79688 342.075L290.79688 340.85626L291.85938 340.85626L291.85938 342.075L290.79688 342.075ZM290.79688 349.45L290.79688 343.23126L291.85938 343.23126L291.85938 349.45L290.79688 349.45ZM298.04688 347.45L299.14062 347.575Q298.89062 348.52814 298.1875 349.0594Q297.48438 349.59064 296.40625 349.59064Q295.04688 349.59064 294.23438 348.7469Q293.4375 347.90314 293.4375 346.3875Q293.4375 344.825 294.25 343.96564Q295.0625 343.09064 296.34375 343.09064Q297.59375 343.09064 298.375 343.9344Q299.17188 344.77814 299.17188 346.325Q299.17188 346.41876 299.17188 346.60626L294.53125 346.60626Q294.59375 347.6375 295.10938 348.1844Q295.625 348.71564 296.40625 348.71564Q296.98438 348.71564 297.39062 348.41876Q297.8125 348.10626 298.04688 347.45ZM294.59375 345.7469L298.0625 345.7469Q298.0 344.95 297.67188 344.5594Q297.15625 343.95 296.35938 343.95Q295.625 343.95 295.125 344.4344Q294.64062 344.91876 294.59375 345.7469ZM300.375 347.59064L301.40625 347.4344Q301.5 348.0594 301.89062 348.3875Q302.29688 348.71564 303.03125 348.71564Q303.75 348.71564 304.09375 348.4344Q304.45312 348.1375 304.45312 347.73126Q304.45312 347.3719 304.14062 347.16876Q303.92188 347.02814 303.0625 346.8094Q301.90625 346.5125 301.45312 346.3094Q301.01562 346.09064 300.78125 345.71564Q300.54688 345.34064 300.54688 344.8719Q300.54688 344.46564 300.73438 344.10626Q300.92188 343.7469 301.25 343.5125Q301.5 343.34064 301.92188 343.21564Q302.34375 343.09064 302.84375 343.09064Q303.5625 343.09064 304.10938 343.3094Q304.67188 343.5125 304.9375 343.8719Q305.20312 344.23126 305.29688 344.825L304.26562 344.96564Q304.20312 344.4969 303.85938 344.23126Q303.53125 343.95 302.90625 343.95Q302.1875 343.95 301.875 344.2Q301.5625 344.4344 301.5625 344.7625Q301.5625 344.96564 301.6875 345.1219Q301.82812 345.29376 302.09375 345.40314Q302.25 345.46564 303.03125 345.66876Q304.15625 345.98126 304.59375 346.16876Q305.03125 346.35626 305.28125 346.71564Q305.53125 347.075 305.53125 347.6219Q305.53125 348.15314 305.21875 348.6219Q304.92188 349.075 304.34375 349.34064Q303.76562 349.59064 303.03125 349.59064Q301.8125 349.59064 301.17188 349.09064Q300.54688 348.575 300.375 347.59064ZM307.79688 342.075L307.79688 340.85626L308.85938 340.85626L308.85938 342.075L307.79688 342.075ZM307.79688 349.45L307.79688 343.23126L308.85938 343.23126L308.85938 349.45L307.79688 349.45ZM314.85938 348.6844Q314.26562 349.1844 313.71875 349.3875Q313.1875 349.59064 312.5625 349.59064Q311.53125 349.59064 310.98438 349.09064Q310.4375 348.59064 310.4375 347.8094Q310.4375 347.35626 310.64062 346.98126Q310.84375 346.59064 311.1875 346.3719Q311.53125 346.1375 311.95312 346.02814Q312.25 345.9344 312.89062 345.85626Q314.15625 345.71564 314.76562 345.4969Q314.76562 345.27814 314.76562 345.23126Q314.76562 344.575 314.46875 344.3094Q314.0625 343.96564 313.26562 343.96564Q312.53125 343.96564 312.17188 344.23126Q311.8125 344.48126 311.64062 345.1375L310.60938 344.9969Q310.75 344.34064 311.07812 343.9344Q311.40625 343.52814 312.01562 343.3094Q312.625 343.09064 313.42188 343.09064Q314.21875 343.09064 314.71875 343.27814Q315.21875 343.46564 315.45312 343.7469Q315.6875 344.02814 315.78125 344.46564Q315.82812 344.73126 315.82812 345.4344L315.82812 346.84064Q315.82812 348.3094 315.89062 348.7Q315.96875 349.09064 316.17188 349.45L315.0625 349.45Q314.90625 349.1219 314.85938 348.6844ZM314.76562 346.325Q314.1875 346.5594 313.04688 346.73126Q312.39062 346.825 312.125 346.95Q311.85938 347.0594 311.70312 347.27814Q311.5625 347.4969 311.5625 347.77814Q311.5625 348.2 311.875 348.48126Q312.20312 348.7625 312.8125 348.7625Q313.42188 348.7625 313.89062 348.4969Q314.375 348.23126 314.59375 347.7625Q314.76562 347.40314 314.76562 346.71564L314.76562 346.325ZM315.9375 349.45Q315.60938 349.65314 315.42188 349.95Q315.23438 350.2625 315.23438 350.575Q315.23438 350.8094 315.375 350.98126Q315.51562 351.15314 315.8125 351.15314Q315.95312 351.15314 316.09375 351.10626Q316.23438 351.075 316.34375 351.0125L316.34375 351.7625Q315.92188 351.96564 315.54688 351.96564Q315.25 351.96564 315.03125 351.8719Q314.8125 351.79376 314.65625 351.6375Q314.51562 351.4969 314.4375 351.3094Q314.35938 351.1219 314.35938 350.8875Q314.35938 350.5125 314.5625 350.1375Q314.78125 349.7625 315.17188 349.45L315.9375 349.45ZM321.85938 347.16876L322.89062 347.3094Q322.71875 348.3719 322.01562 348.98126Q321.3125 349.59064 320.29688 349.59064Q319.01562 349.59064 318.23438 348.7625Q317.46875 347.91876 317.46875 346.35626Q317.46875 345.35626 317.79688 344.60626Q318.14062 343.84064 318.8125 343.46564Q319.5 343.09064 320.3125 343.09064Q321.3125 343.09064 321.95312 343.60626Q322.60938 344.10626 322.79688 345.0594L321.76562 345.21564Q321.625 344.59064 321.25 344.27814Q320.875 343.95 320.34375 343.95Q319.54688 343.95 319.04688 344.52814Q318.54688 345.09064 318.54688 346.325Q318.54688 347.59064 319.03125 348.15314Q319.51562 348.71564 320.28125 348.71564Q320.90625 348.71564 321.3125 348.34064Q321.73438 347.96564 321.85938 347.16876ZM328.04688 347.45L329.14062 347.575Q328.89062 348.52814 328.1875 349.0594Q327.48438 349.59064 326.40625 349.59064Q325.04688 349.59064 324.23438 348.7469Q323.4375 347.90314 323.4375 346.3875Q323.4375 344.825 324.25 343.96564Q325.0625 343.09064 326.34375 343.09064Q327.59375 343.09064 328.375 343.9344Q329.17188 344.77814 329.17188 346.325Q329.17188 346.41876 329.17188 346.60626L324.53125 346.60626Q324.59375 347.6375 325.10938 348.1844Q325.625 348.71564 326.40625 348.71564Q326.98438 348.71564 327.39062 348.41876Q327.8125 348.10626 328.04688 347.45ZM324.59375 345.7469L328.0625 345.7469Q328.0 344.95 327.67188 344.5594Q327.15625 343.95 326.35938 343.95Q325.625 343.95 325.125 344.4344Q324.64062 344.91876 324.59375 345.7469Z" fill-rule="nonzero"/><path fill="#000000" d="M29.550013 207.80833L20.956263 207.80833L20.956263 206.66771L28.534388 206.66771L28.534388 202.43333L29.550013 202.43333L29.550013 207.80833ZM29.550013 198.57396L21.971888 198.57396L21.971888 201.40208L20.956263 201.40208L20.956263 194.58958L21.971888 194.58958L21.971888 197.43333L29.550013 197.43333L29.550013 198.57396ZM29.550013 191.30833L20.956263 194.63646L20.956263 193.40208L27.206263 191.16771Q27.956263 190.90208 28.612513 190.71458Q27.909388 190.51146 27.206263 190.24583L20.956263 187.93333L20.956263 186.77708L29.550013 190.13646L29.550013 191.30833ZM29.690638 184.68333L20.815638 182.19896L20.815638 181.35521L29.690638 183.83958L29.690638 184.68333ZM26.534388 174.62083L26.831263 173.49583Q28.221888 173.85521 28.956263 174.77708Q29.690638 175.69896 29.690638 177.04271Q29.690638 178.43333 29.128138 179.30833Q28.565638 180.18333 27.503138 180.63646Q26.425013 181.08958 25.190638 181.08958Q23.846888 181.08958 22.846888 180.57396Q21.846888 180.05833 21.331263 179.12083Q20.815638 178.16771 20.815638 177.02708Q20.815638 175.74583 21.471888 174.87083Q22.128138 173.98021 23.315638 173.63646L23.581263 174.76146Q22.643763 175.05833 22.221888 175.63646Q21.784388 176.19896 21.784388 177.05833Q21.784388 178.04271 22.268763 178.71458Q22.737513 179.37083 23.534388 179.65208Q24.331263 179.91771 25.190638 179.91771Q26.284388 179.91771 27.096888 179.60521Q27.909388 179.27708 28.315638 178.60521Q28.721888 177.93333 28.721888 177.13646Q28.721888 176.18333 28.175013 175.52708Q27.628138 174.85521 26.534388 174.62083ZM29.550013 172.69896L20.956263 169.40208L20.956263 168.18333L29.550013 164.66771L29.550013 165.94896L26.940638 166.96458L26.940638 170.54271L29.550013 171.49583L29.550013 172.69896ZM26.018763 170.21458L26.018763 167.30833L23.643763 168.19896Q22.565638 168.62083 21.862513 168.80833Q22.690638 168.98021 23.503138 169.27708L26.018763 170.21458ZM26.534388 158.62083L26.831263 157.49583Q28.221888 157.85521 28.956263 158.77708Q29.690638 159.69896 29.690638 161.04271Q29.690638 162.43333 29.128138 163.30833Q28.565638 164.18333 27.503138 164.63646Q26.425013 165.08958 25.190638 165.08958Q23.846888 165.08958 22.846888 164.57396Q21.846888 164.05833 21.331263 163.12083Q20.815638 162.16771 20.815638 161.02708Q20.815638 159.74583 21.471888 158.87083Q22.128138 157.98021 23.315638 157.63646L23.581263 158.76146Q22.643763 159.05833 22.221888 159.63646Q21.784388 160.19896 21.784388 161.05833Q21.784388 162.04271 22.268763 162.71458Q22.737513 163.37083 23.534388 163.65208Q24.331263 163.91771 25.190638 163.91771Q26.284388 163.91771 27.096888 163.60521Q27.909388 163.27708 28.315638 162.60521Q28.721888 161.93333 28.721888 161.13646Q28.721888 160.18333 28.175013 159.52708Q27.628138 158.85521 26.534388 158.62083Z" fill-rule="nonzero"/><path fill="#000000" d="M65.05 300.21564Q65.05 298.6844 65.3625 297.7625Q65.675 296.825 66.28438 296.325Q66.90938 295.825 67.84688 295.825Q68.53438 295.825 69.05 296.10626Q69.58125 296.3875 69.925 296.91876Q70.26875 297.4344 70.45625 298.1844Q70.64375 298.9344 70.64375 300.21564Q70.64375 301.73126 70.33125 302.65314Q70.03438 303.575 69.40938 304.09064Q68.8 304.59064 67.84688 304.59064Q66.6125 304.59064 65.89375 303.7Q65.05 302.6375 65.05 300.21564ZM66.12813 300.21564Q66.12813 302.325 66.62813 303.02814Q67.12813 303.73126 67.84688 303.73126Q68.58125 303.73126 69.06563 303.02814Q69.56563 302.325 69.56563 300.21564Q69.56563 298.09064 69.06563 297.40314Q68.58125 296.7 67.83125 296.7Q67.1125 296.7 66.675 297.3094Q66.12813 298.09064 66.12813 300.21564Z" fill-rule="nonzero"/><path fill="#000000" d="M70.59688 220.58994L70.59688 221.60556L64.90938 221.60556Q64.90938 221.23056 65.03438 220.87119Q65.25313 220.29306 65.72188 219.73056Q66.20625 219.16806 67.1125 218.43369Q68.51875 217.27744 69.00313 216.60556Q69.50313 215.93369 69.50313 215.33994Q69.50313 214.71494 69.05 214.29306Q68.59688 213.85556 67.87813 213.85556Q67.1125 213.85556 66.65938 214.30869Q66.20625 214.76181 66.19063 215.57431L65.1125 215.46494Q65.22188 214.24619 65.94063 213.62119Q66.675 212.98056 67.90938 212.98056Q69.14375 212.98056 69.8625 213.66806Q70.58125 214.35556 70.58125 215.37119Q70.58125 215.88681 70.3625 216.38681Q70.15938 216.87119 69.65938 217.43369Q69.175 217.98056 68.05 218.93369Q67.09688 219.73056 66.81563 220.02744Q66.55 220.30869 66.37813 220.58994L70.59688 220.58994Z" fill-rule="nonzero"/><path fill="#000000" d="M68.425 138.76111L68.425 136.69861L64.70625 136.69861L64.70625 135.72986L68.62813 130.16736L69.4875 130.16736L69.4875 135.72986L70.64375 135.72986L70.64375 136.69861L69.4875 136.69861L69.4875 138.76111L68.425 138.76111ZM68.425 135.72986L68.425 131.87048L65.7375 135.72986L68.425 135.72986Z" fill-rule="nonzero"/><path fill="#000000" d="M70.51875 49.432293L69.47188 49.510418Q69.33125 48.885418 69.08125 48.604168Q68.64375 48.151043 68.01875 48.151043Q67.51875 48.151043 67.12813 48.432293Q66.64375 48.807293 66.34688 49.510418Q66.06563 50.197918 66.05 51.479168Q66.425 50.901043 66.97188 50.619793Q67.53438 50.338543 68.14375 50.338543Q69.19063 50.338543 69.925 51.119793Q70.675 51.901043 70.675 53.119793Q70.675 53.932293 70.31563 54.635418Q69.97188 55.322918 69.3625 55.697918Q68.75313 56.057293 67.9875 56.057293Q66.65938 56.057293 65.83125 55.088543Q65.00313 54.119793 65.00313 51.901043Q65.00313 49.401043 65.925 48.276043Q66.72188 47.291668 68.08125 47.291668Q69.09688 47.291668 69.7375 47.869793Q70.39375 48.432293 70.51875 49.432293ZM66.22188 53.135418Q66.22188 53.682293 66.44063 54.182293Q66.675 54.666668 67.08125 54.932293Q67.50313 55.197918 67.97188 55.197918Q68.62813 55.197918 69.1125 54.666668Q69.59688 54.119793 69.59688 53.197918Q69.59688 52.307293 69.1125 51.791668Q68.64375 51.276043 67.925 51.276043Q67.20625 51.276043 66.70625 51.791668Q66.22188 52.307293 66.22188 53.135418Z" fill-rule="nonzero"/><path fill="#000000" d="M539.95 300.21564Q539.95 298.6844 540.2625 297.7625Q540.575 296.825 541.1844 296.325Q541.8094 295.825 542.7469 295.825Q543.4344 295.825 543.95 296.10626Q544.48126 296.3875 544.825 296.91876Q545.16876 297.4344 545.35626 298.1844Q545.54376 298.9344 545.54376 300.21564Q545.54376 301.73126 545.23126 302.65314Q544.9344 303.575 544.3094 304.09064Q543.7 304.59064 542.7469 304.59064Q541.5125 304.59064 540.79376 303.7Q539.95 302.6375 539.95 300.21564ZM541.02814 300.21564Q541.02814 302.325 541.52814 303.02814Q542.02814 303.73126 542.7469 303.73126Q543.48126 303.73126 543.96564 303.02814Q544.46564 302.325 544.46564 300.21564Q544.46564 298.09064 543.96564 297.40314Q543.48126 296.7 542.73126 296.7Q542.0125 296.7 541.575 297.3094Q541.02814 298.09064 541.02814 300.21564Z" fill-rule="nonzero"/><path fill="#000000" d="M545.4969 241.30104L545.4969 242.31667L539.8094 242.31667Q539.8094 241.94167 539.9344 241.58229Q540.15314 241.00417 540.6219 240.44167Q541.10626 239.87917 542.0125 239.14479Q543.41876 237.98854 543.90314 237.31667Q544.40314 236.64479 544.40314 236.05104Q544.40314 235.42604 543.95 235.00417Q543.4969 234.56667 542.77814 234.56667Q542.0125 234.56667 541.5594 235.01979Q541.10626 235.47292 541.09064 236.28542L540.0125 236.17604Q540.1219 234.95729 540.84064 234.33229Q541.575 233.69167 542.8094 233.69167Q544.04376 233.69167 544.7625 234.37917Q545.48126 235.06667 545.48126 236.08229Q545.48126 236.59792 545.2625 237.09792Q545.0594 237.58229 544.5594 238.14479Q544.075 238.69167 542.95 239.64479Q541.9969 240.44167 541.71564 240.73854Q541.45 241.01979 541.27814 241.30104L545.4969 241.30104ZM546.95 238.08229Q546.95 236.55104 547.2625 235.62917Q547.575 234.69167 548.1844 234.19167Q548.8094 233.69167 549.7469 233.69167Q550.4344 233.69167 550.95 233.97292Q551.48126 234.25417 551.825 234.78542Q552.16876 235.30104 552.35626 236.05104Q552.54376 236.80104 552.54376 238.08229Q552.54376 239.59792 552.23126 240.51979Q551.9344 241.44167 551.3094 241.95729Q550.7 242.45729 549.7469 242.45729Q548.5125 242.45729 547.79376 241.56667Q546.95 240.50417 546.95 238.08229ZM548.02814 238.08229Q548.02814 240.19167 548.52814 240.89479Q549.02814 241.59792 549.7469 241.59792Q550.48126 241.59792 550.96564 240.89479Q551.46564 240.19167 551.46564 238.08229Q551.46564 235.95729 550.96564 235.26979Q550.48126 234.56667 549.73126 234.56667Q549.0125 234.56667 548.575 235.17604Q548.02814 235.95729 548.02814 238.08229ZM553.95 238.08229Q553.95 236.55104 554.2625 235.62917Q554.575 234.69167 555.1844 234.19167Q555.8094 233.69167 556.7469 233.69167Q557.4344 233.69167 557.95 233.97292Q558.48126 234.25417 558.825 234.78542Q559.16876 235.30104 559.35626 236.05104Q559.54376 236.80104 559.54376 238.08229Q559.54376 239.59792 559.23126 240.51979Q558.9344 241.44167 558.3094 241.95729Q557.7 242.45729 556.7469 242.45729Q555.5125 242.45729 554.79376 241.56667Q553.95 240.50417 553.95 238.08229ZM555.02814 238.08229Q555.02814 240.19167 555.52814 240.89479Q556.02814 241.59792 556.7469 241.59792Q557.48126 241.59792 557.96564 240.89479Q558.46564 240.19167 558.46564 238.08229Q558.46564 235.95729 557.96564 235.26979Q557.48126 234.56667 556.73126 234.56667Q556.0125 234.56667 555.575 235.17604Q555.02814 235.95729 555.02814 238.08229ZM560.95 238.08229Q560.95 236.55104 561.2625 235.62917Q561.575 234.69167 562.1844 234.19167Q562.8094 233.69167 563.7469 233.69167Q564.4344 233.69167 564.95 233.97292Q565.48126 234.25417 565.825 234.78542Q566.16876 235.30104 566.35626 236.05104Q566.54376 236.80104 566.54376 238.08229Q566.54376 239.59792 566.23126 240.51979Q565.9344 241.44167 565.3094 241.95729Q564.7 242.45729 563.7469 242.45729Q562.5125 242.45729 561.79376 241.56667Q560.95 240.50417 560.95 238.08229ZM562.02814 238.08229Q562.02814 240.19167 562.52814 240.89479Q563.02814 241.59792 563.7469 241.59792Q564.48126 241.59792 564.96564 240.89479Q565.46564 240.19167 565.46564 238.08229Q565.46564 235.95729 564.96564 235.26979Q564.48126 234.56667 563.73126 234.56667Q563.0125 234.56667 562.575 235.17604Q562.02814 235.95729 562.02814 238.08229ZM567.95 238.08229Q567.95 236.55104 568.2625 235.62917Q568.575 234.69167 569.1844 234.19167Q569.8094 233.69167 570.7469 233.69167Q571.4344 233.69167 571.95 233.97292Q572.48126 234.25417 572.825 234.78542Q573.16876 235.30104 573.35626 236.05104Q573.54376 236.80104 573.54376 238.08229Q573.54376 239.59792 573.23126 240.51979Q572.9344 241.44167 572.3094 241.95729Q571.7 242.45729 570.7469 242.45729Q569.5125 242.45729 568.79376 241.56667Q567.95 240.50417 567.95 238.08229ZM569.02814 238.08229Q569.02814 240.19167 569.52814 240.89479Q570.02814 241.59792 570.7469 241.59792Q571.48126 241.59792 571.96564 240.89479Q572.46564 240.19167 572.46564 238.08229Q572.46564 235.95729 571.96564 235.26979Q571.48126 234.56667 570.73126 234.56667Q570.0125 234.56667 569.575 235.17604Q569.02814 235.95729 569.02814 238.08229ZM574.95 238.08229Q574.95 236.55104 575.2625 235.62917Q575.575 234.69167 576.1844 234.19167Q576.8094 233.69167 577.7469 233.69167Q578.4344 233.69167 578.95 233.97292Q579.48126 234.25417 579.825 234.78542Q580.16876 235.30104 580.35626 236.05104Q580.54376 236.80104 580.54376 238.08229Q580.54376 239.59792 580.23126 240.51979Q579.9344 241.44167 579.3094 241.95729Q578.7 242.45729 577.7469 242.45729Q576.5125 242.45729 575.79376 241.56667Q574.95 240.50417 574.95 238.08229ZM576.02814 238.08229Q576.02814 240.19167 576.52814 240.89479Q577.02814 241.59792 577.7469 241.59792Q578.48126 241.59792 578.96564 240.89479Q579.46564 240.19167 579.46564 238.08229Q579.46564 235.95729 578.96564 235.26979Q578.48126 234.56667 577.73126 234.56667Q577.0125 234.56667 576.575 235.17604Q576.02814 235.95729 576.02814 238.08229Z" fill-rule="nonzero"/><path fill="#000000" d="M543.325 180.18333L543.325 178.12083L539.60626 178.12083L539.60626 177.15208L543.52814 171.58958L544.3875 171.58958L544.3875 177.15208L545.54376 177.15208L545.54376 178.12083L544.3875 178.12083L544.3875 180.18333L543.325 180.18333ZM543.325 177.15208L543.325 173.29271L540.6375 177.15208L543.325 177.15208ZM546.95 175.94896Q546.95 174.41771 547.2625 173.49583Q547.575 172.55833 548.1844 172.05833Q548.8094 171.55833 549.7469 171.55833Q550.4344 171.55833 550.95 171.83958Q551.48126 172.12083 551.825 172.65208Q552.16876 173.16771 552.35626 173.91771Q552.54376 174.66771 552.54376 175.94896Q552.54376 177.46458 552.23126 178.38646Q551.9344 179.30833 551.3094 179.82396Q550.7 180.32396 549.7469 180.32396Q548.5125 180.32396 547.79376 179.43333Q546.95 178.37083 546.95 175.94896ZM548.02814 175.94896Q548.02814 178.05833 548.52814 178.76146Q549.02814 179.46458 549.7469 179.46458Q550.48126 179.46458 550.96564 178.76146Q551.46564 178.05833 551.46564 175.94896Q551.46564 173.82396 550.96564 173.13646Q550.48126 172.43333 549.73126 172.43333Q549.0125 172.43333 548.575 173.04271Q548.02814 173.82396 548.02814 175.94896ZM553.95 175.94896Q553.95 174.41771 554.2625 173.49583Q554.575 172.55833 555.1844 172.05833Q555.8094 171.55833 556.7469 171.55833Q557.4344 171.55833 557.95 171.83958Q558.48126 172.12083 558.825 172.65208Q559.16876 173.16771 559.35626 173.91771Q559.54376 174.66771 559.54376 175.94896Q559.54376 177.46458 559.23126 178.38646Q558.9344 179.30833 558.3094 179.82396Q557.7 180.32396 556.7469 180.32396Q555.5125 180.32396 554.79376 179.43333Q553.95 178.37083 553.95 175.94896ZM555.02814 175.94896Q555.02814 178.05833 555.52814 178.76146Q556.02814 179.46458 556.7469 179.46458Q557.48126 179.46458 557.96564 178.76146Q558.46564 178.05833 558.46564 175.94896Q558.46564 173.82396 557.96564 173.13646Q557.48126 172.43333 556.73126 172.43333Q556.0125 172.43333 555.575 173.04271Q555.02814 173.82396 555.02814 175.94896ZM560.95 175.94896Q560.95 174.41771 561.2625 173.49583Q561.575 172.55833 562.1844 172.05833Q562.8094 171.55833 563.7469 171.55833Q564.4344 171.55833 564.95 171.83958Q565.48126 172.12083 565.825 172.65208Q566.16876 173.16771 566.35626 173.91771Q566.54376 174.66771 566.54376 175.94896Q566.54376 177.46458 566.23126 178.38646Q565.9344 179.30833 565.3094 179.82396Q564.7 180.32396 563.7469 180.32396Q562.5125 180.32396 561.79376 179.43333Q560.95 178.37083 560.95 175.94896ZM562.02814 175.94896Q562.02814 178.05833 562.52814 178.76146Q563.02814 179.46458 563.7469 179.46458Q564.48126 179.46458 564.96564 178.76146Q565.46564 178.05833 565.46564 175.94896Q565.46564 173.82396 564.96564 173.13646Q564.48126 172.43333 563.73126 172.43333Q563.0125 172.43333 562.575 173.04271Q562.02814 173.82396 562.02814 175.94896ZM567.95 175.94896Q567.95 174.41771 568.2625 173.49583Q568.575 172.55833 569.1844 172.05833Q569.8094 171.55833 570.7469 171.55833Q571.4344 171.55833 571.95 171.83958Q572.48126 172.12083 572.825 172.65208Q573.16876 173.16771 573.35626 173.91771Q573.54376 174.66771 573.54376 175.94896Q573.54376 177.46458 573.23126 178.38646Q572.9344 179.30833 572.3094 179.82396Q571.7 180.32396 570.7469 180.32396Q569.5125 180.32396 568.79376 179.43333Q567.95 178.37083 567.95 175.94896ZM569.02814 175.94896Q569.02814 178.05833 569.52814 178.76146Q570.02814 179.46458 570.7469 179.46458Q571.48126 179.46458 571.96564 178.76146Q572.46564 178.05833 572.46564 175.94896Q572.46564 173.82396 571.96564 173.13646Q571.48126 172.43333 570.73126 172.43333Q570.0125 172.43333 569.575 173.04271Q569.02814 173.82396 569.02814 175.94896ZM574.95 175.94896Q574.95 174.41771 575.2625 173.49583Q575.575 172.55833 576.1844 172.05833Q576.8094 171.55833 577.7469 171.55833Q578.4344 171.55833 578.95 171.83958Q579.48126 172.12083 579.825 172.65208Q580.16876 173.16771 580.35626 173.91771Q580.54376 174.66771 580.54376 175.94896Q580.54376 177.46458 580.23126 178.38646Q579.9344 179.30833 579.3094 179.82396Q578.7 180.32396 577.7469 180.32396Q576.5125 180.32396 575.79376 179.43333Q574.95 178.37083 574.95 175.94896ZM576.02814 175.94896Q576.02814 178.05833 576.52814 178.76146Q577.02814 179.46458 577.7469 179.46458Q578.48126 179.46458 578.96564 178.76146Q579.46564 178.05833 579.46564 175.94896Q579.46564 173.82396 578.96564 173.13646Q578.48126 172.43333 577.73126 172.43333Q577.0125 172.43333 576.575 173.04271Q576.02814 173.82396 576.02814 175.94896Z" fill-rule="nonzero"/><path fill="#000000" d="M545.41876 111.56563L544.3719 111.64375Q544.23126 111.01875 543.98126 110.7375Q543.54376 110.28438 542.91876 110.28438Q542.41876 110.28438 542.02814 110.56563Q541.54376 110.94063 541.2469 111.64375Q540.96564 112.33125 540.95 113.6125Q541.325 113.03438 541.8719 112.75313Q542.4344 112.47188 543.04376 112.47188Q544.09064 112.47188 544.825 113.25313Q545.575 114.03438 545.575 115.25313Q545.575 116.06563 545.21564 116.76875Q544.8719 117.45625 544.2625 117.83125Q543.65314 118.19063 542.8875 118.19063Q541.5594 118.19063 540.73126 117.22188Q539.90314 116.25313 539.90314 114.03438Q539.90314 111.53438 540.825 110.40938Q541.6219 109.425 542.98126 109.425Q543.9969 109.425 544.6375 110.00313Q545.29376 110.56563 545.41876 111.56563ZM541.1219 115.26875Q541.1219 115.81563 541.34064 116.31563Q541.575 116.8 541.98126 117.06563Q542.40314 117.33125 542.8719 117.33125Q543.52814 117.33125 544.0125 116.8Q544.4969 116.25313 544.4969 115.33125Q544.4969 114.44063 544.0125 113.925Q543.54376 113.40938 542.825 113.40938Q542.10626 113.40938 541.60626 113.925Q541.1219 114.44063 541.1219 115.26875ZM546.95 113.81563Q546.95 112.28438 547.2625 111.3625Q547.575 110.425 548.1844 109.925Q548.8094 109.425 549.7469 109.425Q550.4344 109.425 550.95 109.70625Q551.48126 109.9875 551.825 110.51875Q552.16876 111.03438 552.35626 111.78438Q552.54376 112.53438 552.54376 113.81563Q552.54376 115.33125 552.23126 116.25313Q551.9344 117.175 551.3094 117.69063Q550.7 118.19063 549.7469 118.19063Q548.5125 118.19063 547.79376 117.3Q546.95 116.2375 546.95 113.81563ZM548.02814 113.81563Q548.02814 115.925 548.52814 116.62813Q549.02814 117.33125 549.7469 117.33125Q550.48126 117.33125 550.96564 116.62813Q551.46564 115.925 551.46564 113.81563Q551.46564 111.69063 550.96564 111.00313Q550.48126 110.3 549.73126 110.3Q549.0125 110.3 548.575 110.90938Q548.02814 111.69063 548.02814 113.81563ZM553.95 113.81563Q553.95 112.28438 554.2625 111.3625Q554.575 110.425 555.1844 109.925Q555.8094 109.425 556.7469 109.425Q557.4344 109.425 557.95 109.70625Q558.48126 109.9875 558.825 110.51875Q559.16876 111.03438 559.35626 111.78438Q559.54376 112.53438 559.54376 113.81563Q559.54376 115.33125 559.23126 116.25313Q558.9344 117.175 558.3094 117.69063Q557.7 118.19063 556.7469 118.19063Q555.5125 118.19063 554.79376 117.3Q553.95 116.2375 553.95 113.81563ZM555.02814 113.81563Q555.02814 115.925 555.52814 116.62813Q556.02814 117.33125 556.7469 117.33125Q557.48126 117.33125 557.96564 116.62813Q558.46564 115.925 558.46564 113.81563Q558.46564 111.69063 557.96564 111.00313Q557.48126 110.3 556.73126 110.3Q556.0125 110.3 555.575 110.90938Q555.02814 111.69063 555.02814 113.81563ZM560.95 113.81563Q560.95 112.28438 561.2625 111.3625Q561.575 110.425 562.1844 109.925Q562.8094 109.425 563.7469 109.425Q564.4344 109.425 564.95 109.70625Q565.48126 109.9875 565.825 110.51875Q566.16876 111.03438 566.35626 111.78438Q566.54376 112.53438 566.54376 113.81563Q566.54376 115.33125 566.23126 116.25313Q565.9344 117.175 565.3094 117.69063Q564.7 118.19063 563.7469 118.19063Q562.5125 118.19063 561.79376 117.3Q560.95 116.2375 560.95 113.81563ZM562.02814 113.81563Q562.02814 115.925 562.52814 116.62813Q563.02814 117.33125 563.7469 117.33125Q564.48126 117.33125 564.96564 116.62813Q565.46564 115.925 565.46564 113.81563Q565.46564 111.69063 564.96564 111.00313Q564.48126 110.3 563.73126 110.3Q563.0125 110.3 562.575 110.90938Q562.02814 111.69063 562.02814 113.81563ZM567.95 113.81563Q567.95 112.28438 568.2625 111.3625Q568.575 110.425 569.1844 109.925Q569.8094 109.425 570.7469 109.425Q571.4344 109.425 571.95 109.70625Q572.48126 109.9875 572.825 110.51875Q573.16876 111.03438 573.35626 111.78438Q573.54376 112.53438 573.54376 113.81563Q573.54376 115.33125 573.23126 116.25313Q572.9344 117.175 572.3094 117.69063Q571.7 118.19063 570.7469 118.19063Q569.5125 118.19063 568.79376 117.3Q567.95 116.2375 567.95 113.81563ZM569.02814 113.81563Q569.02814 115.925 569.52814 116.62813Q570.02814 117.33125 570.7469 117.33125Q571.48126 117.33125 571.96564 116.62813Q572.46564 115.925 572.46564 113.81563Q572.46564 111.69063 571.96564 111.00313Q571.48126 110.3 570.73126 110.3Q570.0125 110.3 569.575 110.90938Q569.02814 111.69063 569.02814 113.81563ZM574.95 113.81563Q574.95 112.28438 575.2625 111.3625Q575.575 110.425 576.1844 109.925Q576.8094 109.425 577.7469 109.425Q578.4344 109.425 578.95 109.70625Q579.48126 109.9875 579.825 110.51875Q580.16876 111.03438 580.35626 111.78438Q580.54376 112.53438 580.54376 113.81563Q580.54376 115.33125 580.23126 116.25313Q579.9344 117.175 579.3094 117.69063Q578.7 118.19063 577.7469 118.19063Q576.5125 118.19063 575.79376 117.3Q574.95 116.2375 574.95 113.81563ZM576.02814 113.81563Q576.02814 115.925 576.52814 116.62813Q577.02814 117.33125 577.7469 117.33125Q578.48126 117.33125 578.96564 116.62813Q579.46564 115.925 579.46564 113.81563Q579.46564 111.69063 578.96564 111.00313Q578.48126 110.3 577.73126 110.3Q577.0125 110.3 576.575 110.90938Q576.02814 111.69063 576.02814 113.81563Z" fill-rule="nonzero"/><path fill="#000000" d="M541.575 51.260418Q540.91876 51.010418 540.59064 50.572918Q540.27814 50.119793 540.27814 49.510418Q540.27814 48.572918 540.95 47.932293Q541.6375 47.291668 542.7469 47.291668Q543.8719 47.291668 544.5594 47.947918Q545.2469 48.604168 545.2469 49.541668Q545.2469 50.135418 544.9344 50.572918Q544.6219 51.010418 543.98126 51.260418Q544.77814 51.510418 545.1844 52.088543Q545.59064 52.666668 545.59064 53.463543Q545.59064 54.557293 544.8094 55.307293Q544.04376 56.057293 542.7625 56.057293Q541.4969 56.057293 540.71564 55.307293Q539.9344 54.557293 539.9344 53.432293Q539.9344 52.588543 540.35626 52.026043Q540.79376 51.463543 541.575 51.260418ZM541.35626 49.463543Q541.35626 50.072918 541.7469 50.463543Q542.15314 50.854168 542.77814 50.854168Q543.3875 50.854168 543.77814 50.479168Q544.16876 50.088543 544.16876 49.526043Q544.16876 48.947918 543.7625 48.557293Q543.35626 48.151043 542.7625 48.151043Q542.15314 48.151043 541.7469 48.541668Q541.35626 48.932293 541.35626 49.463543ZM541.02814 53.432293Q541.02814 53.885418 541.23126 54.307293Q541.45 54.729168 541.8719 54.963543Q542.29376 55.197918 542.77814 55.197918Q543.52814 55.197918 544.0125 54.713543Q544.5125 54.229168 544.5125 53.479168Q544.5125 52.713543 544.0125 52.213543Q543.5125 51.713543 542.7469 51.713543Q541.9969 51.713543 541.5125 52.213543Q541.02814 52.697918 541.02814 53.432293ZM546.95 51.682293Q546.95 50.151043 547.2625 49.229168Q547.575 48.291668 548.1844 47.791668Q548.8094 47.291668 549.7469 47.291668Q550.4344 47.291668 550.95 47.572918Q551.48126 47.854168 551.825 48.385418Q552.16876 48.901043 552.35626 49.651043Q552.54376 50.401043 552.54376 51.682293Q552.54376 53.197918 552.23126 54.119793Q551.9344 55.041668 551.3094 55.557293Q550.7 56.057293 549.7469 56.057293Q548.5125 56.057293 547.79376 55.166668Q546.95 54.104168 546.95 51.682293ZM548.02814 51.682293Q548.02814 53.791668 548.52814 54.494793Q549.02814 55.197918 549.7469 55.197918Q550.48126 55.197918 550.96564 54.494793Q551.46564 53.791668 551.46564 51.682293Q551.46564 49.557293 550.96564 48.869793Q550.48126 48.166668 549.73126 48.166668Q549.0125 48.166668 548.575 48.776043Q548.02814 49.557293 548.02814 51.682293ZM553.95 51.682293Q553.95 50.151043 554.2625 49.229168Q554.575 48.291668 555.1844 47.791668Q555.8094 47.291668 556.7469 47.291668Q557.4344 47.291668 557.95 47.572918Q558.48126 47.854168 558.825 48.385418Q559.16876 48.901043 559.35626 49.651043Q559.54376 50.401043 559.54376 51.682293Q559.54376 53.197918 559.23126 54.119793Q558.9344 55.041668 558.3094 55.557293Q557.7 56.057293 556.7469 56.057293Q555.5125 56.057293 554.79376 55.166668Q553.95 54.104168 553.95 51.682293ZM555.02814 51.682293Q555.02814 53.791668 555.52814 54.494793Q556.02814 55.197918 556.7469 55.197918Q557.48126 55.197918 557.96564 54.494793Q558.46564 53.791668 558.46564 51.682293Q558.46564 49.557293 557.96564 48.869793Q557.48126 48.166668 556.73126 48.166668Q556.0125 48.166668 555.575 48.776043Q555.02814 49.557293 555.02814 51.682293ZM560.95 51.682293Q560.95 50.151043 561.2625 49.229168Q561.575 48.291668 562.1844 47.791668Q562.8094 47.291668 563.7469 47.291668Q564.4344 47.291668 564.95 47.572918Q565.48126 47.854168 565.825 48.385418Q566.16876 48.901043 566.35626 49.651043Q566.54376 50.401043 566.54376 51.682293Q566.54376 53.197918 566.23126 54.119793Q565.9344 55.041668 565.3094 55.557293Q564.7 56.057293 563.7469 56.057293Q562.5125 56.057293 561.79376 55.166668Q560.95 54.104168 560.95 51.682293ZM562.02814 51.682293Q562.02814 53.791668 562.52814 54.494793Q563.02814 55.197918 563.7469 55.197918Q564.48126 55.197918 564.96564 54.494793Q565.46564 53.791668 565.46564 51.682293Q565.46564 49.557293 564.96564 48.869793Q564.48126 48.166668 563.73126 48.166668Q563.0125 48.166668 562.575 48.776043Q562.02814 49.557293 562.02814 51.682293ZM567.95 51.682293Q567.95 50.151043 568.2625 49.229168Q568.575 48.291668 569.1844 47.791668Q569.8094 47.291668 570.7469 47.291668Q571.4344 47.291668 571.95 47.572918Q572.48126 47.854168 572.825 48.385418Q573.16876 48.901043 573.35626 49.651043Q573.54376 50.401043 573.54376 51.682293Q573.54376 53.197918 573.23126 54.119793Q572.9344 55.041668 572.3094 55.557293Q571.7 56.057293 570.7469 56.057293Q569.5125 56.057293 568.79376 55.166668Q567.95 54.104168 567.95 51.682293ZM569.02814 51.682293Q569.02814 53.791668 569.52814 54.494793Q570.02814 55.197918 570.7469 55.197918Q571.48126 55.197918 571.96564 54.494793Q572.46564 53.791668 572.46564 51.682293Q572.46564 49.557293 571.96564 48.869793Q571.48126 48.166668 570.73126 48.166668Q570.0125 48.166668 569.575 48.776043Q569.02814 49.557293 569.02814 51.682293ZM574.95 51.682293Q574.95 50.151043 575.2625 49.229168Q575.575 48.291668 576.1844 47.791668Q576.8094 47.291668 577.7469 47.291668Q578.4344 47.291668 578.95 47.572918Q579.48126 47.854168 579.825 48.385418Q580.16876 48.901043 580.35626 49.651043Q580.54376 50.401043 580.54376 51.682293Q580.54376 53.197918 580.23126 54.119793Q579.9344 55.041668 579.3094 55.557293Q578.7 56.057293 577.7469 56.057293Q576.5125 56.057293 575.79376 55.166668Q574.95 54.104168 574.95 51.682293ZM576.02814 51.682293Q576.02814 53.791668 576.52814 54.494793Q577.02814 55.197918 577.7469 55.197918Q578.48126 55.197918 578.96564 54.494793Q579.46564 53.791668 579.46564 51.682293Q579.46564 49.557293 578.96564 48.869793Q578.48126 48.166668 577.73126 48.166668Q577.0125 48.166668 576.575 48.776043Q576.02814 49.557293 576.02814 51.682293Z" fill-rule="nonzero"/><path fill="#000000" d="M103.43636 317.45L102.38949 317.45L102.38949 310.73126Q101.99886 311.09064 101.37386 311.46564Q100.76449 311.825 100.28011 311.9969L100.28011 310.98126Q101.15511 310.5594 101.81136 309.98126Q102.48324 309.3875 102.76449 308.825L103.43636 308.825L103.43636 317.45Z" fill-rule="nonzero"/><path fill="#000000" d="M141.92946 316.4344L141.92946 317.45L136.24196 317.45Q136.24196 317.075 136.36696 316.71564Q136.58571 316.1375 137.05446 315.575Q137.53883 315.0125 138.44508 314.27814Q139.85133 313.1219 140.33571 312.45Q140.83571 311.77814 140.83571 311.1844Q140.83571 310.5594 140.38258 310.1375Q139.92946 309.7 139.21071 309.7Q138.44508 309.7 137.99196 310.15314Q137.53883 310.60626 137.52321 311.41876L136.44508 311.3094Q136.55446 310.09064 137.27321 309.46564Q138.00758 308.825 139.24196 308.825Q140.47633 308.825 141.19508 309.5125Q141.91383 310.2 141.91383 311.21564Q141.91383 311.73126 141.69508 312.23126Q141.49196 312.71564 140.99196 313.27814Q140.50758 313.825 139.38258 314.77814Q138.42946 315.575 138.14821 315.8719Q137.88258 316.15314 137.71071 316.4344L141.92946 316.4344Z" fill-rule="nonzero"/><path fill="#000000" d="M173.29758 315.1844L174.36008 315.04376Q174.53195 315.9344 174.96945 316.34064Q175.40695 316.73126 176.03195 316.73126Q176.78195 316.73126 177.29758 316.21564Q177.8132 315.7 177.8132 314.9344Q177.8132 314.21564 177.32883 313.7469Q176.86008 313.2625 176.1257 313.2625Q175.82883 313.2625 175.3757 313.3875L175.5007 312.45Q175.61008 312.46564 175.67258 312.46564Q176.34445 312.46564 176.8757 312.1219Q177.42258 311.7625 177.42258 311.02814Q177.42258 310.45 177.03195 310.075Q176.64133 309.6844 176.01633 309.6844Q175.40695 309.6844 174.98508 310.075Q174.57883 310.46564 174.46945 311.23126L173.40695 311.04376Q173.59445 309.9969 174.28195 309.41876Q174.96945 308.825 175.98508 308.825Q176.6882 308.825 177.28195 309.1375Q177.8757 309.4344 178.1882 309.95Q178.5007 310.46564 178.5007 311.0594Q178.5007 311.60626 178.20383 312.075Q177.90695 312.52814 177.32883 312.79376Q178.07883 312.96564 178.5007 313.52814Q178.92258 314.075 178.92258 314.91876Q178.92258 316.04376 178.09445 316.825Q177.28195 317.60626 176.03195 317.60626Q174.90695 317.60626 174.15695 316.9344Q173.40695 316.2469 173.29758 315.1844Z" fill-rule="nonzero"/><path fill="#000000" d="M213.58755 317.45L213.58755 315.3875L209.8688 315.3875L209.8688 314.41876L213.79068 308.85626L214.65005 308.85626L214.65005 314.41876L215.8063 314.41876L215.8063 315.3875L214.65005 315.3875L214.65005 317.45L213.58755 317.45ZM213.58755 314.41876L213.58755 310.5594L210.90005 314.41876L213.58755 314.41876Z" fill-rule="nonzero"/><path fill="#000000" d="M247.12753 315.2L248.23691 315.10626Q248.36191 315.91876 248.79941 316.325Q249.25253 316.73126 249.89316 316.73126Q250.64316 316.73126 251.17441 316.15314Q251.70566 315.575 251.70566 314.6375Q251.70566 313.73126 251.19003 313.21564Q250.69003 312.6844 249.86191 312.6844Q249.36191 312.6844 248.94003 312.91876Q248.53378 313.15314 248.29941 313.5125L247.31503 313.3875L248.14316 308.98126L252.42441 308.98126L252.42441 309.98126L248.98691 309.98126L248.53378 312.29376Q249.29941 311.7469 250.14316 311.7469Q251.26816 311.7469 252.03378 312.52814Q252.81503 313.3094 252.81503 314.54376Q252.81503 315.7 252.14316 316.5594Q251.31503 317.59064 249.89316 317.59064Q248.72128 317.59064 247.97128 316.9344Q247.23691 316.27814 247.12753 315.2Z" fill-rule="nonzero"/><path fill="#000000" d="M289.51126 310.96564L288.4644 311.04376Q288.32376 310.41876 288.07376 310.1375Q287.63626 309.6844 287.01126 309.6844Q286.51126 309.6844 286.12064 309.96564Q285.63626 310.34064 285.3394 311.04376Q285.05814 311.73126 285.0425 313.0125Q285.4175 312.4344 285.9644 312.15314Q286.5269 311.8719 287.13626 311.8719Q288.18314 311.8719 288.9175 312.65314Q289.6675 313.4344 289.6675 314.65314Q289.6675 315.46564 289.30814 316.16876Q288.9644 316.85626 288.355 317.23126Q287.74564 317.59064 286.98 317.59064Q285.6519 317.59064 284.82376 316.6219Q283.99564 315.65314 283.99564 313.4344Q283.99564 310.9344 284.9175 309.8094Q285.7144 308.825 287.07376 308.825Q288.0894 308.825 288.73 309.40314Q289.38626 309.96564 289.51126 310.96564ZM285.2144 314.66876Q285.2144 315.21564 285.43314 315.71564Q285.6675 316.2 286.07376 316.46564Q286.49564 316.73126 286.9644 316.73126Q287.62064 316.73126 288.105 316.2Q288.5894 315.65314 288.5894 314.73126Q288.5894 313.84064 288.105 313.325Q287.63626 312.8094 286.9175 312.8094Q286.19876 312.8094 285.69876 313.325Q285.2144 313.84064 285.2144 314.66876Z" fill-rule="nonzero"/><path fill="#000000" d="M321.02 309.98126L321.02 308.96564L326.5825 308.96564L326.5825 309.79376Q325.77 310.66876 324.9575 312.1219Q324.1606 313.5594 323.7231 315.09064Q323.395 316.16876 323.31686 317.45L322.2231 317.45Q322.23874 316.4344 322.61374 314.9969Q323.00436 313.5594 323.7075 312.23126Q324.42624 310.90314 325.23874 309.98126L321.02 309.98126Z" fill-rule="nonzero"/><path fill="#000000" d="M359.49747 312.79376Q358.84122 312.54376 358.5131 312.10626Q358.2006 311.65314 358.2006 311.04376Q358.2006 310.10626 358.87247 309.46564Q359.55997 308.825 360.66934 308.825Q361.79434 308.825 362.48184 309.48126Q363.16934 310.1375 363.16934 311.075Q363.16934 311.66876 362.85684 312.10626Q362.54434 312.54376 361.90372 312.79376Q362.7006 313.04376 363.10684 313.6219Q363.5131 314.2 363.5131 314.9969Q363.5131 316.09064 362.73184 316.84064Q361.96622 317.59064 360.68497 317.59064Q359.41934 317.59064 358.6381 316.84064Q357.85684 316.09064 357.85684 314.96564Q357.85684 314.1219 358.27872 313.5594Q358.71622 312.9969 359.49747 312.79376ZM359.27872 310.9969Q359.27872 311.60626 359.66934 311.9969Q360.0756 312.3875 360.7006 312.3875Q361.30997 312.3875 361.7006 312.0125Q362.09122 311.6219 362.09122 311.0594Q362.09122 310.48126 361.68497 310.09064Q361.27872 309.6844 360.68497 309.6844Q360.0756 309.6844 359.66934 310.075Q359.27872 310.46564 359.27872 310.9969ZM358.9506 314.96564Q358.9506 315.41876 359.15372 315.84064Q359.37247 316.2625 359.79434 316.4969Q360.21622 316.73126 360.7006 316.73126Q361.4506 316.73126 361.93497 316.2469Q362.43497 315.7625 362.43497 315.0125Q362.43497 314.2469 361.93497 313.7469Q361.43497 313.2469 360.66934 313.2469Q359.91934 313.2469 359.43497 313.7469Q358.9506 314.23126 358.9506 314.96564Z" fill-rule="nonzero"/><path fill="#000000" d="M394.9437 315.46564L395.95932 315.3719Q396.08432 316.09064 396.4437 316.41876Q396.8187 316.73126 397.3812 316.73126Q397.86557 316.73126 398.22495 316.5125Q398.59995 316.27814 398.83432 315.91876Q399.0687 315.54376 399.22495 314.91876Q399.3812 314.27814 399.3812 313.6219Q399.3812 313.54376 399.3812 313.40314Q399.0687 313.90314 398.52182 314.23126Q397.97495 314.54376 397.33432 314.54376Q396.2562 314.54376 395.52182 313.77814Q394.78745 312.9969 394.78745 311.73126Q394.78745 310.41876 395.55307 309.6219Q396.33432 308.825 397.49057 308.825Q398.3187 308.825 399.0062 309.27814Q399.70932 309.73126 400.0687 310.575Q400.42807 311.40314 400.42807 312.98126Q400.42807 314.6219 400.0687 315.60626Q399.72495 316.575 399.0062 317.09064Q398.30307 317.59064 397.36557 317.59064Q396.34995 317.59064 395.70932 317.04376Q395.0687 316.48126 394.9437 315.46564ZM399.2562 311.66876Q399.2562 310.7625 398.77182 310.23126Q398.30307 309.7 397.61557 309.7Q396.91245 309.7 396.3812 310.27814Q395.86557 310.84064 395.86557 311.7625Q395.86557 312.575 396.36557 313.09064Q396.86557 313.60626 397.58432 313.60626Q398.3187 313.60626 398.78745 313.09064Q399.2562 312.575 399.2562 311.66876Z" fill-rule="nonzero"/><path fill="#000000" d="M432.17117 317.45L431.1243 317.45L431.1243 310.73126Q430.73367 311.09064 430.10867 311.46564Q429.4993 311.825 429.01492 311.9969L429.01492 310.98126Q429.88992 310.5594 430.54617 309.98126Q431.21805 309.3875 431.4993 308.825L432.17117 308.825L432.17117 317.45ZM435.20242 313.21564Q435.20242 311.6844 435.51492 310.7625Q435.82742 309.825 436.4368 309.325Q437.0618 308.825 437.9993 308.825Q438.6868 308.825 439.20242 309.10626Q439.73367 309.3875 440.07742 309.91876Q440.42117 310.4344 440.60867 311.1844Q440.79617 311.9344 440.79617 313.21564Q440.79617 314.73126 440.48367 315.65314Q440.1868 316.575 439.5618 317.09064Q438.95242 317.59064 437.9993 317.59064Q436.76492 317.59064 436.04617 316.7Q435.20242 315.6375 435.20242 313.21564ZM436.28055 313.21564Q436.28055 315.325 436.78055 316.02814Q437.28055 316.73126 437.9993 316.73126Q438.73367 316.73126 439.21805 316.02814Q439.71805 315.325 439.71805 313.21564Q439.71805 311.09064 439.21805 310.40314Q438.73367 309.7 437.98367 309.7Q437.26492 309.7 436.82742 310.3094Q436.28055 311.09064 436.28055 313.21564Z" fill-rule="nonzero"/><path fill="#000000" d="M469.08615 317.45L468.03928 317.45L468.03928 310.73126Q467.64865 311.09064 467.02365 311.46564Q466.41428 311.825 465.9299 311.9969L465.9299 310.98126Q466.8049 310.5594 467.46115 309.98126Q468.13303 309.3875 468.41428 308.825L469.08615 308.825L469.08615 317.45ZM476.08615 317.45L475.03928 317.45L475.03928 310.73126Q474.64865 311.09064 474.02365 311.46564Q473.41428 311.825 472.9299 311.9969L472.9299 310.98126Q473.8049 310.5594 474.46115 309.98126Q475.13303 309.3875 475.41428 308.825L476.08615 308.825L476.08615 317.45Z" fill-rule="nonzero"/><path fill="#000000" d="M506.00113 317.45L504.95425 317.45L504.95425 310.73126Q504.56363 311.09064 503.93863 311.46564Q503.32925 311.825 502.84488 311.9969L502.84488 310.98126Q503.71988 310.5594 504.37613 309.98126Q505.048 309.3875 505.32925 308.825L506.00113 308.825L506.00113 317.45ZM514.5792 316.4344L514.5792 317.45L508.89175 317.45Q508.89175 317.075 509.01675 316.71564Q509.2355 316.1375 509.70425 315.575Q510.18863 315.0125 511.09488 314.27814Q512.5011 313.1219 512.9855 312.45Q513.4855 311.77814 513.4855 311.1844Q513.4855 310.5594 513.03235 310.1375Q512.5792 309.7 511.8605 309.7Q511.09488 309.7 510.64175 310.15314Q510.18863 310.60626 510.173 311.41876L509.09488 311.3094Q509.20425 310.09064 509.923 309.46564Q510.65738 308.825 511.89175 308.825Q513.1261 308.825 513.84485 309.5125Q514.5636 310.2 514.5636 311.21564Q514.5636 311.73126 514.34485 312.23126Q514.1417 312.71564 513.6417 313.27814Q513.15735 313.825 512.03235 314.77814Q511.07925 315.575 510.798 315.8719Q510.53238 316.15314 510.3605 316.4344L514.5792 316.4344Z" fill-rule="nonzero"/><path fill="#3d85c6" d="M182.0 20.55C182.0 19.997715 182.44771 19.55 183.0 19.55L193.0 19.55C193.55229 19.55 194.0 19.997715 194.0 20.55L194.0 30.55C194.0 31.102285 193.55229 31.55 193.0 31.55L183.0 31.55C182.44771 31.55 182.0 31.102285 182.0 30.55Z" fill-rule="nonzero"/><path fill="#1a1a1a" d="M206.95312 26.175L206.95312 25.175L210.57812 25.159374L210.57812 28.346874Q209.75 29.01875 208.85938 29.3625Q207.96875 29.690624 207.03125 29.690624Q205.76562 29.690624 204.71875 29.159374Q203.6875 28.6125 203.15625 27.596874Q202.64062 26.565624 202.64062 25.3Q202.64062 24.034374 203.15625 22.95625Q203.6875 21.8625 204.67188 21.346874Q205.65625 20.815624 206.9375 20.815624Q207.875 20.815624 208.625 21.1125Q209.375 21.409374 209.79688 21.95625Q210.23438 22.4875 210.45312 23.3625L209.4375 23.64375Q209.23438 22.9875 208.9375 22.6125Q208.65625 22.2375 208.125 22.01875Q207.59375 21.784374 206.95312 21.784374Q206.17188 21.784374 205.59375 22.01875Q205.03125 22.253124 204.67188 22.64375Q204.32812 23.034374 204.14062 23.503124Q203.8125 24.3 203.8125 25.221874Q203.8125 26.378124 204.20312 27.159374Q204.60938 27.925 205.35938 28.3Q206.10938 28.675 206.96875 28.675Q207.70312 28.675 208.40625 28.39375Q209.10938 28.096874 209.46875 27.784374L209.46875 26.175L206.95312 26.175ZM211.89062 29.55L211.89062 20.95625L213.60938 20.95625L215.64062 27.034374Q215.92188 27.89375 216.04688 28.315624Q216.1875 27.846874 216.5 26.940624L218.5625 20.95625L220.09375 20.95625L220.09375 29.55L219.0 29.55L219.0 22.3625L216.5 29.55L215.46875 29.55L212.98438 22.2375L212.98438 29.55L211.89062 29.55ZM223.375 29.55L220.04688 20.95625L221.28125 20.95625L223.51562 27.20625Q223.78125 27.95625 223.96875 28.6125Q224.17188 27.909374 224.4375 27.20625L226.75 20.95625L227.90625 20.95625L224.54688 29.55L223.375 29.55Z" fill-rule="nonzero"/><path stroke="#cc0000" stroke-width="4.0" stroke-linecap="butt" d="M243.0 25.55L255.0 25.55" fill-rule="nonzero"/><path fill="#1a1a1a" d="M263.875 29.55L263.875 20.95625L265.01562 20.95625L265.01562 28.534374L269.25 28.534374L269.25 29.55L263.875 29.55ZM273.10938 29.55L273.10938 21.971874L270.28125 21.971874L270.28125 20.95625L277.09375 20.95625L277.09375 21.971874L274.25 21.971874L274.25 29.55L273.10938 29.55ZM280.375 29.55L277.04688 20.95625L278.28125 20.95625L280.51562 27.20625Q280.78125 27.95625 280.96875 28.6125Q281.17188 27.909374 281.4375 27.20625L283.75 20.95625L284.90625 20.95625L281.54688 29.55L280.375 29.55ZM287.0 29.690624L289.48438 20.815624L290.32812 20.815624L287.84375 29.690624L287.0 29.690624ZM300.0625 26.534374L301.1875 26.83125Q300.82812 28.221874 299.90625 28.95625Q298.98438 29.690624 297.64062 29.690624Q296.25 29.690624 295.375 29.128124Q294.5 28.565624 294.04688 27.503124Q293.59375 26.425 293.59375 25.190624Q293.59375 23.846874 294.10938 22.846874Q294.625 21.846874 295.5625 21.33125Q296.51562 20.815624 297.65625 20.815624Q298.9375 20.815624 299.8125 21.471874Q300.70312 22.128124 301.04688 23.315624L299.92188 23.58125Q299.625 22.64375 299.04688 22.221874Q298.48438 21.784374 297.625 21.784374Q296.64062 21.784374 295.96875 22.26875Q295.3125 22.7375 295.03125 23.534374Q294.76562 24.33125 294.76562 25.190624Q294.76562 26.284374 295.07812 27.096874Q295.40625 27.909374 296.07812 28.315624Q296.75 28.721874 297.54688 28.721874Q298.5 28.721874 299.15625 28.175Q299.82812 27.628124 300.0625 26.534374ZM301.98438 29.55L305.28125 20.95625L306.5 20.95625L310.01562 29.55L308.73438 29.55L307.71875 26.940624L304.14062 26.940624L303.1875 29.55L301.98438 29.55ZM304.46875 26.01875L307.375 26.01875L306.48438 23.64375Q306.0625 22.565624 305.875 21.8625Q305.70312 22.690624 305.40625 23.503124L304.46875 26.01875ZM316.0625 26.534374L317.1875 26.83125Q316.82812 28.221874 315.90625 28.95625Q314.98438 29.690624 313.64062 29.690624Q312.25 29.690624 311.375 29.128124Q310.5 28.565624 310.04688 27.503124Q309.59375 26.425 309.59375 25.190624Q309.59375 23.846874 310.10938 22.846874Q310.625 21.846874 311.5625 21.33125Q312.51562 20.815624 313.65625 20.815624Q314.9375 20.815624 315.8125 21.471874Q316.70312 22.128124 317.04688 23.315624L315.92188 23.58125Q315.625 22.64375 315.04688 22.221874Q314.48438 21.784374 313.625 21.784374Q312.64062 21.784374 311.96875 22.26875Q311.3125 22.7375 311.03125 23.534374Q310.76562 24.33125 310.76562 25.190624Q310.76562 26.284374 311.07812 27.096874Q311.40625 27.909374 312.07812 28.315624Q312.75 28.721874 313.54688 28.721874Q314.5 28.721874 315.15625 28.175Q315.82812 27.628124 316.0625 26.534374Z" fill-rule="nonzero"/><path stroke="#666666" stroke-width="4.0" stroke-linecap="butt" stroke-dasharray="4.0,5.0" d="M334.0 25.55L347.0 25.55" fill-rule="nonzero"/><path fill="#1a1a1a" d="M355.875 29.55L355.875 20.95625L359.10938 20.95625Q360.09375 20.95625 360.6875 21.221874Q361.28125 21.4875 361.60938 22.034374Q361.95312 22.565624 361.95312 23.159374Q361.95312 23.70625 361.65625 24.190624Q361.35938 24.675 360.75 24.971874Q361.53125 25.20625 361.9375 25.76875Q362.35938 26.315624 362.35938 27.065624Q362.35938 27.659374 362.10938 28.190624Q361.85938 28.70625 361.48438 28.9875Q361.10938 29.26875 360.53125 29.409374Q359.96875 29.55 359.15625 29.55L355.875 29.55ZM357.01562 24.565624L358.875 24.565624Q359.625 24.565624 359.95312 24.471874Q360.39062 24.346874 360.60938 24.05Q360.82812 23.7375 360.82812 23.284374Q360.82812 22.8625 360.625 22.534374Q360.42188 22.20625 360.03125 22.096874Q359.65625 21.971874 358.73438 21.971874L357.01562 21.971874L357.01562 24.565624ZM357.01562 28.534374L359.15625 28.534374Q359.70312 28.534374 359.92188 28.4875Q360.32812 28.425 360.57812 28.26875Q360.84375 28.096874 361.01562 27.784374Q361.1875 27.471874 361.1875 27.065624Q361.1875 26.58125 360.9375 26.221874Q360.70312 25.8625 360.26562 25.721874Q359.82812 25.58125 359.0 25.58125L357.01562 25.58125L357.01562 28.534374ZM368.04688 27.55L369.14062 27.675Q368.89062 28.628124 368.1875 29.159374Q367.48438 29.690624 366.40625 29.690624Q365.04688 29.690624 364.23438 28.846874Q363.4375 28.003124 363.4375 26.4875Q363.4375 24.925 364.25 24.065624Q365.0625 23.190624 366.34375 23.190624Q367.59375 23.190624 368.375 24.034374Q369.17188 24.878124 369.17188 26.425Q369.17188 26.51875 369.17188 26.70625L364.53125 26.70625Q364.59375 27.7375 365.10938 28.284374Q365.625 28.815624 366.40625 28.815624Q366.98438 28.815624 367.39062 28.51875Q367.8125 28.20625 368.04688 27.55ZM364.59375 25.846874L368.0625 25.846874Q368.0 25.05 367.67188 24.659374Q367.15625 24.05 366.35938 24.05Q365.625 24.05 365.125 24.534374Q364.64062 25.01875 364.59375 25.846874ZM370.79688 29.55L370.79688 23.33125L371.73438 23.33125L371.73438 24.20625Q372.42188 23.190624 373.71875 23.190624Q374.28125 23.190624 374.75 23.39375Q375.23438 23.596874 375.46875 23.925Q375.70312 24.253124 375.79688 24.690624Q375.84375 24.9875 375.84375 25.721874L375.84375 29.55L374.79688 29.55L374.79688 25.76875Q374.79688 25.1125 374.67188 24.8Q374.54688 24.4875 374.23438 24.3Q373.92188 24.096874 373.5 24.096874Q372.82812 24.096874 372.32812 24.534374Q371.84375 24.95625 371.84375 26.14375L371.84375 29.55L370.79688 29.55ZM381.85938 27.26875L382.89062 27.409374Q382.71875 28.471874 382.01562 29.08125Q381.3125 29.690624 380.29688 29.690624Q379.01562 29.690624 378.23438 28.8625Q377.46875 28.01875 377.46875 26.45625Q377.46875 25.45625 377.79688 24.70625Q378.14062 23.940624 378.8125 23.565624Q379.5 23.190624 380.3125 23.190624Q381.3125 23.190624 381.95312 23.70625Q382.60938 24.20625 382.79688 25.159374L381.76562 25.315624Q381.625 24.690624 381.25 24.378124Q380.875 24.05 380.34375 24.05Q379.54688 24.05 379.04688 24.628124Q378.54688 25.190624 378.54688 26.425Q378.54688 27.690624 379.03125 28.253124Q379.51562 28.815624 380.28125 28.815624Q380.90625 28.815624 381.3125 28.440624Q381.73438 28.065624 381.85938 27.26875ZM383.79688 29.55L383.79688 20.95625L384.84375 20.95625L384.84375 24.034374Q385.57812 23.190624 386.70312 23.190624Q387.40625 23.190624 387.90625 23.471874Q388.42188 23.7375 388.64062 24.221874Q388.85938 24.690624 388.85938 25.6125L388.85938 29.55L387.8125 29.55L387.8125 25.6125Q387.8125 24.815624 387.46875 24.45625Q387.125 24.096874 386.5 24.096874Q386.03125 24.096874 385.60938 24.346874Q385.20312 24.58125 385.01562 25.003124Q384.84375 25.409374 384.84375 26.14375L384.84375 29.55L383.79688 29.55ZM390.79688 29.55L390.79688 23.33125L391.73438 23.33125L391.73438 24.20625Q392.03125 23.7375 392.51562 23.471874Q393.0 23.190624 393.625 23.190624Q394.3125 23.190624 394.75 23.471874Q395.20312 23.753124 395.375 24.26875Q396.125 23.190624 397.29688 23.190624Q398.23438 23.190624 398.71875 23.70625Q399.21875 24.20625 399.21875 25.284374L399.21875 29.55L398.17188 29.55L398.17188 25.628124Q398.17188 25.003124 398.0625 24.721874Q397.96875 24.440624 397.70312 24.26875Q397.4375 24.096874 397.0625 24.096874Q396.40625 24.096874 395.96875 24.534374Q395.54688 24.971874 395.54688 25.940624L395.54688 29.55L394.48438 29.55L394.48438 25.503124Q394.48438 24.8 394.21875 24.45625Q393.96875 24.096874 393.39062 24.096874Q392.9375 24.096874 392.5625 24.33125Q392.1875 24.565624 392.01562 25.01875Q391.84375 25.471874 391.84375 26.315624L391.84375 29.55L390.79688 29.55ZM405.85938 28.784374Q405.26562 29.284374 404.71875 29.4875Q404.1875 29.690624 403.5625 29.690624Q402.53125 29.690624 401.98438 29.190624Q401.4375 28.690624 401.4375 27.909374Q401.4375 27.45625 401.64062 27.08125Q401.84375 26.690624 402.1875 26.471874Q402.53125 26.2375 402.95312 26.128124Q403.25 26.034374 403.89062 25.95625Q405.15625 25.815624 405.76562 25.596874Q405.76562 25.378124 405.76562 25.33125Q405.76562 24.675 405.46875 24.409374Q405.0625 24.065624 404.26562 24.065624Q403.53125 24.065624 403.17188 24.33125Q402.8125 24.58125 402.64062 25.2375L401.60938 25.096874Q401.75 24.440624 402.07812 24.034374Q402.40625 23.628124 403.01562 23.409374Q403.625 23.190624 404.42188 23.190624Q405.21875 23.190624 405.71875 23.378124Q406.21875 23.565624 406.45312 23.846874Q406.6875 24.128124 406.78125 24.565624Q406.82812 24.83125 406.82812 25.534374L406.82812 26.940624Q406.82812 28.409374 406.89062 28.8Q406.96875 29.190624 407.17188 29.55L406.0625 29.55Q405.90625 29.221874 405.85938 28.784374ZM405.76562 26.425Q405.1875 26.659374 404.04688 26.83125Q403.39062 26.925 403.125 27.05Q402.85938 27.159374 402.70312 27.378124Q402.5625 27.596874 402.5625 27.878124Q402.5625 28.3 402.875 28.58125Q403.20312 28.8625 403.8125 28.8625Q404.42188 28.8625 404.89062 28.596874Q405.375 28.33125 405.59375 27.8625Q405.76562 27.503124 405.76562 26.815624L405.76562 26.425ZM408.78125 29.55L408.78125 23.33125L409.73438 23.33125L409.73438 24.26875Q410.09375 23.6125 410.39062 23.409374Q410.70312 23.190624 411.07812 23.190624Q411.60938 23.190624 412.15625 23.51875L411.79688 24.503124Q411.40625 24.26875 411.03125 24.26875Q410.67188 24.26875 410.39062 24.4875Q410.125 24.690624 410.01562 25.065624Q409.82812 25.628124 409.82812 26.284374L409.82812 29.55L408.78125 29.55ZM412.79688 29.55L412.79688 20.95625L413.85938 20.95625L413.85938 25.8625L416.34375 23.33125L417.71875 23.33125L415.32812 25.628124L417.95312 29.55L416.65625 29.55L414.59375 26.3625L413.85938 27.08125L413.85938 29.55L412.79688 29.55Z" fill-rule="nonzero"/></svg>